<svg xmlns="http://www.w3.org/2000/svg" data-name="Layer 1" viewBox="0 0 700 550"><defs><clipPath id="a"><circle cx="470.453" cy="217.027" r="83.572" fill="none"/></clipPath></defs><path fill="#ffe3cb" d="M167.49948,364.77275c14.31909,66.51854,159.021,172.09772,203.9612,82.11817,23.65553-47.36345,95.99229-116.95961,152.10656-158.7671,54.5632-40.65221-105.63539-103.28394-203.96082-82.118S153.18039,298.25421,167.49948,364.77275Z"/><path fill="#ffe3cb" d="M550.849,271.76253c-1.98384,4.09886-5.41249,7.99534-10.25953,11.60565l-.59734-.80119c11.24412-8.37665,14.56126-17.8776,9.86013-28.23134-8.58683-18.91324-43.44868-38.90439-90.97969-52.16986-49.90991-13.92972-103.07463-17.21626-142.21581-8.78985-107.41961,23.12329-182.10007,100.9838-166.4733,173.56814l-.97827.21c-15.742-73.12184,59.28272-151.51657,167.24155-174.75645,39.2919-8.45761,92.63575-5.16682,142.6947,8.80465,47.80805,13.34314,82.91544,33.54427,91.62095,52.71892C553.57145,260.10986,553.57605,266.128,550.849,271.76253Z"/><path fill="#8b9d36" d="M164.62775,482.10406l-.7832-.47071c.2207-.36621,22.041-36.73046,25.4375-45.78906l.85547.32031C186.71076,445.3023,165.52717,480.605,164.62775,482.10406Z"/><path fill="#8b9d36" d="M182.31459 416.776a39.22394 39.22394 0 012.10916 7.0694 66.09034 66.09034 0 011.078 7.16753 64.77427 64.77427 0 01.29692 7.24176 38.69368 38.69368 0 01-.74452 7.34079 38.72912 38.72912 0 01-2.11407-7.069 64.87792 64.87792 0 01-1.07308-7.168 66.08876 66.08876 0 01-.292-7.24221A39.18864 39.18864 0 01182.31459 416.776zM174.26132 427.78716a37.4133 37.4133 0 012.73688 6.66543 62.83185 62.83185 0 011.71952 6.86081 61.876 61.876 0 01.94915 7.00877 37.00437 37.00437 0 01-.07846 7.206 36.97 36.97 0 01-2.74178-6.66448 61.87356 61.87356 0 01-1.71462-6.86182 62.93793 62.93793 0 01-.94425-7.00965A37.44929 37.44929 0 01174.26132 427.78716zM169.82409 440.60617a31.74489 31.74489 0 012.32985 6.19548 52.73543 52.73543 0 011.30357 6.34193 51.853 51.853 0 01.52741 6.45272 31.34378 31.34378 0 01-.50824 6.60056 31.34628 31.34628 0 01-2.33475-6.19481 51.76824 51.76824 0 01-1.29867-6.3426 52.73855 52.73855 0 01-.52249-6.45344A31.71515 31.71515 0 01169.82409 440.60617zM164.23621 453.40149a24.30262 24.30262 0 012.36239 5.27241 39.60425 39.60425 0 011.341 5.44874 38.87162 38.87162 0 01.56842 5.58215 24.02106 24.02106 0 01-.46231 5.76014 24.00274 24.00274 0 01-2.3673-5.27158 38.9339 38.9339 0 01-1.33656-5.44958 39.66762 39.66762 0 01-.56352-5.583A24.30226 24.30226 0 01164.23621 453.40149zM159.3059 461.399a21.88015 21.88015 0 012.49391 4.62938 37.72563 37.72563 0 011.56794 4.80236 43.10657 43.10657 0 01.94692 4.92484c.10254.83591.19661 1.66714.259 2.51441a18.71258 18.71258 0 00.27552 2.57461 5.0552 5.0552 0 01-.60632-.38274l-.49218-.49319a9.09966 9.09966 0 01-.86087-1.07676 17.24714 17.24714 0 01-1.32364-2.30365 25.65283 25.65283 0 01-1.73691-4.85753 28.753 28.753 0 01-.81763-5.05781A19.04062 19.04062 0 01159.3059 461.399zM187.10312 441.65769a31.4531 31.4531 0 015.5549-4.8169 51.4752 51.4752 0 016.13981-3.66123 50.57222 50.57222 0 016.58295-2.78653 31.09314 31.09314 0 017.17322-1.61983 31.085 31.085 0 01-5.55178 4.82242 50.57769 50.57769 0 01-6.14293 3.65571 51.45432 51.45432 0 01-6.58563 2.781A31.45067 31.45067 0 01187.10312 441.65769zM181.64675 451.8492a38.74618 38.74618 0 016.85134-4.4851 64.51059 64.51059 0 017.307-3.27247 63.35575 63.35575 0 017.65158-2.35481 38.30415 38.30415 0 018.11122-1.13065 38.31273 38.31273 0 01-6.84866 4.49089 63.36644 63.36644 0 01-7.30919 3.26668 64.49791 64.49791 0 01-7.65381 2.349A38.74629 38.74629 0 01181.64675 451.8492zM175.22385 463.17745a33.04252 33.04252 0 016.17592-4.33024 54.29983 54.29983 0 016.64715-3.12351 53.33768 53.33768 0 017.00336-2.21026 32.65994 32.65994 0 017.4786-.992 32.67111 32.67111 0 01-6.17369 4.336 53.34571 53.34571 0 01-6.64938 3.11777 54.30762 54.30762 0 01-7.00559 2.20452A33.04083 33.04083 0 01175.22385 463.17745zM170.14776 471.89682A24.77075 24.77075 0 01175.572 468.324a39.56178 39.56178 0 015.81124-2.33659 38.85108 38.85108 0 016.10459-1.40109 24.508 24.508 0 016.49513-.15308 24.506 24.506 0 01-5.42249 3.57869 38.848 38.848 0 01-5.81347 2.33074 39.53966 39.53966 0 01-6.10593 1.39513A24.78317 24.78317 0 01170.14776 471.89682z"/><path fill="#8b9d36" d="M166.14074 479.7206a32.58029 32.58029 0 015.96238-4.5303 53.46986 53.46986 0 016.47685-3.34152 52.54041 52.54041 0 016.86649-2.442 32.21474 32.21474 0 017.38587-1.24183 32.20154 32.20154 0 01-5.9597 4.536 52.51794 52.51794 0 01-6.47952 3.33595 53.45983 53.45983 0 01-6.86872 2.43617A32.5793 32.5793 0 01166.14074 479.7206zM188.87614 437.31926a22.93159 22.93159 0 01.17788-7.3224 34.50321 34.50321 0 011.86575-6.66142 33.93683 33.93683 0 013.14436-6.16076 22.7026 22.7026 0 014.84917-5.49349 22.68913 22.68913 0 01-.16942 7.32552 33.96708 33.96708 0 01-1.87377 6.6583 34.50588 34.50588 0 01-3.15283 6.15759A22.93538 22.93538 0 01188.87614 437.31926z"/><path fill="#50661a" d="M162.27424,482.59624l-.91211-.01562c.04-2.49414,1.123-61.31445,12.88964-79.94434l.77149.48828C163.39338,421.53863,162.284,481.98785,162.27424,482.59624Z"/><path fill="#50661a" d="M170.85709 411.03883a41.84232 41.84232 0 00.27373-8.23382 74.02179 74.02179 0 00-.88986-7.98723c-.4262-2.634-1.00621-5.24171-1.68831-7.82779-.68121-2.60313-1.54164-5.10768-2.46092-7.7754a11.40846 11.40846 0 00-.58892 2.04708 18.24132 18.24132 0 00-.32188 2.08014 35.24726 35.24726 0 00-.18546 4.12928 53.01861 53.01861 0 00.74317 8.09277 58.81677 58.81677 0 001.87244 7.87973A37.04883 37.04883 0 00170.85709 411.03883zM185.31988 373.79115a29.58394 29.58394 0 00-5.15054 6.61773 46.50747 46.50747 0 00-3.452 7.25341 45.7021 45.7021 0 00-2.16668 7.73456 29.26476 29.26476 0 00-.45206 8.37625 29.26418 29.26418 0 005.15856-6.61471 45.66056 45.66056 0 003.444-7.25648 46.50719 46.50719 0 002.15865-7.73757A29.56866 29.56866 0 00185.31988 373.79115zM195.01643 388.78213a68.14932 68.14932 0 00-6.78268 6.2497c-2.09624 2.173-4.09663 4.39466-6.05377 6.62832l-5.81481 6.67317c-.97545 1.09276-1.96115 2.16952-3.00259 3.18944a13.71007 13.71007 0 01-3.54826 2.68043 6.159 6.159 0 002.42837-.06158 11.36866 11.36866 0 002.33965-.73588 22.595 22.595 0 004.16707-2.3893 40.89817 40.89817 0 006.86426-6.3503 54.18675 54.18675 0 005.45459-7.45163A38.7816 38.7816 0 00195.01643 388.78213zM195.01643 403.7731a56.13536 56.13536 0 00-8.43177 5.18587 95.52721 95.52721 0 00-7.56509 6.14851 93.91162 93.91162 0 00-6.90929 6.877 55.503 55.503 0 00-6.03415 7.8488 55.48092 55.48092 0 008.43622-5.1813 93.83535 93.83535 0 007.56108-6.15307 95.51718 95.51718 0 006.90483-6.8816A56.12685 56.12685 0 00195.01643 403.7731zM194.03028 415.53513a55.50687 55.50687 0 00-8.5187 4.9264 94.40374 94.40374 0 00-7.67788 5.91127 92.77833 92.77833 0 00-7.04081 6.65657 54.88367 54.88367 0 00-6.19108 7.65075 54.85714 54.85714 0 008.52315-4.92167 92.71623 92.71623 0 007.67343-5.916 94.39952 94.39952 0 007.03679-6.66125A55.48055 55.48055 0 00194.03028 415.53513zM193.37314 428.10765a51.60627 51.60627 0 00-8.533 4.13948 87.39047 87.39047 0 00-7.75813 5.17734 85.93531 85.93531 0 00-7.17144 5.96294 50.99469 50.99469 0 00-6.389 7.01077 51.04091 51.04091 0 008.53653-4.13452 85.9327 85.9327 0 007.75456-5.18236 87.44925 87.44925 0 007.16743-5.96789A51.60439 51.60439 0 00193.37314 428.10765zM194.03028 437.22887a57.41523 57.41523 0 00-8.928 4.53308 97.80114 97.80114 0 00-8.14466 5.56476 96.08159 96.08159 0 00-7.55216 6.34561 56.74012 56.74012 0 00-6.76083 7.387 56.74582 56.74582 0 008.93152-4.52812 96.08347 96.08347 0 008.14109-5.56972 97.78442 97.78442 0 007.54815-6.35052A57.41 57.41 0 00194.03028 437.22887zM196.33114 445.77487a74.84723 74.84723 0 00-9.33231 5.17941c-2.96291 1.89673-5.82952 3.90186-8.62436 5.99464-2.80286 2.08058-5.52814 4.24971-8.20528 6.49106-2.70478 2.22213-5.25977 4.53654-8.05817 6.8286a22.56429 22.56429 0 005.22544-1.52492 51.10018 51.10018 0 004.85228-2.336 79.64028 79.64028 0 008.91726-5.80278 91.94524 91.94524 0 008.101-6.83617A58.23843 58.23843 0 00196.33114 445.77487zM199.12509 454.64961a76.97434 76.97434 0 00-10.1339 4.81579c-3.23619 1.80283-6.377 3.73858-9.44555 5.77619q-4.60351 3.0555-8.985 6.42574-2.19009 1.68989-4.33826 3.4405a38.65943 38.65943 0 01-4.4038 3.37205 8.50631 8.50631 0 002.847-.48895c.91749-.27172 1.80824-.6023 2.68918-.94613 1.757-.69749 3.45464-1.49528 5.11977-2.34066a97.16144 97.16144 0 009.59892-5.66268 109.72606 109.72606 0 008.93464-6.62146A67.91133 67.91133 0 00199.12509 454.64961zM168.02436 421.47978a45.42415 45.42415 0 00-1.30982-8.78875 76.3247 76.3247 0 00-2.526-8.34382 75.1267 75.1267 0 00-3.44706-8.00712 44.93452 44.93452 0 00-4.67485-7.558 44.939 44.939 0 001.30357 8.79087 75.12854 75.12854 0 002.53225 8.3417 76.43112 76.43112 0 003.45286 8.005A45.42366 45.42366 0 00168.02436 421.47978zM166.07613 431.74213a46.41548 46.41548 0 00-2.52244-8.62441 78.16245 78.16245 0 00-3.66819-8.02055 76.86126 76.86126 0 00-4.53576-7.56359 45.92022 45.92022 0 00-5.69265-6.954 45.92123 45.92123 0 002.51664 8.6273 76.952 76.952 0 003.674 8.01766 78.25471 78.25471 0 004.5411 7.56069A46.47467 46.47467 0 00166.07613 431.74213zM164.60181 441.66621a50.84136 50.84136 0 00-3.69227-8.65829 86.15746 86.15746 0 00-4.76535-7.93306 84.64489 84.64489 0 00-5.57808-7.38409 50.27191 50.27191 0 00-6.66142-6.65194 50.26718 50.26718 0 003.68737 8.6618 84.54071 84.54071 0 004.7707 7.92955 86.06127 86.06127 0 005.583 7.38069A50.84293 50.84293 0 00164.60181 441.66621zM163.52159 452.61512a65.55785 65.55785 0 00-5.28607-9.29269q-2.94708-4.39814-6.28916-8.47284-3.33093-4.08382-7.04794-7.85236a64.5419 64.5419 0 00-8.06039-7.02476 64.53445 64.53445 0 005.28116 9.29659q2.94708 4.39789 6.29362 8.46894 3.339 4.0779 7.05284 7.84846A65.479 65.479 0 00163.52159 452.61512zM162.64467 463.96867a66.20513 66.20513 0 00-6.25974-8.73492q-3.4065-4.08927-7.17277-7.81564-3.75558-3.73677-7.8629-7.12a65.20614 65.20614 0 00-8.7844-6.19186 65.20726 65.20726 0 006.25527 8.73927q3.4065 4.08885 7.17679 7.81129 3.76293 3.73 7.86735 7.11554A66.18121 66.18121 0 00162.64467 463.96867zM162.111 471.2486a57.69878 57.69878 0 00-6.801-7.38431 98.30175 98.30175 0 00-7.582-6.351 96.56833 96.56833 0 00-8.17319-5.56905 57.0364 57.0364 0 00-8.96228-4.52589 57.0522 57.0522 0 006.79739 7.38921 96.6385 96.6385 0 007.5856 6.34612 98.37492 98.37492 0 008.1772 5.56409A57.70977 57.70977 0 00162.111 471.2486zM161.81856 477.32945a61.07829 61.07829 0 00-7.94537-6.60625q-4.16751-2.96262-8.58869-5.48178-4.41428-2.53155-9.07552-4.63088a60.36249 60.36249 0 00-9.72509-3.49577 60.37169 60.37169 0 007.9427 6.61154q4.16751 2.96229 8.59137 5.47643 4.419 2.52345 9.07864 4.62559A61.08823 61.08823 0 00161.81856 477.32945zM162.04549 481.27372a65.96466 65.96466 0 00-9.29576-5.35428c-3.18939-1.53975-6.44119-2.91164-9.746-4.13976q-4.9566-1.84384-10.08664-3.22059a65.0026 65.0026 0 00-10.54182-1.99437 65.00322 65.00322 0 009.29353 5.36007q4.78475 2.30913 9.74827 4.134c3.30663 1.22332 6.66676 2.303 10.08886 3.21479A65.95545 65.95545 0 00162.04549 481.27372z"/><path fill="#5e7c24" d="M160.44806,480.95953c-.89941-1.499-22.083-36.80079-25.50976-45.93946l.85547-.32031c3.39648,9.05957,25.21679,45.42285,25.4375,45.78906Z"/><path fill="#5e7c24" d="M142.71514 415.776a39.22394 39.22394 0 00-2.10916 7.0694 66.09034 66.09034 0 00-1.078 7.16753 64.77427 64.77427 0 00-.29692 7.24176 38.69368 38.69368 0 00.74452 7.34079 38.72912 38.72912 0 002.11407-7.069 64.88032 64.88032 0 001.07309-7.168 66.08876 66.08876 0 00.292-7.24221A39.18864 39.18864 0 00142.71514 415.776zM150.76841 426.78716a37.4133 37.4133 0 00-2.73688 6.66543 62.83414 62.83414 0 00-1.71952 6.86081 61.876 61.876 0 00-.94915 7.00877 37.00437 37.00437 0 00.07846 7.206 36.97073 36.97073 0 002.74179-6.66448 61.87573 61.87573 0 001.71461-6.86182 62.93793 62.93793 0 00.94425-7.00965A37.44929 37.44929 0 00150.76841 426.78716zM155.20564 439.60617a31.74489 31.74489 0 00-2.32985 6.19548 52.73543 52.73543 0 00-1.30357 6.34193 51.853 51.853 0 00-.52741 6.45272 31.34378 31.34378 0 00.50824 6.60056 31.34628 31.34628 0 002.33475-6.19481 51.76824 51.76824 0 001.29867-6.3426 52.74054 52.74054 0 00.5225-6.45344A31.71449 31.71449 0 00155.20564 439.60617zM160.79352 452.40149a24.3031 24.3031 0 00-2.36239 5.27241 39.6057 39.6057 0 00-1.341 5.44874 38.87162 38.87162 0 00-.56842 5.58215 24.02057 24.02057 0 00.46232 5.76014 24.00269 24.00269 0 002.36729-5.27158 38.9339 38.9339 0 001.33656-5.44958 39.66762 39.66762 0 00.56352-5.583A24.30226 24.30226 0 00160.79352 452.40149zM165.72383 460.399a21.88015 21.88015 0 00-2.49391 4.62938 37.72722 37.72722 0 00-1.56794 4.80236 43.10657 43.10657 0 00-.94692 4.92484c-.10254.83591-.19661 1.66714-.259 2.51441a18.71258 18.71258 0 01-.27552 2.57461 5.05441 5.05441 0 00.60632-.38274l.49218-.49319a9.10077 9.10077 0 00.86088-1.07676 17.24815 17.24815 0 001.32363-2.30365 25.65283 25.65283 0 001.73691-4.85753 28.753 28.753 0 00.81763-5.05781A19.04062 19.04062 0 00165.72383 460.399zM137.92661 440.65769a31.4531 31.4531 0 00-5.5549-4.8169 51.4752 51.4752 0 00-6.13981-3.66123A50.57222 50.57222 0 00119.649 429.393a31.09314 31.09314 0 00-7.17322-1.61983 31.085 31.085 0 005.55178 4.82242 50.57769 50.57769 0 006.14293 3.65571 51.45432 51.45432 0 006.58563 2.781A31.45067 31.45067 0 00137.92661 440.65769zM143.383 450.8492a38.74618 38.74618 0 00-6.85134-4.4851 64.51059 64.51059 0 00-7.307-3.27247 63.35575 63.35575 0 00-7.65158-2.35481 38.30415 38.30415 0 00-8.11122-1.13065 38.31309 38.31309 0 006.84866 4.49089 63.36658 63.36658 0 007.3092 3.26668 64.49719 64.49719 0 007.6538 2.349A38.74629 38.74629 0 00143.383 450.8492zM149.80588 462.17745a33.04252 33.04252 0 00-6.17592-4.33024 54.29914 54.29914 0 00-6.64715-3.12351 53.33768 53.33768 0 00-7.00336-2.21026 32.65994 32.65994 0 00-7.4786-.992 32.67111 32.67111 0 006.17369 4.336 53.34571 53.34571 0 006.64938 3.11777 54.30762 54.30762 0 007.00559 2.20452A33.04083 33.04083 0 00149.80588 462.17745zM154.882 470.89682a24.77075 24.77075 0 00-5.42427-3.57285 39.56178 39.56178 0 00-5.81124-2.33659 38.85108 38.85108 0 00-6.10459-1.40109 24.508 24.508 0 00-6.49513-.15308 24.50643 24.50643 0 005.42249 3.57869 38.848 38.848 0 005.81347 2.33074 39.53966 39.53966 0 006.10593 1.39513A24.78317 24.78317 0 00154.882 470.89682z"/><path fill="#5e7c24" d="M158.889 478.7206a32.58029 32.58029 0 00-5.96238-4.5303 53.46986 53.46986 0 00-6.47685-3.34152 52.54041 52.54041 0 00-6.86649-2.442 32.21465 32.21465 0 00-7.38587-1.24183 32.20154 32.20154 0 005.9597 4.536 52.51794 52.51794 0 006.47952 3.33595 53.45983 53.45983 0 006.86872 2.43617A32.5794 32.5794 0 00158.889 478.7206zM136.15359 436.31926a22.93159 22.93159 0 00-.17788-7.3224 34.50321 34.50321 0 00-1.86575-6.66142 33.93683 33.93683 0 00-3.14436-6.16076 22.70276 22.70276 0 00-4.84916-5.49349 22.68885 22.68885 0 00.16941 7.32552 33.96708 33.96708 0 001.87377 6.6583 34.50588 34.50588 0 003.15283 6.15759A22.93538 22.93538 0 00136.15359 436.31926z"/><path fill="#8b9d36" d="M522.24154,482.10406l-.7832-.47071c.2207-.36621,22.041-36.73046,25.4375-45.78906l.85546.32031C544.32455,445.3023,523.141,480.605,522.24154,482.10406Z"/><path fill="#8b9d36" d="M539.92837 416.776a39.224 39.224 0 012.10917 7.0694 66.09034 66.09034 0 011.078 7.16753 64.77426 64.77426 0 01.29691 7.24176 38.69448 38.69448 0 01-.74451 7.34079 38.72912 38.72912 0 01-2.11407-7.069 64.88032 64.88032 0 01-1.07309-7.168 66.08876 66.08876 0 01-.292-7.24221A39.18945 39.18945 0 01539.92837 416.776zM531.87511 427.78716a37.414 37.414 0 012.73688 6.66543 62.83414 62.83414 0 011.71952 6.86081 61.876 61.876 0 01.94915 7.00877 37.00359 37.00359 0 01-.07847 7.206 36.97 36.97 0 01-2.74178-6.66448 61.87578 61.87578 0 01-1.71462-6.86182 62.93791 62.93791 0 01-.94424-7.00965A37.44929 37.44929 0 01531.87511 427.78716zM527.43788 440.60617a31.74553 31.74553 0 012.32985 6.19548 52.73738 52.73738 0 011.30357 6.34193 51.8511 51.8511 0 01.5274 6.45272 31.34376 31.34376 0 01-.50823 6.60056 31.34628 31.34628 0 01-2.33475-6.19481 51.76636 51.76636 0 01-1.29867-6.3426 52.73856 52.73856 0 01-.5225-6.45344A31.71449 31.71449 0 01527.43788 440.60617zM521.85 453.40149a24.30266 24.30266 0 012.3624 5.27241 39.6057 39.6057 0 011.341 5.44874 38.87162 38.87162 0 01.56842 5.58215 24.02057 24.02057 0 01-.46232 5.76014 24.00269 24.00269 0 01-2.36729-5.27158 38.93534 38.93534 0 01-1.33657-5.44958 39.66909 39.66909 0 01-.56351-5.583A24.30277 24.30277 0 01521.85 453.40149zM516.91969 461.399a21.88015 21.88015 0 012.49391 4.62938 37.72722 37.72722 0 011.56794 4.80236 43.10874 43.10874 0 01.94692 4.92484c.10254.83591.1966 1.66714.259 2.51441a18.71253 18.71253 0 00.27551 2.57461 5.05513 5.05513 0 01-.60631-.38274l-.49218-.49319a9.09975 9.09975 0 01-.86088-1.07676 17.24815 17.24815 0 01-1.32363-2.30365 25.65283 25.65283 0 01-1.73691-4.85753 28.753 28.753 0 01-.81763-5.05781A19.04062 19.04062 0 01516.91969 461.399zM544.71691 441.65769a31.45275 31.45275 0 015.5549-4.8169 51.47441 51.47441 0 016.13981-3.66123 50.57222 50.57222 0 016.58295-2.78653 31.09314 31.09314 0 017.17322-1.61983 31.085 31.085 0 01-5.55178 4.82242 50.57769 50.57769 0 01-6.14293 3.65571 51.45492 51.45492 0 01-6.58563 2.781A31.45067 31.45067 0 01544.71691 441.65769zM539.26054 451.8492a38.74647 38.74647 0 016.85133-4.4851 64.51153 64.51153 0 017.307-3.27247 63.35575 63.35575 0 017.65158-2.35481 38.30415 38.30415 0 018.11122-1.13065 38.31281 38.31281 0 01-6.84867 4.49089 63.36568 63.36568 0 01-7.30919 3.26668 64.49677 64.49677 0 01-7.65381 2.349A38.74619 38.74619 0 01539.26054 451.8492zM532.83763 463.17745a33.04252 33.04252 0 016.17592-4.33024 54.3 54.3 0 016.64716-3.12351 53.33768 53.33768 0 017.00336-2.21026 32.65994 32.65994 0 017.4786-.992 32.67143 32.67143 0 01-6.17369 4.336 53.34571 53.34571 0 01-6.64938 3.11777 54.30762 54.30762 0 01-7.00559 2.20452A33.04092 33.04092 0 01532.83763 463.17745zM527.76155 471.89682a24.77075 24.77075 0 015.42427-3.57285 39.56134 39.56134 0 015.81124-2.33659 38.85108 38.85108 0 016.10459-1.40109 24.508 24.508 0 016.49513-.15308 24.50643 24.50643 0 01-5.42249 3.57869 38.848 38.848 0 01-5.81347 2.33074 39.53993 39.53993 0 01-6.10593 1.39513A24.78317 24.78317 0 01527.76155 471.89682z"/><path fill="#8b9d36" d="M523.75453 479.7206a32.58022 32.58022 0 015.96237-4.5303 53.47133 53.47133 0 016.47685-3.34152 52.54054 52.54054 0 016.8665-2.442 32.21465 32.21465 0 017.38587-1.24183 32.20154 32.20154 0 01-5.9597 4.536 52.51794 52.51794 0 01-6.47952 3.33595 53.45943 53.45943 0 01-6.86873 2.43617A32.57931 32.57931 0 01523.75453 479.7206zM546.48993 437.31926a22.9313 22.9313 0 01.17788-7.3224 34.50321 34.50321 0 011.86575-6.66142 33.9362 33.9362 0 013.14436-6.16076 22.70255 22.70255 0 014.84916-5.49349 22.68885 22.68885 0 01-.16941 7.32552 33.96708 33.96708 0 01-1.87377 6.6583 34.5072 34.5072 0 01-3.15283 6.15759A22.93538 22.93538 0 01546.48993 437.31926z"/><path fill="#50661a" d="M519.888,482.59624l-.91211-.01562c.04-2.49414,1.12305-61.31445,12.88965-79.94434l.77149.48828C521.00716,421.53863,519.89779,481.98785,519.888,482.59624Z"/><path fill="#50661a" d="M528.47087 411.03883a41.84155 41.84155 0 00.27373-8.23382 74.02178 74.02178 0 00-.88985-7.98723c-.4262-2.634-1.00621-5.24171-1.68831-7.82779-.68121-2.60313-1.54164-5.10768-2.46092-7.7754a11.40931 11.40931 0 00-.58893 2.04708 18.24354 18.24354 0 00-.32188 2.08014 35.25161 35.25161 0 00-.18546 4.12928 53.01861 53.01861 0 00.74318 8.09277 58.81524 58.81524 0 001.87244 7.87973A37.04933 37.04933 0 00528.47087 411.03883zM542.93366 373.79115a29.5836 29.5836 0 00-5.15053 6.61773 46.50752 46.50752 0 00-3.452 7.25341 45.703 45.703 0 00-2.16667 7.73456 29.26476 29.26476 0 00-.45206 8.37625 29.26446 29.26446 0 005.15856-6.61471 45.66056 45.66056 0 003.44395-7.25648 46.50816 46.50816 0 002.15865-7.73757A29.5683 29.5683 0 00542.93366 373.79115zM552.63021 388.78213a68.15153 68.15153 0 00-6.78268 6.2497c-2.09623 2.173-4.09662 4.39466-6.05376 6.62832l-5.81481 6.67317c-.97545 1.09276-1.96116 2.16952-3.00259 3.18944a13.71029 13.71029 0 01-3.54827 2.68043 6.159 6.159 0 002.42838-.06158 11.36866 11.36866 0 002.33965-.73588 22.59463 22.59463 0 004.16706-2.3893 40.89824 40.89824 0 006.86427-6.3503 54.18841 54.18841 0 005.45459-7.45163A38.78157 38.78157 0 00552.63021 388.78213zM552.63021 403.7731a56.13576 56.13576 0 00-8.43176 5.18587 95.52358 95.52358 0 00-7.56509 6.14851 93.9077 93.9077 0 00-6.90929 6.877 55.50153 55.50153 0 00-6.03415 7.8488 55.4819 55.4819 0 008.43622-5.1813 93.83885 93.83885 0 007.56108-6.15307 95.51718 95.51718 0 006.90483-6.8816A56.12679 56.12679 0 00552.63021 403.7731zM551.64406 415.53513a55.5063 55.5063 0 00-8.51869 4.9264 94.4039 94.4039 0 00-7.67789 5.91127 92.7821 92.7821 0 00-7.04081 6.65657 54.88361 54.88361 0 00-6.19107 7.65075 54.8576 54.8576 0 008.52315-4.92167 92.7179 92.7179 0 007.67343-5.916 94.40148 94.40148 0 007.03679-6.66125A55.48049 55.48049 0 00551.64406 415.53513zM550.98693 428.10765a51.60637 51.60637 0 00-8.533 4.13948 87.39339 87.39339 0 00-7.75813 5.17734 85.93517 85.93517 0 00-7.17143 5.96294 50.99342 50.99342 0 00-6.389 7.01077 51.04129 51.04129 0 008.53653-4.13452 85.93411 85.93411 0 007.75456-5.18236 87.4508 87.4508 0 007.16742-5.96789A51.60446 51.60446 0 00550.98693 428.10765zM551.64406 437.22887a57.41512 57.41512 0 00-8.928 4.53308 97.79947 97.79947 0 00-8.14466 5.56476 96.07794 96.07794 0 00-7.55216 6.34561 56.74089 56.74089 0 00-6.76084 7.387 56.74593 56.74593 0 008.93153-4.52812 96.08507 96.08507 0 008.14109-5.56972 97.78442 97.78442 0 007.54815-6.35052A57.40991 57.40991 0 00551.64406 437.22887zM553.94493 445.77487a74.84652 74.84652 0 00-9.33231 5.17941c-2.96291 1.89673-5.82952 3.90186-8.62436 5.99464-2.80286 2.08058-5.52815 4.24971-8.20529 6.49106-2.70478 2.22213-5.25976 4.53654-8.05816 6.8286a22.56406 22.56406 0 005.22543-1.52492 51.09919 51.09919 0 004.85229-2.336 79.64028 79.64028 0 008.91726-5.80278 91.94511 91.94511 0 008.101-6.83617A58.23783 58.23783 0 00553.94493 445.77487zM556.73888 454.64961a76.97434 76.97434 0 00-10.1339 4.81579c-3.2362 1.80283-6.377 3.73858-9.44555 5.77619q-4.60353 3.0555-8.985 6.42574-2.19008 1.68989-4.33826 3.4405a38.65932 38.65932 0 01-4.40379 3.37205 8.5064 8.5064 0 002.847-.48895c.91749-.27172 1.80824-.6023 2.68917-.94613 1.757-.69749 3.45465-1.49528 5.11978-2.34066a97.16375 97.16375 0 009.59892-5.66268 109.72606 109.72606 0 008.93464-6.62146A67.91208 67.91208 0 00556.73888 454.64961zM525.63814 421.47978a45.42337 45.42337 0 00-1.30981-8.78875 76.3247 76.3247 0 00-2.526-8.34382 75.12473 75.12473 0 00-3.44707-8.00712 44.93322 44.93322 0 00-4.67485-7.558A44.939 44.939 0 00514.984 397.573a75.12637 75.12637 0 002.53224 8.3417 76.43119 76.43119 0 003.45287 8.005A45.4236 45.4236 0 00525.63814 421.47978zM523.68992 431.74213a46.41548 46.41548 0 00-2.52244-8.62441 78.16038 78.16038 0 00-3.6682-8.02055 76.85922 76.85922 0 00-4.53575-7.56359 45.92029 45.92029 0 00-5.69266-6.954 45.92051 45.92051 0 002.51665 8.6273 76.952 76.952 0 003.674 8.01766 78.25471 78.25471 0 004.5411 7.56069A46.47405 46.47405 0 00523.68992 431.74213zM522.2156 441.66621a50.84216 50.84216 0 00-3.69227-8.65829 86.15746 86.15746 0 00-4.76535-7.93306 84.64689 84.64689 0 00-5.57808-7.38409 50.27191 50.27191 0 00-6.66142-6.65194 50.26715 50.26715 0 003.68736 8.6618 84.54071 84.54071 0 004.7707 7.92955 86.06345 86.06345 0 005.583 7.38069A50.84293 50.84293 0 00522.2156 441.66621zM521.13538 452.61512a65.55883 65.55883 0 00-5.28607-9.29269q-2.94708-4.39814-6.28916-8.47284-3.33093-4.08382-7.04794-7.85236a64.54129 64.54129 0 00-8.0604-7.02476 64.53544 64.53544 0 005.28117 9.29659q2.94708 4.39789 6.29361 8.46894 3.339 4.0779 7.05285 7.84846A65.47829 65.47829 0 00521.13538 452.61512zM520.25845 463.96867a66.20507 66.20507 0 00-6.25973-8.73492q-3.4065-4.08927-7.17277-7.81564-3.75558-3.73677-7.8629-7.12a65.20625 65.20625 0 00-8.78441-6.19186 65.20821 65.20821 0 006.25528 8.73927q3.4065 4.08885 7.17678 7.81129 3.76293 3.73 7.86736 7.11554A66.18176 66.18176 0 00520.25845 463.96867zM519.72481 471.2486a57.69951 57.69951 0 00-6.801-7.38431 98.30175 98.30175 0 00-7.582-6.351 96.56833 96.56833 0 00-8.17319-5.56905 57.03694 57.03694 0 00-8.96229-4.52589 57.05227 57.05227 0 006.7974 7.38921 96.64019 96.64019 0 007.58559 6.34612 98.37492 98.37492 0 008.1772 5.56409A57.70988 57.70988 0 00519.72481 471.2486zM519.43235 477.32945a61.07829 61.07829 0 00-7.94537-6.60625q-4.16751-2.96262-8.58869-5.48178-4.41427-2.53155-9.07553-4.63088a60.362 60.362 0 00-9.72508-3.49577 60.37169 60.37169 0 007.9427 6.61154q4.16751 2.96229 8.59137 5.47643 4.41894 2.52345 9.07864 4.62559A61.08788 61.08788 0 00519.43235 477.32945zM519.65927 481.27372a65.9641 65.9641 0 00-9.29576-5.35428c-3.18938-1.53975-6.44118-2.91164-9.746-4.13976q-4.95662-1.84384-10.08664-3.22059a65.0026 65.0026 0 00-10.54182-1.99437 65.00322 65.00322 0 009.29353 5.36007q4.78474 2.30913 9.74826 4.134c3.30664 1.22332 6.66677 2.303 10.08887 3.21479A65.95554 65.95554 0 00519.65927 481.27372z"/><path fill="#5e7c24" d="M518.06185,480.95953c-.89941-1.499-22.083-36.80079-25.50976-45.93946l.85546-.32031c3.39649,9.05957,25.2168,45.42285,25.4375,45.78906Z"/><path fill="#5e7c24" d="M500.32893 415.776a39.22478 39.22478 0 00-2.10917 7.0694 66.0903 66.0903 0 00-1.078 7.16753 64.77427 64.77427 0 00-.29692 7.24176 38.69368 38.69368 0 00.74452 7.34079 38.72912 38.72912 0 002.11407-7.069 64.87792 64.87792 0 001.07308-7.168 66.08876 66.08876 0 00.292-7.24221A39.18861 39.18861 0 00500.32893 415.776zM508.38219 426.78716a37.414 37.414 0 00-2.73688 6.66543 62.83643 62.83643 0 00-1.71952 6.86081 61.87376 61.87376 0 00-.94914 7.00877 37.00358 37.00358 0 00.07846 7.206 36.97 36.97 0 002.74178-6.66448 61.87356 61.87356 0 001.71462-6.86182 62.93556 62.93556 0 00.94424-7.00965A37.44768 37.44768 0 00508.38219 426.78716zM512.81942 439.60617a31.74548 31.74548 0 00-2.32984 6.19548 52.73742 52.73742 0 00-1.30358 6.34193 51.85492 51.85492 0 00-.5274 6.45272 31.34443 31.34443 0 00.50823 6.60056 31.345 31.345 0 002.33475-6.19481 51.76636 51.76636 0 001.29867-6.3426 52.73658 52.73658 0 00.5225-6.45344A31.71449 31.71449 0 00512.81942 439.60617zM518.40731 452.40149a24.30262 24.30262 0 00-2.36239 5.27241 39.60281 39.60281 0 00-1.341 5.44874 38.8702 38.8702 0 00-.56842 5.58215 24.02106 24.02106 0 00.46231 5.76014 24.00274 24.00274 0 002.3673-5.27158 38.9353 38.9353 0 001.33656-5.44958 39.66762 39.66762 0 00.56352-5.583A24.30226 24.30226 0 00518.40731 452.40149zM523.33762 460.399a21.8797 21.8797 0 00-2.49391 4.62938 37.72728 37.72728 0 00-1.56795 4.80236 43.10871 43.10871 0 00-.94691 4.92484c-.10254.83591-.19661 1.66714-.259 2.51441a18.71258 18.71258 0 01-.27552 2.57461 5.05513 5.05513 0 00.60631-.38274l.49219-.49319a9.09966 9.09966 0 00.86087-1.07676 17.24714 17.24714 0 001.32364-2.30365 25.65209 25.65209 0 001.7369-4.85753 28.75207 28.75207 0 00.81764-5.05781A19.041 19.041 0 00523.33762 460.399zM495.5404 440.65769a31.4531 31.4531 0 00-5.5549-4.8169 51.476 51.476 0 00-6.13981-3.66123 50.57222 50.57222 0 00-6.58295-2.78653 31.09314 31.09314 0 00-7.17322-1.61983 31.085 31.085 0 005.55178 4.82242 50.57692 50.57692 0 006.14293 3.65571 51.45479 51.45479 0 006.58562 2.781A31.45075 31.45075 0 00495.5404 440.65769zM500.99677 450.8492a38.74618 38.74618 0 00-6.85134-4.4851 64.51059 64.51059 0 00-7.307-3.27247 63.3563 63.3563 0 00-7.65158-2.35481 38.30424 38.30424 0 00-8.11122-1.13065 38.31273 38.31273 0 006.84866 4.49089 63.36644 63.36644 0 007.30919 3.26668 64.49734 64.49734 0 007.65381 2.349A38.74619 38.74619 0 00500.99677 450.8492zM507.41967 462.17745a33.04252 33.04252 0 00-6.17592-4.33024 54.30053 54.30053 0 00-6.64715-3.12351 53.33815 53.33815 0 00-7.00336-2.21026 32.65994 32.65994 0 00-7.4786-.992 32.67111 32.67111 0 006.17369 4.336 53.345 53.345 0 006.64938 3.11777 54.30713 54.30713 0 007.00559 2.20452A33.04083 33.04083 0 00507.41967 462.17745zM512.49576 470.89682a24.77075 24.77075 0 00-5.42427-3.57285 39.56223 39.56223 0 00-5.81124-2.33659 38.85108 38.85108 0 00-6.10459-1.40109 24.508 24.508 0 00-6.49513-.15308 24.506 24.506 0 005.42249 3.57869 38.84752 38.84752 0 005.81347 2.33074 39.53966 39.53966 0 006.10593 1.39513A24.78317 24.78317 0 00512.49576 470.89682z"/><path fill="#5e7c24" d="M516.50277 478.7206a32.57989 32.57989 0 00-5.96237-4.5303 53.46986 53.46986 0 00-6.47685-3.34152 52.54041 52.54041 0 00-6.86649-2.442 32.21474 32.21474 0 00-7.38587-1.24183 32.20181 32.20181 0 005.95969 4.536 52.51878 52.51878 0 006.47953 3.33595 53.45929 53.45929 0 006.86872 2.43617A32.57931 32.57931 0 00516.50277 478.7206zM493.76738 436.31926a22.93187 22.93187 0 00-.17788-7.3224 34.50392 34.50392 0 00-1.86575-6.66142 33.93683 33.93683 0 00-3.14436-6.16076 22.7026 22.7026 0 00-4.84917-5.49349 22.68942 22.68942 0 00.16941 7.32552 33.9671 33.9671 0 001.87378 6.6583 34.50588 34.50588 0 003.15283 6.15759A22.93517 22.93517 0 00493.76738 436.31926z"/><rect width="475.049" height="1.82" x="112.476" y="481.776" fill="#935b50"/><path fill="#f4586f" d="M301.01849,80.07457H327.2737l.04526,8.80455,10.3663-8.80455h70.21a3.39507,3.39507,0,0,0,3.39507-3.39507V69.79883a3.39506,3.39506,0,0,0-3.39507-3.39507H301.01849a3.39506,3.39506,0,0,0-3.39507,3.39507V76.6795A3.39507,3.39507,0,0,0,301.01849,80.07457Z"/><rect width="39.519" height="1.131" x="305.093" y="72.04" fill="#efedef"/><path fill="#8e9ed6" d="M407.89528,125.07056H381.64007l-.04526,8.80455-10.3663-8.80455h-70.21a3.39506,3.39506,0,0,1-3.39507-3.39507V103.47792a3.39506,3.39506,0,0,1,3.39507-3.39507H407.89528a3.39506,3.39506,0,0,1,3.39507,3.39507v18.19757A3.39506,3.39506,0,0,1,407.89528,125.07056Z"/><rect width="94.212" height="1.131" x="306.179" y="108.3" fill="#efedef"/><rect width="39.519" height="1.131" x="306.179" y="116.414" fill="#efedef"/><path fill="#f4586f" d="M301.01849,183.57893H327.2737l.04526,8.80455,10.3663-8.80455h70.21a3.39507,3.39507,0,0,0,3.39507-3.39507V145.01094a3.39506,3.39506,0,0,0-3.39507-3.39507H301.01849a3.39506,3.39506,0,0,0-3.39507,3.39507v35.17292A3.39507,3.39507,0,0,0,301.01849,183.57893Z"/><rect width="94.213" height="1.131" x="302.648" y="150.919" fill="#efedef"/><rect width="94.213" height="1.131" x="302.648" y="166.434" fill="#efedef"/><rect width="94.213" height="1.131" x="302.648" y="158.677" fill="#efedef"/><rect width="39.519" height="1.131" x="302.648" y="173.836" fill="#efedef"/><circle cx="470.453" cy="217.027" r="83.572" fill="#a2aee6"/><g clip-path="url(#a)"><circle cx="475.039" cy="205.335" r="9" fill="#160b07"/><path fill="#ffba55" d="M496.61922,239.84367s-8.75081,40.8313,14.41048,94.19491c9.4959,21.87854,17.32051,28.56365,17.32051,28.56365s-8.66323-6.38124-16.33442,2.12708-19.82594,6.891-19.82594,6.891L479.15416,239.84367Z"/><path fill="#f9977a" d="M521.5183,291.58215l-30.8257-41.09371,10.26984,2.98839s-.66073-16.69357,2.76888-11.73293,24.01055,45.50324,24.01055,45.50324Z"/><path fill="#f9977a" d="M520.92981,282.87687s-1.48734,3.47736,1.20357,11.373,5.65016,13.82255,5.07382,7.97047l-.513-4.4522s4.61311,4.86821,7.1073,8.00906a4.9665,4.9665,0,0,0,5.68233,1.62324c1.85141-.74125,2.49875-2.20349.33329-6.3682-3.23875-6.22889-5.11862-8.92574-6.36841-10.22968l-.01327-.014a21.69138,21.69138,0,0,0-5.90783-4.53262Z"/><path fill="#dd765e" d="M524.14478 294.60633a8.54979 8.54979 0 011.43609 1.45312 10.00138 10.00138 0 011.11328 1.70874 4.4466 4.4466 0 01-.82129-.63623 7.051 7.051 0 01-.69165-.75439A6.68643 6.68643 0 01524.14478 294.60633zM531.45532 299.35047a21.18581 21.18581 0 011.69953 1.84546c.54022.63855 1.03881 1.3103 1.51709 1.99707a21.23566 21.23566 0 011.31036 2.14429 11.51738 11.51738 0 01.9679 2.32128c-.83069-1.45251-1.7569-2.81054-2.699-4.1759C533.31921 302.11255 532.35431 300.7649 531.45532 299.35047zM533.68237 298.27442a20.39642 20.39642 0 011.95154 1.93555 23.14081 23.14081 0 011.71649 2.15234 15.49467 15.49467 0 011.40387 2.38061 6.48609 6.48609 0 01.72956 2.6576 9.39651 9.39651 0 00-1.07831-2.47608c-.45862-.77417-.94422-1.53466-1.47315-2.26855C535.89771 301.17115 534.77679 299.74488 533.68237 298.27442zM535.99347 297.77088a14.87 14.87 0 011.65881 1.59265A19.69215 19.69215 0 01539.1 301.152a13.66238 13.66238 0 012.07537 4.09741c-.40069-.657-.78723-1.30517-1.20422-1.93627-.42712-.62415-.84241-1.25318-1.287-1.86451z"/><path fill="#160b07" d="M472.56559,206.09209c-3.65136,3.83542-18.95368.6872-13.30669-2.26754-1.57107-.24542-2.84532-.37772-4.03416-.6872-7.89749-2.05581-16.13979-13.02362-13.62149-21.571,2.19481-7.4495,11.76838-10.36186,14.09754-11.07056a18.141,18.141,0,0,1,17.43594,3.05913,20.67874,20.67874,0,0,1,6.39658,9.03259C480.89792,186.06383,480.89019,197.34788,472.56559,206.09209Z"/><path fill="#e6952a" d="M522.4577,355.28638a14.37982,14.37982,0,0,0-7.11285.43836,10.92046,10.92046,0,0,0-3.24213,1.57275,14.74694,14.74694,0,0,0-2.58667,2.59241,17.28257,17.28257,0,0,1-5.99746,4.44214,19.41417,19.41417,0,0,1-7.25977,1.61938l-.01123-.08472a36.28242,36.28242,0,0,0,6.893-2.36279,23.647,23.647,0,0,0,6.04172-3.941c.43476-.41748.90711-.828,1.34033-1.27283.46134-.41442.91922-.83361,1.41153-1.212a13.29169,13.29169,0,0,1,3.16568-2.02014,9.63732,9.63732,0,0,1,7.38214.1466Z"/><path fill="#f9977a" d="M451.4551,209.51253l-3.99915.78324,4.53741,14.29795,18.78086-.85642,8.37994-12.90452s-13.89131-1.46963-15.84911-7.91352Z"/><path fill="#4f66d0" d="M414.30367,208.97773l-10.73787.48965a1.24309,1.24309,0,0,1-1.29142-1.09837l-.17088-1.471L399.318,182.91921a1.24309,1.24309,0,0,1,1.17817-1.38524l10.62867-.48468a1.24311,1.24311,0,0,1,1.2908,1.09312l2.75949,22.90457.306,2.54025A1.2431,1.2431,0,0,1,414.30367,208.97773Z"/><path fill="#f9977a" d="M398.69432,210.87166a50.37936,50.37936,0,0,1-3.3544-16.86008s1.19462-6.40712,10.99553-4.77884a3.07479,3.07479,0,0,1,2.50691,2.36048c.372,1.67321.51237,4.05073-1.03551,5.65217l-5.53423,5.47184.447,3.84785a.84081.84081,0,0,0,1.00453.72973c1.16085-.24163,3.10953-.50577,3.71685.27151a1.23114,1.23114,0,0,1-.59129,2.04218Z"/><path fill="#dd765e" d="M398.3493 193.29981a4.46693 4.46693 0 012.09574-1.76245 11.623 11.623 0 012.62954-.86377 17.782 17.782 0 012.73157-.32556c.4581-.00513.91443-.02881 1.371-.01831.45734.03.913.04162 1.36771.08825-1.81106.2472-3.60565.41883-5.36029.7865a18.56141 18.56141 0 00-2.57483.71424A5.60622 5.60622 0 00398.3493 193.29981zM398.48773 196.33533a7.42912 7.42912 0 012.12171-1.98779 10.80194 10.80194 0 012.65988-1.23865 12.24726 12.24726 0 012.88745-.48584c.486-.03711.97427.00318 1.45795.00379.48361.04943.96511.10693 1.44079.18469-.96734.05737-1.91989.08972-2.86053.22717a18.89616 18.89616 0 00-2.76761.58887 15.40755 15.40755 0 00-2.60568 1.07715A11.27667 11.27667 0 00398.48773 196.33533zM400.41287 198.52894a14.33581 14.33581 0 011.83655-1.38794 16.71052 16.71052 0 012.01443-1.12366 10.95659 10.95659 0 012.18741-.77612 4.34337 4.34337 0 012.312-.03284 6.19505 6.19505 0 00-2.197.434c-.70028.259-1.39608.5365-2.07333.86645C403.1254 197.14026 401.794 197.85621 400.41287 198.52894z"/><path fill="#f9977a" d="M414.87749 238.9004l-8.02778-29.29191-8.1554 1.26316c1.87972 41.22125 8.58111 44.92882 8.58111 44.92882 4.75606 5.31938 31.54174-15.55825 31.54174-15.55825l1.88383-25.28513C439.41762 213.4947 414.87749 238.9004 414.87749 238.9004zM482.018 235.95833s9.53025 17.78146 10.72639 16.24685l20.99614 7.88635s-25.605-50.483-30.23555-47.16507z"/><path fill="#f9977a" d="M490.11019,246.10032,502.309,236.233c-12.4475-17.83412-14.98612-21.67374-14.9878-21.67454v0s-7.846-4.87343-14.02274-4.69316a14.68067,14.68067,0,0,1-13.30895,10.54355c-10.914.80191-9.20485-10.63225-9.20485-10.63225l1.12075-.14492a5.365,5.365,0,0,0,.98749-.22646c-5.64774.60215-11.20169,2.02594-14.77409,5.00473h0c-3.66675,1.30793-3.45118,31.84711-.42481,29.14568h0l-.0006-.00409A55.51445,55.51445,0,0,0,442.72,258.611l3.13378,29.888,39.21633-1.83593s-5.66114-30.03378.82924-45.9273Z"/><path fill="#f73943" d="M492.78476,250.10839l10.76048-8.03776c1.30288-.97321,1.22384-2.62181.6067-4.1264-4.443-10.832-8.06694-17.97543-11.72071-21.16956a24.878,24.878,0,0,0-8.54566-4.87774c-3.10694-1.03086-7.25147-2.12906-10.58714-2.03171a14.68067,14.68067,0,0,1-13.30895,10.54355c-10.914.80191-8.53438-10.89624-8.53438-10.89624s-7.434,1.021-12.54355,3.8902c-2.87,1.61163-15.69565,14.37354-19.59007,18.27832a1.68687,1.68687,0,0,0-.06023,2.31826l10.56534,11.778a3.59033,3.59033,0,0,0,5.06348.281l2.80391-2.50286-.0006-.00409c.665,3.6578.03646,18.538,2.98453,24.31038l42.44423,2.89931s-2.30075-16.50318,1.8801-27.2056L488.75,248.952C489.76234,250.13033,490.696,251.181,492.78476,250.10839Z"/><path fill="#dd765e" d="M452.27378,204.41961s5.10684,3.731,10.96986-.9671c0,0-1.94349,8.21825-11.78854,6.06A5.85384,5.85384,0,0,0,452.27378,204.41961Z"/><path fill="#f9977a" d="M447.06652,186.23375c1.91773-9.423,8.69263-15.99944,15.13216-14.68891,4.97019,1.01152,8.2849,6.42718,8.65843,13.17794a1.83679,1.83679,0,0,1,1.54383-.22407c1.3987.51977,1.6932,3.1997.65781,5.98573-.87415,2.35227-2.4159,4.02178-3.71689,4.17376-2.71652,7.38791-8.52593,12.14223-14.0879,11.01031C448.81442,204.35793,445.14878,195.65671,447.06652,186.23375Z"/><path fill="#dd765e" d="M454.82169,185.47242a5.35281,5.35281,0,0,1,.01855,3.40722,12.37694,12.37694,0,0,1-1.39883,3.15308c-.31275.49341-.79728.88391-.72321,1.3363a1.946,1.946,0,0,0,.834,1.23352,4.19918,4.19918,0,0,0,3.191.427,3.91218,3.91218,0,0,1-3.389-.13855,2.168,2.168,0,0,1-1.04813-1.4823,1.32439,1.32439,0,0,1,.27112-.937l.48837-.69433a13.57877,13.57877,0,0,0,1.4451-3.0105A6.09909,6.09909,0,0,0,454.82169,185.47242Z"/><path fill="#160b07" d="M464.88107 187.81154a.45464.45464 0 00.24141-.7371c-.11386-.13422-2.83208-3.27339-6.51949-2.62535a.45473.45473 0 10.15733.89575c3.18019-.55879 5.64468 2.28981 5.6693 2.31868A.45486.45486 0 00464.88107 187.81154zM452.939 184.44959a.45488.45488 0 00.05682-.8683 8.7759 8.7759 0 00-5.49794-.08667.45479.45479 0 00.30262.85776 7.938 7.938 0 014.87335.08A.45511.45511 0 00452.939 184.44959zM463.92044 189.80042a11.05639 11.05639 0 00-1.45288-.93481 5.8213 5.8213 0 00-1.56171-.59449 3.71474 3.71474 0 00-1.63559-.03 5.46925 5.46925 0 00-1.58865.61219 3.53552 3.53552 0 011.50253-.9513 3.641 3.641 0 011.81928-.07458 5.14583 5.14583 0 011.64535.74084A5.06746 5.06746 0 01463.92044 189.80042z"/><circle cx="459.821" cy="188.968" r="1.02" fill="#160b07"/><circle cx="450.115" cy="187.755" r="1.02" fill="#160b07"/><path fill="#160b07" d="M453.51236,188.801a11.05441,11.05441,0,0,0-1.45288-.93481,5.81724,5.81724,0,0,0-1.56171-.59449,3.713,3.713,0,0,0-1.63559-.03,5.46958,5.46958,0,0,0-1.58865.61219,3.53582,3.53582,0,0,1,1.50253-.9513,3.641,3.641,0,0,1,1.81928-.07458,5.143,5.143,0,0,1,1.64535.74084A5.06646,5.06646,0,0,1,453.51236,188.801Z"/><path fill="#dd765e" d="M472.56558,187.75782a4.442,4.442,0,0,0-.72168-.9054.63.63,0,0,0-.83566-.11023,2.68892,2.68892,0,0,0-.76318.76966c-.24463.30224-.44388.64428-.70725.96142a4.56186,4.56186,0,0,1,.41245-1.1499,2.53072,2.53072,0,0,1,.83291-.97583.964.964,0,0,1,.72321-.119,1.03053,1.03053,0,0,1,.58731.3811A2.29525,2.29525,0,0,1,472.56558,187.75782Z"/><path fill="#dd765e" d="M470.89719,190.84412a3.09074,3.09074,0,0,1-.5127-2.2428,6.1562,6.1562,0,0,1,.25925-1.13476,4.74731,4.74731,0,0,1,.51257-1.03723c-.0881.77185-.26855,1.48693-.32,2.21923a6.79464,6.79464,0,0,0-.06417,1.09046A4.80661,4.80661,0,0,0,470.89719,190.84412Z"/><circle cx="471.416" cy="193.365" r="2.025" fill="#ffba55"/><path fill="#dd2f22" d="M459.69534,198.62251s-5.68045,3.55792-8.90383-.3848"/><circle cx="455.459" cy="183.128" r=".98" fill="#dd2f22"/><path fill="#160b07" d="M457.15344,173.08771c1.416.33955,2.19944,1.42535,3.76624,3.59689,3.02652,4.19471,4.81941,9.963,6.91407,10.98543a1.29231,1.29231,0,0,0,.76584.15554c.81932-.11981,1.14945-1.18094,2.06025-2.6741.6883-1.12841.98776-1.32245,1.389-1.95462a9.12205,9.12205,0,0,0,.41117-8.22937,9.66475,9.66475,0,0,0-5.31432-4.68938c-4.77213-2.04366-9.38437-.25851-10.55409.19421-7.0275,2.72-10.02781,9.67728-9.77944,9.882C447.10411,180.595,452.43381,171.956,457.15344,173.08771Z"/><path fill="#ed9c8c" d="M498.37446,429.64115s4.50259,16.62364,3.28793,17.233-33.841,4.81352-28.33368,1.55735l9.18628-4.8002a9.43144,9.43144,0,0,0,5.04872-8.88715l-.30141-5.3745Z"/><path fill="#f73943" d="M474.494,447.82261l9.02506-1.04949a22.52343,22.52343,0,0,0-2.433-2.264.99728.99728,0,0,1,.17717-1.65883,1.66746,1.66746,0,0,1,1.67059.0805,16.97075,16.97075,0,0,1,3.42735,3.5118l2.71718-.31595c.59751-1.31025,2.987-5.18,11.29431-8.4507a.46206.46206,0,0,1,.61815.32817l.29055,1.29018a.46051.46051,0,0,1-.27554.52745,27.99683,27.99683,0,0,0-8.96494,5.96039l9.72174-1.13048c1.01709,1.62534.35835,4.29828.35835,4.29828-15.64524,3.009-30.63663,2.624-33.01852,1.41172S474.494,447.82261,474.494,447.82261Z"/><path fill="#ed9c8c" d="M454.21026,430.93511s3.236,16.91588,1.97889,17.4319-34.1077,2.24759-28.37045-.584l9.52215-4.09371a9.43146,9.43146,0,0,0,5.70459-8.48108l.10478-5.38192Z"/><path fill="#f73943" d="M429.02658,447.26377l9.0785-.36585a22.5215,22.5215,0,0,0-2.25529-2.441.99728.99728,0,0,1,.30177-1.64074,1.66746,1.66746,0,0,1,1.65977.20626,16.97108,16.97108,0,0,1,3.15273,3.76028l2.73327-.11012c.69462-1.26146,3.36917-4.94,11.89948-7.57484a.46206.46206,0,0,1,.59164.37386l.19241,1.30841a.4605.4605,0,0,1-.31453.50517,27.99662,27.99662,0,0,0-9.38893,5.2673l9.77931-.39407c.89162,1.69742.03317,4.31307.03317,4.31307-15.82762,1.82053-30.74728.30595-33.031-1.0825S429.02658,447.26377,429.02658,447.26377Z"/><path fill="#ffba55" d="M483.73767,277.37809s13.62752,32.02832,11.37825,73.24886a55.55584,55.55584,0,0,0,1.75971,17.16273l11.94906,62.7459a4.22039,4.22039,0,0,1-3.39691,4.94293l-9.66567,1.743a153.316,153.316,0,0,1-50.01678.72756l-8.15448-1.22676a4.21964,4.21964,0,0,1-3.58483-3.9183c-1.14545-19.01686-6.04283-112.648,5.59158-156.32837Z"/><path fill="#e6952a" d="M483.73767 277.37806a144.50964 144.50964 0 017.2489 22.87964 185.2922 185.2922 0 013.9256 23.70739 163.62807 163.62807 0 01.61633 24.02271c-.06329 2.00818-.21527 3.99426-.22247 5.98279a56.062 56.062 0 00.30371 5.96362 55.47868 55.47868 0 00.9 5.91308c.47467 1.94153.77227 3.92688 1.11871 5.89576-.41531-1.958-.77911-3.92017-1.32242-5.84973a55.78965 55.78965 0 01-1.11124-5.91126 54.95839 54.95839 0 01-.42788-6.00806c-.03195-2.01245.08227-4.02087.10553-6.01171.02105-1.99622.13327-3.99036.10528-5.98609l-.08929-5.98633c-.19214-3.98657-.39661-7.97314-.82483-11.94238a197.71836 197.71836 0 00-3.71433-23.6449c-.83-3.90637-1.82055-7.77807-2.9104-11.62146C486.37073 284.93116 485.17221 281.11268 483.73767 277.37806zM452.31131 286.99317l-.55753 15.88269-.64566 15.87842-.70395 15.87561c-.22442 5.297-.59017 10.57593-.4168 15.85156l1.31958 31.74536.60458 15.88.51526 15.88415-.9325-15.86511-.8432-15.86914q-.80593-15.87708-1.516-31.75537c-.14838-5.32178.24527-10.62573.49466-15.90882l.82559-15.86975.88391-15.86694zM457.626 294.37037c1.464 5.074 2.83728 10.17089 4.19684 15.27136l3.9765 15.3269 3.785 15.37537c1.22669 5.134 2.44043 10.27124 3.5618 15.43176-1.4653-5.07361-2.83826-10.17065-4.1983-15.27087l-3.975-15.32727-3.7836-15.37574C459.9621 304.668 458.74869 299.53064 457.626 294.37037z"/><polygon fill="#e6952a" points="456.079 292.469 457.241 304.613 458.315 316.764 460.324 341.076 462.136 365.404 462.972 377.573 463.719 389.75 462.556 377.606 461.482 365.455 459.474 341.143 457.663 316.815 456.827 304.646 456.079 292.469"/><path fill="#e6952a" d="M450.41418,283.97559c-.55416,4.85669-1.20086,9.69946-1.8616,14.54-.65875,4.84082-1.39337,9.67029-2.08633,14.506l-2.28162,14.47669c-.79623,4.82019-1.60568,9.6383-2.50931,14.44226.55286-4.85681,1.19989-9.69947,1.86014-14.54016l2.0878-14.50586c.76352-4.82508,1.48538-9.65638,2.28311-14.47632C448.70212,293.59791,449.5119,288.77979,450.41418,283.97559Z"/><path fill="#ffba55" d="M473.29843,209.86521c-13.29744,7.89327-30.37611,29.15508-34.87694,34.92645a4.17758,4.17758,0,0,0-.83236,3.24029c.27762,1.70612.55484,3.56389.63317,4.87186.39089,6.52951-7.64266,50.45022-5.27707,74.78219,0,0,27.31594-23.53307,40.51027-45.14969,8.57953-16.20882,11.55908-70.33419,11.55908-70.33419C482.81652,207.358,473.29843,209.86521,473.29843,209.86521Z"/><path fill="#4f66d0" d="M414.33056,208.9765l-10.17715.46408a1.24037,1.24037,0,0,1-1.22975-1.16755l-.64525-5.53055,12.85874,2.083.3028,2.6869A1.26366,1.26366,0,0,1,414.33056,208.9765Z"/><path fill="#e6952a" d="M432.94522 327.686l11.34772-12.09216c3.76517-4.04431 7.545-8.074 11.22391-12.194q5.59364-6.111 10.90631-12.46411c1.77093-2.11585 3.50271-4.26587 5.12945-6.49195a31.79686 31.79686 0 004.25055-7.06579 29.85662 29.85662 0 01-3.909 7.30737c-1.56613 2.28723-3.24646 4.49084-4.9613 6.66431-3.44165 4.33923-7.09833 8.4967-10.78384 12.62219-3.738 4.079-7.5131 8.12231-11.38346 12.07336C440.89508 319.99573 436.9783 323.90088 432.94522 327.686zM443.253 263.69422c1.93042-4.45325 4.10053-8.79859 6.36786-13.09143 2.26248-4.29663 4.72958-8.48413 7.291-12.61328a124.73625 124.73625 0 018.43781-11.88965c3.084-3.73963 6.37833-7.4231 10.45352-10.10681l-2.7673 2.35351-2.532 2.59607c-1.61 1.80091-3.20249 3.61914-4.63965 5.56482a141.27663 141.27663 0 00-8.23169 11.93738c-2.61087 4.074-5.05872 8.25354-7.43863 12.472Q446.62111 257.24372 443.253 263.69422zM439.01285 312.95813a96.117 96.117 0 006.9248-8.30664c2.15219-2.89062 4.24134-5.829 6.15827-8.8789a146.15506 146.15506 0 0010.33773-18.94592 149.349 149.349 0 007.63456-20.18689 176.63819 176.63819 0 004.955-21.04444l-.82309 5.35376c-.29348 1.78186-.49279 3.58435-.92187 5.34119-.802 3.5238-1.50238 7.078-2.58011 10.53454a140.823 140.823 0 01-7.4899 20.35791l-2.34906 4.89563-2.568 4.78406c-1.7833 3.14783-3.608 6.27808-5.64841 9.26795-1.993 3.01989-4.14837 5.92981-6.37762 8.776A96.31469 96.31469 0 01439.01285 312.95813zM445.32019 283.40992c1.51321-3.59143 3.1109-7.1427 4.72141-10.68787 1.60867-3.546 3.28668-7.05908 4.9266-10.59021 1.70233-3.50146 3.3714-7.0188 5.105-10.50537 1.73425-3.48633 3.48059-6.96692 5.3129-10.40649-1.512 3.592-3.11 7.14306-4.72 10.68847-1.61075 3.54505-3.286 7.05945-4.928 10.5896-1.70435 3.50049-3.3707 7.019-5.1063 10.50476C448.898 276.48926 447.15131 279.96973 445.32019 283.40992z"/><path fill="#b02336" d="M437.694,243.55555c1.34738-2.06726,2.82336-4.03455,4.28885-6.01038,1.50513-1.94629,2.99881-3.90039,4.62674-5.75842-1.34393,2.06494-2.82211,4.03381-4.28885,6.0105C440.81433,239.74427,439.31845,241.7,437.694,243.55555Z"/><path fill="#e6952a" d="M433.64227,426.2472q9.36608.3609,18.70237.93945c3.11288.21069,6.22509.48218,9.34417.595,3.11789.14307,6.24042.15393,9.36054.1117,6.2398-.10657,12.47473-.26856,18.68142-.71973,3.09925-.25073,6.19895-.53943,9.249-1.097a30.39522,30.39522,0,0,0,4.49511-1.12756,7.11782,7.11782,0,0,0,3.77845-2.48706l.07537.04a7.13693,7.13693,0,0,1-3.6979,2.84961,27.80148,27.80148,0,0,1-4.51737,1.37878,68.10118,68.10118,0,0,1-9.31347,1.32068c-3.12152.27246-6.25141.37293-9.37818.4176-3.127.04883-6.25363.00318-9.37661-.108-3.12336-.09595-6.24329-.228-9.36585-.28357l-9.3703-.1842c-6.24237-.25489-12.47562-.7461-18.67429-1.56055Z"/><rect width="4.117" height="4.117" x="437.949" y="429.961" fill="#f73943" transform="rotate(45 440.008 432.02)"/><rect width="4.117" height="4.117" x="446.154" y="430.485" fill="#f73943" transform="rotate(45 448.212 432.544)"/><rect width="4.117" height="4.117" x="454.054" y="431.166" fill="#f73943" transform="rotate(45 456.113 433.225)"/><rect width="4.117" height="4.117" x="461.613" y="431.839" fill="#f73943" transform="rotate(40.902 463.671 433.897)"/><rect width="4.117" height="4.117" x="469.834" y="431.775" fill="#f73943" transform="rotate(40.902 471.892 433.833)"/><rect width="4.117" height="4.117" x="477.763" y="431.889" fill="#f73943" transform="rotate(40.902 479.818 433.946)"/><rect width="4.117" height="4.117" x="485.4" y="431.182" fill="#f73943" transform="rotate(37.239 487.459 433.24)"/><rect width="4.117" height="4.117" x="493.513" y="429.851" fill="#f73943" transform="rotate(32.026 495.571 431.91)"/><rect width="4.117" height="4.117" x="501.365" y="428.741" fill="#f73943" transform="rotate(32.026 503.423 430.799)"/><rect width="2.925" height="2.925" x="499.377" y="366.817" fill="#f73943" transform="rotate(28.309 500.844 368.284)"/><rect width="2.925" height="2.925" x="506.186" y="363.691" fill="#f73943" transform="rotate(15.581 507.649 365.154)"/><rect width="2.925" height="2.925" x="512.151" y="358.43" fill="#f73943" transform="rotate(24.211 513.613 359.893)"/><rect width="2.925" height="2.925" x="519.495" y="356.181" fill="#f73943" transform="rotate(35.593 520.958 357.643)"/><circle cx="406.364" cy="187.341" r="1.429" fill="#3957aa"/><path fill="#3957aa" d="M401.58429,187.75687a.51556.51556,0,0,1-.51225-.46317l-.4137-4.052a.51555.51555,0,0,1,1.02576-.10472l.4137,4.052a.51529.51529,0,0,1-.46052.56512A.471.471,0,0,1,401.58429,187.75687Z"/></g><polygon fill="#a2aee6" points="387.608 228.069 372.592 274.309 397.786 251.189 387.608 228.069"/><polygon fill="#935b50" points="145.975 483.19 163.538 396.745 183.948 396.745 152.539 483.19 145.975 483.19"/><polygon fill="#935b50" points="478.282 396.745 497.221 483.19 487.887 483.19 457.176 396.745 478.282 396.745"/><rect width="353.086" height="21.568" x="146.301" y="375.177" fill="#c38f86" rx="10.784"/><polygon fill="#f9977a" points="312.884 453.997 311.822 459.979 306.2 469.698 295.81 467.853 294.393 459.2 295.853 450.974 312.884 453.997"/><path fill="#ffba55" d="M342.14237,482.40272l.01831-.10319a4.33785,4.33785,0,0,0-1.67191-4.231l-27.75983-20.776a1.446,1.446,0,0,0-1.85285.10041l-7.36687,6.87348a1.446,1.446,0,0,1-1.93559.03358l-6.2496-5.43815a1.446,1.446,0,0,0-2.37286.83812l-2.40413,13.5449a1.446,1.446,0,0,0,1.171,1.67647l48.74788,8.65243A1.446,1.446,0,0,0,342.14237,482.40272Z"/><path fill="#6c7fd8" d="M340.13918,331.54673v5.57042s5.74431,7.61848,5.3297,20.39781-.73728,16.71138-2.29621,19.41463-9.66892,16.46563-9.66892,16.46563,2.45755,10.32184,1.72027,14.74542-20.15192,46.202-20.15192,46.202a49.90489,49.90489,0,0,1-20.88926-3.44053q1.72026-37.35483,3.44059-74.70972H273.53934l-10.076-14.2539s-8.60146,1.22881-10.32172-2.949-2.21185-8.60152-3.93212-11.059S232.00663,324.338,232.00663,324.338s-10.076-13.76238-1.2288-28.50767,33.91429.49152,42.51575,10.81324l24.32985,22.2Z"/><path fill="#065082" d="M332.02924 342.27808a37.41468 37.41468 0 00-6.73044.69214 38.10245 38.10245 0 00-6.4921 1.76819A30.43855 30.43855 0 00307.57 351.80384a26.60012 26.60012 0 00-4.16153 5.20044 32.868 32.868 0 00-1.62857 2.92224c-.43076 1.03064-.95 2.02527-1.30976 3.08789-.19186.52612-.40078 1.04712-.57955 1.57861l-.47681 1.61536c-.35513 1.06872-.5264 2.18494-.79718 3.27856-.24256 1.10047-.39453 2.21961-.597 3.33252l-.39624 3.37293c.03168-1.13172.05988-2.26758.12406-3.4021.126-1.12757.20224-2.26575.3706-3.39209.21884-1.1167.352-2.25476.6644-3.35449l.41644-1.66285c.15927-.5487.34952-1.08874.52323-1.6344a30.09831 30.09831 0 011.25076-3.20251 33.788 33.788 0 011.63507-3.03259 27.40813 27.40813 0 014.2345-5.43909 30.13491 30.13491 0 0111.70236-7.0802A35.15217 35.15217 0 01332.02924 342.27808zM255.35342 306.39771c2.8053 3.43079 5.42179 7.00977 7.95224 10.64832 2.52851 3.64086 4.90024 7.39025 7.17478 11.20141a102.51494 102.51494 0 016.00641 11.8927 42.078 42.078 0 012.08276 6.34973l.29089 1.65174c.04142.55993.13443 1.11193.13181 1.67273a7.90937 7.90937 0 01-.53784 3.277 11.812 11.812 0 00-.3761-6.47851 42.191 42.191 0 00-2.32193-6.15979 118.97372 118.97372 0 00-6.16705-11.68543c-2.18729-3.83288-4.56238-7.55883-6.94178-11.28271q-1.77927-2.79713-3.6235-5.55457zM325.73962 372.02735c.86075 1.69494 1.53888 3.47058 2.27689 5.21765l2.066 5.3c1.36456 3.53833 2.60989 7.11792 3.90384 10.68176l-.99359.16138.0245-5.96961-.09042-5.9707c-.03214-1.99023-.104-3.97888-.22992-5.96374a39.0833 39.0833 0 00-.66763-5.92713 32.48886 32.48886 0 011.18307 5.88c.22379 1.9884.39331 3.9823.52295 5.97754.13715 1.99523.17542 3.99389.22922 5.99108.03711 1.99842.07684 3.99366.05032 5.99659l-.03961 2.99487-.954-2.8335c-1.20877-3.59021-2.48325-7.15857-3.66983-10.75708l-1.79636-5.39233C326.97183 375.61048 326.39066 373.80787 325.73962 372.02735z"/><path fill="#065082" d="M307.47626 351.155l-3.099-4.02941c-1.039-1.32728-2.08292-2.64527-3.18939-3.90284a41.34449 41.34449 0 00-3.4531-3.62768 19.24453 19.24453 0 00-4.04349-2.96936 12.43379 12.43379 0 014.56241 2.35241 24.90749 24.90749 0 013.71527 3.56971 36.05573 36.05573 0 013.06324 4.11316A31.58351 31.58351 0 01307.47626 351.155zM307.47626 441.56336a36.01944 36.01944 0 01-6.42151-8.15234 33.66778 33.66778 0 01-2.24359-4.71485 20.51056 20.51056 0 01-1.18775-5.073 50.88 50.88 0 001.9307 4.76038c.75152 1.52917 1.537 3.03674 2.394 4.51.85272 1.47559 1.7605 2.9209 2.68289 4.36328C305.56857 438.689 306.50211 440.131 307.47626 441.56336zM267.12155 341.04932a11.99907 11.99907 0 011.26267 4.39441 10.03853 10.03853 0 01-.60764 4.63135 9.48461 9.48461 0 01-1.18991 2.06933 8.67863 8.67863 0 01-1.77457 1.57032 9.073 9.073 0 01-2.07245 1.05627 18.57708 18.57708 0 01-2.22534.53211c.67356-.37085 1.38278-.60828 2.0163-.99329a11.47818 11.47818 0 001.7966-1.239 9.70852 9.70852 0 001.48639-1.52552l.56137-.89709a6.40791 6.40791 0 00.444-.959 11.52465 11.52465 0 00.763-4.21057A21.22452 21.22452 0 00267.12155 341.04932z"/><path fill="#f9977a" d="M263.21087,361.81483l3.62646,4.87437,9.37714,6.17556,8.466-6.29863-2.605-8.3724q-1.81048-2.55117-3.62091-5.10235a44.915,44.915,0,0,1-15.24363,8.72345Z"/><path fill="#ffba55" d="M249.75753,400.3115l-.06256-.08409a4.33786,4.33786,0,0,1-.39829-4.53192l15.52744-31.0024a1.446,1.446,0,0,1,1.70189-.73938l9.664,2.85a1.446,1.446,0,0,0,1.746-.83617l3.15523-7.66a1.446,1.446,0,0,1,2.49706-.31238l8.21149,11.037a1.446,1.446,0,0,1-.297,2.02327l-39.722,29.553A1.446,1.446,0,0,1,249.75753,400.3115Z"/><path fill="#8b9d36" d="M326.175,255.11671s2.44292,27.197-20.41236,1.14686c0,0-21.41,5.89814-25.09633,10.5675s-6.38965,4.66935-7.37267,39.81243c0,0-8.60145,32.194,20.39773,29.9822a13.37326,13.37326,0,0,0,6.10555-7.644l40.34228,2.56506a5.51067,5.51067,0,0,0,3.5225-3.44058s-.16384,5.98006,3.76826,21.54459,4.25976,20.64348,8.8472,21.79034,23.101-5.57046,23.101-5.57046-24.49365-80.11637-25.47668-86.01451-1.22878-17.69441-13.76232-21.135S326.175,255.11671,326.175,255.11671Z"/><path fill="#f9977a" d="M334.51548,214.17351l-.68116,9.8595a56.64325,56.64325,0,0,0,.60766,11.96812c.71715,4.98658-.631,9.34851-3.58577,11.47147a8.38024,8.38024,0,0,1-4.68125,1.48964v9.91816c.54215,7.9492-2.23963,14.53442-5.94207,15.56907-4.28542,1.19731-11.90846-4.45359-14.47025-15.56907V235.68347s-8.34052-1.53664-3.51177-9.7675a35.47774,35.47774,0,0,0,4.93842-15.80306l8.999-6.80421Z"/><path fill="#1e1d22" d="M314.10352 218.41687a.60933.60933 0 01-.30274-1.13867c3.32276-1.89648 6.90625-.08984 7.05664-.01269a.6095.6095 0 01-.55762 1.084c-.03173-.01562-3.15527-1.57617-5.89453-.01269A.60373.60373 0 01314.10352 218.41687zM326.17529 218.41687a.60933.60933 0 01-.30273-1.13867c3.32275-1.89648 6.90674-.08984 7.05664-.01269a.6095.6095 0 01-.55762 1.084c-.03076-.01562-3.15527-1.57617-5.89453-.01269A.60374.60374 0 01326.17529 218.41687zM330.016 226.42822a1.83016 1.83016 0 000-3.65813 1.83016 1.83016 0 000 3.65813zM317.50521 226.31847a1.83016 1.83016 0 000-3.65812 1.83016 1.83016 0 000 3.65812z"/><path fill="#dd765e" d="M324.63855,222.82959a12.04443,12.04443,0,0,1,1.59512,2.33,14.184,14.184,0,0,1,1.0969,2.61731,7.15872,7.15872,0,0,1,.31167,2.90845,2.55985,2.55985,0,0,1-.62954,1.42553,1.71778,1.71778,0,0,1-1.38645.49964,1.82532,1.82532,0,0,0,.98517-.80982,2.38645,2.38645,0,0,0,.22681-1.173,10.51053,10.51053,0,0,0-.49814-2.55981C325.83823,226.34314,325.161,224.64661,324.63855,222.82959Z"/><path fill="#dd2f22" d="M317.631,237.3843c0,1.54555,1.5687,2.79847,3.50378,2.79847s3.50378-1.25292,3.50378-2.79847"/><path fill="#dd765e" d="M326.175,248.96226s-6.58462-.33631-9.76719-3.35072c0,0,4.06052,8.06971,9.76719,9.16714Z"/><path fill="#1e1d22" d="M339.34421,211.21042s-.10975-4.49949-8.01129-6.47488-9.438-6.36514-13.99233-5.158a14.965,14.965,0,0,0-7.4077,5.158s-14.30338-2.18834-7.37118,20.63509c0,0,5.1763,6.03264,5.725.65519s1.7559-14.59591,4.719-17.01027,7.57232,0,9.32822,1.31692,12.73027,9.10873,13.82771,8.45027S341.64883,216.80735,339.34421,211.21042Z"/><path fill="#f9977a" d="M372.0829,368.31377v2.10334l13.3982,1.15574s8.47857,4.49664,7.86418,5.23391-1.47453,1.72029-4.66936-.61439a13.409,13.409,0,0,0-2.58043-1.1059s4.4236,3.56346,3.93209,4.055-1.35166,2.2118-5.40663-1.72029c0,0-5.16087-2.58044-9.70735-.73727,0,0,3.56346,1.22878,3.93209,2.70332s3.56346,3.68633,1.966,4.30072-2.08893-.61439-4.91512-2.82619-5.40662-1.47453-8.60145-3.80921a10.97788,10.97788,0,0,1-3.89229-6.33561Z"/><path fill="#dd765e" d="M379.37817,373.61194a5.41536,5.41536,0,0,1,1.7732-.41394,7.37905,7.37905,0,0,1,1.81421.07556,6.05043,6.05043,0,0,1,1.75091.57727,3.42141,3.42141,0,0,1,1.379,1.2356,18.49777,18.49777,0,0,0-3.30328-.80212C381.68607,374.08191,380.566,373.9441,379.37817,373.61194Z"/><path fill="#5e7c24" d="M340.87643 275.4325l.37119 6.6665c.11682 2.22071.25427 4.43958.42538 6.65491.33149 4.429.6792 8.861 1.37027 13.23047.6651 4.36914 1.62622 8.73608 2.20893 13.16455a46.8939 46.8939 0 01.46832 6.70081 15.50891 15.50891 0 01-.44955 3.3446 5.91932 5.91932 0 01-1.60932 2.91187c1.47574-1.73584 1.59021-4.09583 1.55249-6.25672a47.19716 47.19716 0 00-.74771-6.5824c-.74078-4.375-1.68771-8.70959-2.44311-13.127a132.71609 132.71609 0 01-1.14005-13.34265C340.72009 284.34241 340.68958 279.88465 340.87643 275.4325zM286.974 273.1388c-1.16827-1.03088-2.20184-2.06226-3.31125-3.012-.54691-.48145-1.122-.91639-1.70569-1.35413-.596-.42261-1.21725-.79639-1.89471-1.202a5.45313 5.45313 0 012.29269.5011 8.65357 8.65357 0 011.98117 1.27271 10.22549 10.22549 0 011.56732 1.729A7.362 7.362 0 01286.974 273.1388zM345.94949 261.42322a28.7749 28.7749 0 01-2.89611 3.16016l-1.51026 1.45569c-.49728.493-.99786.9707-1.48587 1.53161a4.98282 4.98282 0 01.86353-2.04394A10.288 10.288 0 01342.333 263.844a13.02911 13.02911 0 011.68634-1.379A8.96586 8.96586 0 01345.94949 261.42322zM335.46979 310.82129a11.47707 11.47707 0 01-.15857 3.428 12.68632 12.68632 0 01-.48087 1.66809l-.29956.82032-.38635.78418a13.82518 13.82518 0 01-4.65759 5.14868 19.90573 19.90573 0 01-6.37406 2.69983c-1.133.20056-2.26294.405-3.393.56079-1.14637.042-2.28382.11816-3.41892.12707 1.11823-.24255 2.23413-.418 3.3411-.62744 1.09686-.25439 2.18417-.54138 3.26315-.82739.523-.1991 1.04569-.39234 1.57187-.57263a9.34825 9.34825 0 001.53989-.62586l1.49789-.71167c.47455-.27832.92929-.589 1.39587-.87927a15.05365 15.05365 0 004.54181-4.67517A14.22275 14.22275 0 00335.46979 310.82129z"/><polygon fill="#065082" points="321.842 315.805 331.176 290.032 346.906 289.712 337.888 315.995 321.842 315.805"/><path fill="#d6d6d6" d="M339.40189,295.62545a1.0246,1.0246,0,0,0,0-2.048,1.0246,1.0246,0,0,0,0,2.048Z"/><polygon fill="#6c7fd8" points="331.292 289.712 329.805 289.076 321.052 315.847 323.558 315.925 331.292 289.712"/><path fill="#f9977a" d="M308.43669,302.95711h4.17781s.34495-2.53492,6.68649-3.79281a20.25425,20.25425,0,0,0,6.39039-2.36264,3.18025,3.18025,0,0,1,1.05408-.48c.6144,0,2.34437,1.84327-.85531,3.31783l-3.37459,1.24735,5.97332.80293a3.996,3.996,0,0,0,1.18-.01721l7.39585-1.21477a1.12673,1.12673,0,0,1,1.3174.73243c.16449.63982-.39887,1.52451-1.48466,1.82134a1.46022,1.46022,0,1,1,.60076,2.83211l-9.74077,2.017c2.70338-.24312,5.40119-.55974,8.11016-.7296,1.36941-.08586,1.48783.65419,1.50186.90109.089,1.56788-10.84155,3.6419-10.86976,3.64922,0,0-.27877.72454.065,1.08493a1.16153,1.16153,0,0,0,1.04086.14375,33.502,33.502,0,0,0,5.30121-1.874c.13341-.03985,1.082-.31348,1.32123.04615.14823.22268-.03934.59114-.10989.722-.86017,1.59739-4.17788,4.055-6.26679,4.17782-2.08891.12307-20.96114-.67562-20.96114-.67562a24.22923,24.22923,0,0,0,1.54645-12.34935Z"/><path fill="#5e7c24" d="M299.83521,328.84339a69.00809,69.00809,0,0,0,3.45489-6.04309,59.93273,59.93273,0,0,0,2.80707-6.34192,35.65,35.65,0,0,0,1.81067-6.64221,20.063,20.063,0,0,0,.0625-6.76844l-.00846-.04663.00525-.11621a1.39748,1.39748,0,0,0-.29129-.74157,3.00507,3.00507,0,0,0-.7865-.61658,4.94006,4.94006,0,0,0-1.02029-.3938,6.83959,6.83959,0,0,0-1.10846-.23987,22.05588,22.05588,0,0,0-4.67184-.10083c-.78754.028-1.57444.12988-2.36164.21838-.78839.07435-1.57263.20325-2.35711.33057-1.57328.221-3.12888.5763-4.69266.87427l-.51349.0979-.04093-.50708c-.32559-4.03467-.56457-8.07642-.833-12.1156-.27451-4.03882-.48239-8.083-.67758-12.1283.46017,4.02368.90762,8.04846,1.28848,12.07862.38693,4.02966.80328,8.057,1.13306,12.0913l-.5542-.40918c1.57638-.318,3.14-.69226,4.73513-.934.79383-.13733,1.58741-.27625,2.39222-.36109.802-.09875,1.60183-.21069,2.41452-.24878a20.32806,20.32806,0,0,1,4.9024.12683,7.7696,7.7696,0,0,1,1.23062.28113,5.891,5.891,0,0,1,1.20636.48584,2.5912,2.5912,0,0,1,1.54526,2.35608l-.00317-.16235a20.94574,20.94574,0,0,1-.13129,7.1007,35.077,35.077,0,0,1-2.05228,6.7323,49.39059,49.39059,0,0,1-3.07525,6.29151A56.13517,56.13517,0,0,1,299.83521,328.84339Z"/><path fill="#dd765e" d="M327.84729,304.97669a26.3358,26.3358,0,0,1,4.50119-1.191c.7558-.13135,1.50534-.27295,2.26251-.38367.75864-.12268,1.50485-.22424,2.28653-.39038a6.07827,6.07827,0,0,1-2.08322,1.16492,14.73475,14.73475,0,0,1-2.27579.61682A14.90386,14.90386,0,0,1,327.84729,304.97669Z"/><polygon fill="#6c7fd8" points="329.805 289.076 345.914 288.8 346.906 289.712 331.292 290.03 329.805 289.076"/><path fill="#065082" d="M331.292,290.02967a1.57419,1.57419,0,0,1-.88275-.25928,1.63875,1.63875,0,0,1-.33966-.28833.26546.26546,0,1,1,.21442-.33447,1.63017,1.63017,0,0,1,.4038.18823A1.57264,1.57264,0,0,1,331.292,290.02967Z"/></svg>