<svg xmlns="http://www.w3.org/2000/svg" xmlns:xlink="http://www.w3.org/1999/xlink" data-name="Layer 1" viewBox="0 0 1400 1000"><defs><linearGradient id="a" x1="527.2" x2="635.24" y1="788.04" y2="721.82" gradientUnits="userSpaceOnUse"><stop offset="0" stop-color="#fff" stop-opacity="0"/><stop offset=".07" stop-color="#fcdedd" stop-opacity=".2"/><stop offset=".16" stop-color="#fabebd" stop-opacity=".38"/><stop offset=".24" stop-color="#f8a2a1" stop-opacity=".55"/><stop offset=".33" stop-color="#f68a89" stop-opacity=".69"/><stop offset=".43" stop-color="#f57776" stop-opacity=".8"/><stop offset=".54" stop-color="#f36867" stop-opacity=".89"/><stop offset=".65" stop-color="#f35e5c" stop-opacity=".95"/><stop offset=".79" stop-color="#f25856" stop-opacity=".99"/><stop offset="1" stop-color="#f25654"/></linearGradient><linearGradient id="d" x1="345.05" x2="449.99" y1="763.59" y2="692.54" xlink:href="#a"/><linearGradient id="e" x1="708.52" x2="812.87" y1="827.39" y2="755.5" xlink:href="#a"/><linearGradient id="f" x1="881.99" x2="989.43" y1="864.79" y2="797.6" xlink:href="#a"/><linearGradient id="g" x1="218.57" x2="428.69" y1="358.07" y2="358.07" gradientUnits="userSpaceOnUse"><stop offset="0" stop-color="#5884c3"/><stop offset=".15" stop-color="#5b86c4" stop-opacity=".98"/><stop offset=".29" stop-color="#658ec8" stop-opacity=".92"/><stop offset=".43" stop-color="#769ace" stop-opacity=".82"/><stop offset=".57" stop-color="#8eacd6" stop-opacity=".68"/><stop offset=".72" stop-color="#acc2e1" stop-opacity=".5"/><stop offset=".86" stop-color="#d1ddef" stop-opacity=".27"/><stop offset=".99" stop-color="#fcfdfe" stop-opacity=".02"/><stop offset="1" stop-color="#fff" stop-opacity="0"/></linearGradient><linearGradient id="b" x1="232.74" x2="356.49" y1="400" y2="400" gradientUnits="userSpaceOnUse"><stop offset="0" stop-color="#4058a6"/><stop offset=".25" stop-color="#415aa8" stop-opacity=".97"/><stop offset=".49" stop-color="#4562ad" stop-opacity=".89"/><stop offset=".72" stop-color="#4c6fb5" stop-opacity=".74"/><stop offset=".96" stop-color="#5680c0" stop-opacity=".54"/><stop offset="1" stop-color="#5884c3" stop-opacity=".5"/></linearGradient><linearGradient id="h" x1="241.7" x2="405.52" y1="347.38" y2="347.38" xlink:href="#b"/><linearGradient id="i" x1="242.2" x2="408.74" y1="347.39" y2="347.39" xlink:href="#b"/><linearGradient id="c" x1="370.7" x2="408.13" y1="391.44" y2="391.44" gradientUnits="userSpaceOnUse"><stop offset="0" stop-color="#4058a6"/><stop offset="1" stop-color="#5884c3" stop-opacity=".8"/></linearGradient><linearGradient id="j" x1="370.7" x2="393.16" y1="396.99" y2="396.99" xlink:href="#c"/><linearGradient id="k" x1="370.7" x2="408.13" y1="402.67" y2="402.67" xlink:href="#c"/><linearGradient id="l" x1="370.7" x2="393.16" y1="408.56" y2="408.56" xlink:href="#c"/><linearGradient id="m" x1="211.57" x2="435.69" y1="358.08" y2="358.08" xlink:href="#b"/><linearGradient id="n" x1="328.71" x2="521.82" y1="276.93" y2="276.93" gradientUnits="userSpaceOnUse"><stop offset="0" stop-color="#f26f34"/><stop offset=".09" stop-color="#f2743b" stop-opacity=".97"/><stop offset=".23" stop-color="#f4814d" stop-opacity=".88"/><stop offset=".4" stop-color="#f6966b" stop-opacity=".73"/><stop offset=".59" stop-color="#f8b394" stop-opacity=".53"/><stop offset=".8" stop-color="#fcd8c9" stop-opacity=".27"/><stop offset="1" stop-color="#fff" stop-opacity="0"/></linearGradient><linearGradient id="o" x1="381.13" x2="466.96" y1="273.91" y2="273.91" xlink:href="#c"/><linearGradient id="p" x1="422.04" x2="468.96" y1="252.62" y2="252.62" xlink:href="#c"/><linearGradient id="q" x1="333.77" x2="344.99" y1="292.07" y2="292.07" xlink:href="#c"/><linearGradient id="r" x1="333.77" x2="344.99" y1="308.9" y2="308.9" xlink:href="#c"/><linearGradient id="s" x1="333.77" x2="344.99" y1="325.74" y2="325.74" xlink:href="#c"/><linearGradient id="t" x1="350.61" x2="376.03" y1="292.07" y2="292.07" xlink:href="#c"/><linearGradient id="u" x1="341.36" x2="366.78" y1="224.06" y2="224.06" xlink:href="#c"/><linearGradient id="v" x1="341.36" x2="361.28" y1="230.99" y2="230.99" xlink:href="#c"/><linearGradient id="w" x1="482.04" x2="507.46" y1="225.09" y2="225.09" xlink:href="#c"/><linearGradient id="x" x1="482.04" x2="501.95" y1="232.02" y2="232.02" xlink:href="#c"/><linearGradient id="y" x1="482.04" x2="501.95" y1="218.16" y2="218.16" xlink:href="#c"/><linearGradient id="z" x1="493.67" x2="519.09" y1="311.77" y2="311.77" xlink:href="#c"/><linearGradient id="A" x1="493.67" x2="513.59" y1="318.29" y2="318.29" xlink:href="#c"/><linearGradient id="B" x1="493.67" x2="519.09" y1="324.82" y2="324.82" xlink:href="#c"/><linearGradient id="C" x1="493.67" x2="513.59" y1="331.35" y2="331.35" xlink:href="#c"/><linearGradient id="D" x1="350.61" x2="376.03" y1="308.9" y2="308.9" xlink:href="#c"/><linearGradient id="E" x1="350.61" x2="376.03" y1="325.74" y2="325.74" xlink:href="#c"/><linearGradient id="F" x1="322.2" x2="528.32" y1="276.93" y2="276.93" xlink:href="#b"/><linearGradient id="G" x1="609.49" x2="799.85" y1="403.59" y2="403.59" gradientUnits="userSpaceOnUse"><stop offset="0" stop-color="#f2ba34"/><stop offset=".13" stop-color="#f2bb37" stop-opacity=".98"/><stop offset=".26" stop-color="#f3be41" stop-opacity=".94"/><stop offset=".39" stop-color="#f4c452" stop-opacity=".85"/><stop offset=".52" stop-color="#f5cc69" stop-opacity=".74"/><stop offset=".64" stop-color="#f7d686" stop-opacity=".59"/><stop offset=".77" stop-color="#fae2ab" stop-opacity=".41"/><stop offset=".89" stop-color="#fcf1d5" stop-opacity=".21"/><stop offset="1" stop-color="#fff" stop-opacity="0"/></linearGradient><linearGradient id="H" x1="629.6" x2="648.37" y1="433.1" y2="433.1" xlink:href="#c"/><linearGradient id="I" x1="663.33" x2="682.1" y1="427.83" y2="427.83" xlink:href="#c"/><linearGradient id="J" x1="696.17" x2="714.94" y1="439.95" y2="439.95" xlink:href="#c"/><linearGradient id="K" x1="760.97" x2="779.75" y1="439.95" y2="439.95" xlink:href="#c"/><linearGradient id="L" x1="728.5" x2="747.28" y1="433.33" y2="433.33" xlink:href="#c"/><linearGradient id="M" x1="620.88" x2="673.08" y1="347.96" y2="347.96" xlink:href="#c"/><linearGradient id="N" x1="620.88" x2="673.08" y1="360.44" y2="360.44" xlink:href="#c"/><linearGradient id="O" x1="620.88" x2="654.35" y1="354.01" y2="354.01" xlink:href="#c"/><linearGradient id="P" x1="620.88" x2="654.35" y1="366.77" y2="366.77" xlink:href="#c"/><linearGradient id="Q" x1="657.95" x2="667.4" y1="354.01" y2="354.01" xlink:href="#c"/><linearGradient id="R" x1="657.95" x2="664.38" y1="366.77" y2="366.77" xlink:href="#c"/><linearGradient id="S" x1="677.61" x2="688.77" y1="347.96" y2="347.96" xlink:href="#c"/><linearGradient id="T" x1="676.29" x2="688.77" y1="360.44" y2="360.44" xlink:href="#c"/><linearGradient id="U" x1="747.28" x2="784.71" y1="347.29" y2="347.29" xlink:href="#c"/><linearGradient id="V" x1="747.28" x2="769.73" y1="352.85" y2="352.85" xlink:href="#c"/><linearGradient id="W" x1="747.28" x2="784.71" y1="358.53" y2="358.53" xlink:href="#c"/><linearGradient id="X" x1="747.28" x2="769.73" y1="364.42" y2="364.42" xlink:href="#c"/><linearGradient id="Y" x1="602.49" x2="806.85" y1="403.6" y2="403.6" xlink:href="#b"/></defs><path fill="none" stroke="#a8b9df" stroke-miterlimit="10" stroke-width="4" d="M1108,344.52H271.48a6,6,0,0,0-4.24,1.76L155.91,457.61a6,6,0,0,0-1.76,4.24V619.29a6,6,0,0,0,1.76,4.24L267.24,734.86a6,6,0,0,0,4.24,1.76H1108a6,6,0,0,0,4.24-1.76l111.33-111.33a6,6,0,0,0,1.76-4.24V461.85a6,6,0,0,0-1.76-4.24L1112.2,346.28A6,6,0,0,0,1108,344.52Z"/><path fill="none" stroke="#a8b9df" stroke-miterlimit="10" stroke-width="4" d="M671,256.82V733.3a6,6,0,0,0,1.76,4.24L784.09,848.87a6,6,0,0,0,4.24,1.75H945.77a6,6,0,0,0,4.24-1.75l111.33-111.33a6,6,0,0,0,1.76-4.24V256.82a6,6,0,0,0-1.76-4.24L950,141.25a6,6,0,0,0-4.24-1.76H788.33a6,6,0,0,0-4.24,1.76L672.76,252.58A6,6,0,0,0,671,256.82Z"/><circle cx="930.4" cy="344.52" r="8.36" fill="#a8b9df"/><circle cx="964.96" cy="344.52" r="8.36" fill="#a8b9df"/><circle cx="999.52" cy="344.52" r="8.36" fill="#a8b9df"/><circle cx="1034.08" cy="344.52" r="8.36" fill="#a8b9df"/><circle cx="1225.29" cy="462.36" r="8.36" fill="#a8b9df"/><circle cx="1225.29" cy="496.92" r="8.36" fill="#a8b9df"/><circle cx="1225.29" cy="531.48" r="8.36" fill="#a8b9df"/><circle cx="1225.29" cy="566.04" r="8.36" fill="#a8b9df"/><path fill="#f0f3f8" d="M1083.1,404.59H916.72a6,6,0,0,1-6-5.65l-3.17-54.52a6,6,0,0,0-6-5.65H639.36a6,6,0,0,0-6,5.74L631,398.85a6,6,0,0,1-6,5.74H246.62a6,6,0,0,0-4.24,1.76L131.05,517.67a6,6,0,0,0-1.75,4.25V679.36a6,6,0,0,0,1.75,4.24L242.38,794.93a6,6,0,0,0,4.24,1.75H625a6,6,0,0,1,6,5.75l2.33,54.34a6,6,0,0,0,6,5.74H901.58a6,6,0,0,0,6-5.65l3.16-54.52a6,6,0,0,1,6-5.66H1083.1a6,6,0,0,0,4.24-1.75L1198.67,683.6a6,6,0,0,0,1.76-4.24V521.92a6,6,0,0,0-1.76-4.25L1087.34,406.35A6,6,0,0,0,1083.1,404.59Z"/><path fill="#f0f3f8" d="M557,275V715.15a5.49,5.49,0,0,0,1.62,3.9l102.5,102.51a5.56,5.56,0,0,0,3.91,1.62H810a5.56,5.56,0,0,0,3.91-1.62l102.5-102.51a5.49,5.49,0,0,0,1.62-3.9V275a5.52,5.52,0,0,0-1.62-3.91l-102.5-102.5a5.52,5.52,0,0,0-3.91-1.62h-145a5.52,5.52,0,0,0-3.91,1.62l-102.5,102.5A5.52,5.52,0,0,0,557,275Z"/><g><path fill="#a8b9df" d="M216,637.83c-7.16.18-12.09-7.81-13.23-9.66a21,21,0,0,1-3.22-8.94c-.43-4.05.81-5,0-8.23-.92-3.63-3-4.4-5.37-8.23s-3-7.66-3.58-11.09a32.73,32.73,0,0,1,2.15-18.6C203.14,550.54,209.23,538,209.23,538s18.7,17.67,22.64,33.64c1.68,6.84,3.16,7.5,3,15.14-.07,3.3-1.59,5-2.38,9.18-.33,1.72-.19,2.54.36,8.58a43.78,43.78,0,0,1,.71,10.38c-.35,8.67-5.75,14.93-6.79,16.1C224.07,634,220.79,637.71,216,637.83Z"/><polygon fill="#899fca" points="212.52 562.17 228.03 769.82 223.04 770.13 212.52 562.17"/><path fill="#c4cfe6" d="M248.8,646.35c-6.56-1.22-9.51-9.45-10.19-11.35a19.58,19.58,0,0,1-1.2-8.76c.39-3.77,1.7-4.41,1.59-7.49-.13-3.49-1.88-4.59-3.3-8.53-1.48-4.09-1.29-7.56-1.12-10.79a30.39,30.39,0,0,1,5.54-16.52c13.8-18.52,21.75-28.74,21.75-28.74s13.62,19.69,14.12,35c.22,6.55,1.43,7.44-.19,14.36-.7,3-2.41,4.25-3.94,7.9-.63,1.5-.66,2.27-1.33,7.88a40.57,40.57,0,0,1-1.35,9.59c-2,7.83-8.13,12.48-9.3,13.34C256.86,644.45,253.16,647.16,248.8,646.35Z"/><polygon fill="#a4b5dd" points="260.21 576.79 231.37 778.25 225.44 777.31 260.21 576.79"/><path fill="#a8b9df" d="M217,707.47c-5,.13-8.53-5.5-9.33-6.8a14.89,14.89,0,0,1-2.27-6.3c-.3-2.85.57-3.53,0-5.8-.64-2.56-2.1-3.1-3.78-5.8a19.3,19.3,0,0,1-2.52-7.81,23,23,0,0,1,1.51-13.1c7.31-15.88,11.6-24.7,11.6-24.7s13.18,12.44,15.95,23.7c1.18,4.81,2.23,5.28,2.11,10.66-.05,2.32-1.12,3.52-1.68,6.47-.23,1.21-.13,1.79.25,6a30.83,30.83,0,0,1,.51,7.31,19.11,19.11,0,0,1-4.79,11.35C222.71,704.8,220.39,707.39,217,707.47Z"/><polygon fill="#899fca" points="214.57 654.17 222.43 771.63 217.44 771.86 214.57 654.17"/><path fill="#dde6f4" d="M233.11,671.54c-5.7.14-9.63-6.22-10.54-7.69a16.75,16.75,0,0,1-2.56-7.12c-.34-3.22.64-4,0-6.55-.73-2.89-2.38-3.51-4.27-6.55a21.51,21.51,0,0,1-2.85-8.83A25.88,25.88,0,0,1,214.6,620c8.26-18,13.1-27.91,13.1-27.91s14.89,14.06,18,26.78c1.34,5.44,2.52,6,2.39,12-.06,2.63-1.27,4-1.9,7.31-.26,1.37-.15,2,.29,6.83a34.57,34.57,0,0,1,.57,8.26,21.61,21.61,0,0,1-5.42,12.82C239.52,668.52,236.9,671.45,233.11,671.54Z"/><path fill="#a4b5dd" d="M230.47,611.3l1.74,40.09,1.59,40.1c.54,13.36,1.25,26.73,1.44,40.1.08,6.69.16,13.38.11,20.07l-.07,10c-.09,3.35-.12,6.69-.25,10h-.3c-.33-3.34-.55-6.68-.82-10l-.65-10c-.43-6.68-.72-13.36-1-20-.58-13.37-.62-26.75-.84-40.12l-.69-40.13-.54-40.12Z"/><path fill="#c4cfe6" d="M197.49,679.05c-5.44.83-10-4.79-11-6.08a16.25,16.25,0,0,1-3.32-6.51c-.72-3,.13-3.9-.79-6.27-1-2.68-2.71-3.07-4.89-5.75a21.08,21.08,0,0,1-3.81-8.11,25.11,25.11,0,0,1-.16-14.39c5.72-18.19,9.15-28.33,9.15-28.33s16,11.66,20.52,23.46c1.94,5,3.14,5.41,3.75,11.24.27,2.53-.73,4-.93,7.23-.08,1.35.11,2,1.11,6.51a34,34,0,0,1,1.55,7.84A20.78,20.78,0,0,1,205,672.83C203.26,675.38,201.11,678.5,197.49,679.05Z"/><polygon fill="#a4b5dd" points="187.49 621.7 220.96 767.19 215.09 768.42 187.49 621.7"/><path fill="#a8b9df" d="M260,676c-5.92-1.55-8.08-9.27-8.58-11a17.93,17.93,0,0,1-.53-8.1c.61-3.42,1.85-3.92,1.95-6.75.11-3.2-1.41-4.32-2.46-8a23.34,23.34,0,0,1-.31-9.94,27.86,27.86,0,0,1,6.16-14.75c13.84-16,21.79-24.87,21.79-24.87s11.17,18.91,10.62,33c-.24,6,.82,6.9-1.12,13.12-.84,2.69-2.49,3.73-4.13,7-.67,1.33-.75,2-1.74,7.12a37.2,37.2,0,0,1-1.86,8.68c-2.34,7-8.26,10.89-9.38,11.6C267.5,674.79,263.94,677,260,676Z"/><polygon fill="#899fca" points="275.02 613.1 241.11 769.59 236.24 768.46 275.02 613.1"/><path fill="#dde6f4" d="M198,729c-3.63,1-7.19-2.41-8-3.2a11.25,11.25,0,0,1-2.81-4.14c-.74-2-.24-2.66-1.07-4.2-.94-1.73-2.1-1.85-3.81-3.49a14.47,14.47,0,0,1-3.27-5.19,17.2,17.2,0,0,1-1.33-9.77c2.35-12.85,3.82-20,3.82-20s11.85,6.57,15.94,14.21c1.75,3.26,2.59,3.41,3.5,7.32.39,1.7-.16,2.77,0,5,.06.92.23,1.32,1.3,4.33a22.74,22.74,0,0,1,1.72,5.2,14.26,14.26,0,0,1-1.37,9.1C201.6,726,200.41,728.33,198,729Z"/><path fill="#a4b5dd" d="M186.48,690.84l7,20.85,6.84,20.9c2.26,7,4.77,13.87,6.7,20.94s3.77,14.18,5.12,21.43l-.29.08c-2.93-6.77-5.37-13.68-7.7-20.63S200,740.34,198,733.29l-6-21.16-5.83-21.21Z"/><path fill="#dde6f4" d="M263.4,711.62c-5.4-2-6.72-9.42-7-11.14a16.79,16.79,0,0,1,.24-7.64c.88-3.15,2.09-3.5,2.44-6.14.4-3-.93-4.18-1.57-7.74a22,22,0,0,1,.62-9.35,26.22,26.22,0,0,1,7.11-13.27C279.66,642.58,287.91,635,287.91,635s8.75,18.74,6.95,31.85c-.77,5.6.14,6.54-2.25,12.19-1,2.45-2.67,3.27-4.5,6.16-.76,1.18-.89,1.84-2.28,6.52a35.26,35.26,0,0,1-2.54,8,21.86,21.86,0,0,1-9.85,10C270.54,711.17,267,713,263.4,711.62Z"/><path fill="#a4b5dd" d="M283.36,654.1,273,686l-10.52,31.89c-3.53,10.62-6.81,21.33-10.66,31.84s-7.8,21-12.23,31.3l-.28-.1c2.87-10.85,6.21-21.54,9.67-32.18s7.46-21.11,11.23-31.64l11.37-31.6L283.07,654Z"/><path fill="#c4cfe6" d="M261.91,747.14c-3.17-2.36-2.58-7.51-2.44-8.69a11.53,11.53,0,0,1,1.65-5c1.19-1.9,2.06-1.9,2.8-3.57.85-1.88.21-2.92.48-5.39a15.2,15.2,0,0,1,2.23-6,18.06,18.06,0,0,1,7.27-7.33C286.08,705,293,701.6,293,701.6s2.08,14-1.66,22.29c-1.6,3.53-1.19,4.32-3.86,7.57-1.16,1.41-2.4,1.63-4.16,3.16-.73.64-.95,1-2.77,3.84a24,24,0,0,1-3.23,4.74,14.88,14.88,0,0,1-8.43,4.65C266.68,748.24,264,748.71,261.91,747.14Z"/><path fill="#a4b5dd" d="M286.3,713.27l-12.91,19.06-13,19c-4.36,6.32-8.5,12.78-13.15,18.89s-9.35,12.18-14.49,17.93l-.24-.17c3.79-6.72,8-13.15,12.29-19.5s9.07-12.38,13.64-18.54l13.76-18.46,13.88-18.37Z"/><path fill="#c4cfe6" d="M295.76,812.13A62,62,0,0,1,270,862.51h-72.7a62.86,62.86,0,0,1-17.91-20.1,62.24,62.24,0,0,1-3.5-53.16c.65-1.66,1.38-3.29,2.18-4.87A62.36,62.36,0,0,1,197,762H270.3c.82.6,1.62,1.22,2.41,1.86a62.21,62.21,0,0,1,16.51,20.52c.8,1.58,1.52,3.21,2.18,4.87A61.94,61.94,0,0,1,295.76,812.13Z"/><path fill="#a4b5dd" d="M291.4 789.24a12.32 12.32 0 01-9.12 4c-5.08 0-7.73-2.62-9.87-4.72-1.93-1.9-3.32-3.28-6.35-3.28s-4.43 1.38-6.36 3.28c-2.13 2.1-4.78 4.72-9.86 4.72s-7.73-2.62-9.87-4.72c-1.93-1.9-3.32-3.28-6.35-3.28s-4.42 1.38-6.35 3.28c-2.13 2.1-4.78 4.72-9.86 4.72s-7.73-2.62-9.86-4.72c-1.93-1.9-3.33-3.28-6.36-3.28s-4.42 1.38-6.35 3.28c-2.13 2.1-4.78 4.72-9.86 4.72a12.31 12.31 0 01-9.11-4l2.18-4.87.58.57c1.93 1.9 3.32 3.28 6.35 3.28s4.42-1.38 6.35-3.28c2.13-2.1 4.78-4.72 9.86-4.72s7.74 2.62 9.87 4.72c1.93 1.9 3.32 3.28 6.35 3.28s4.42-1.38 6.35-3.28c2.13-2.1 4.78-4.72 9.86-4.72s7.73 2.62 9.87 4.72c1.93 1.9 3.32 3.28 6.35 3.28s4.42-1.38 6.35-3.28c2.13-2.1 4.79-4.72 9.87-4.72s7.73 2.62 9.86 4.72c1.93 1.9 3.33 3.28 6.36 3.28s4.42-1.38 6.35-3.28l.59-.58C290 786 290.74 787.58 291.4 789.24zM292.39 832.36a61.73 61.73 0 01-4.5 10 11.56 11.56 0 01-5.61 1.34c-5.08 0-7.73-2.61-9.87-4.72-1.93-1.9-3.32-3.28-6.35-3.28s-4.43 1.38-6.36 3.28c-2.13 2.11-4.78 4.72-9.86 4.72s-7.73-2.61-9.87-4.72c-1.93-1.9-3.32-3.28-6.35-3.28s-4.42 1.38-6.35 3.28c-2.13 2.11-4.78 4.72-9.86 4.72s-7.73-2.61-9.86-4.72c-1.93-1.9-3.33-3.28-6.36-3.28s-4.42 1.38-6.35 3.28c-2.13 2.11-4.78 4.72-9.86 4.72a11.56 11.56 0 01-5.61-1.34l-4.49-10a19.84 19.84 0 013.75 3.1c1.93 1.91 3.32 3.28 6.35 3.28s4.42-1.37 6.35-3.28c2.13-2.1 4.78-4.72 9.86-4.72s7.74 2.62 9.87 4.72c1.93 1.91 3.32 3.28 6.35 3.28s4.42-1.37 6.35-3.28c2.13-2.1 4.78-4.72 9.86-4.72s7.73 2.62 9.87 4.72c1.93 1.91 3.32 3.28 6.35 3.28s4.42-1.37 6.35-3.28c2.13-2.1 4.79-4.72 9.87-4.72s7.73 2.62 9.86 4.72c1.93 1.91 3.33 3.28 6.36 3.28s4.42-1.37 6.35-3.28A20.34 20.34 0 01292.39 832.36z"/><path fill="#fff" d="M239.7 762L203.49 862.51h-6.21a62.65 62.65 0 01-7.36-6.25l34-94.27zM272.71 763.85l-35.55 98.66h-25.5L247.87 762H270.3C271.12 762.59 271.92 763.21 272.71 763.85z" opacity=".44"/></g><g><rect width="126.72" height="231.2" x="530.95" y="631.31" fill="#f9bf1f"/><rect width="126.72" height="299.31" x="356.63" y="563.2" fill="#f9bf1f"/><path fill="url(#a)" d="M564.71,689V631.31H531v231.2H657.67V811.15A126.77,126.77,0,0,1,564.71,689Z" opacity=".47"/><path fill="url(#d)" d="M394.79,691.87V563.2H356.63V862.51H483.35V812.74A126.77,126.77,0,0,1,394.79,691.87Z" opacity=".47"/><rect width="126.72" height="153.06" x="705.27" y="709.45" fill="#f9bf1f"/><path fill="url(#e)" d="M736.07,714.91v-5.46h-30.8V862.51H832V837.85A126.76,126.76,0,0,1,736.07,714.91Z" opacity=".47"/><rect width="126.72" height="71.68" x="879.59" y="790.83" fill="#f9bf1f"/><path fill="url(#f)" d="M904.84,790.83H879.59v71.68h126.72V841.63h0A126.54,126.54,0,0,1,904.84,790.83Z" opacity=".47"/></g><g data-name="Robot\Head\Side"><path fill="#838383" d="M1106.57,363.32c0-2.12,1.62-2.11,1.63-4.23s-1.58-2.14-1.56-4.26,1.62-2.11,1.64-4.23-1.58-2.13-1.57-4.25,1.62-2.11,1.64-4.23-1.58-2.13-1.56-4.25l20.63-.12c0,2.12,1.58,2.13,1.56,4.25s-1.62,2.11-1.63,4.23,1.58,2.13,1.56,4.25-1.62,2.11-1.64,4.23,1.58,2.14,1.57,4.26-1.62,2.11-1.64,4.23Z"/><path fill="#4e4f50" d="M1127.42 337.75h0a24.27 24.27 0 01-2.36 1.58 15.78 15.78 0 01-2.52 1.13c-.87.28-1.76.56-2.67.79s-1.82.52-2.72.73c-1.79.51-3.65.65-5.59 1.33a12.37 12.37 0 00-4.83 3.3 21.58 21.58 0 015.19-2.1c.88-.2 1.79-.31 2.74-.43s1.92-.32 2.87-.55a31.52 31.52 0 005.5-1.93 11.31 11.31 0 002.48-1.63 11.51 11.51 0 001.91-2.22zM1106.8 354a27.24 27.24 0 015.31-2.62 18.08 18.08 0 012.84-.61c1-.17 2-.38 3-.64a32 32 0 005.75-2.18 11 11 0 004.46-4.25 16 16 0 01-5 3.11c-.9.34-1.83.66-2.79.94s-1.9.6-2.85.84-1.9.48-2.88.7a14.77 14.77 0 00-3 .92 11.83 11.83 0 00-2.65 1.66A17.14 17.14 0 001106.8 354zM1128.9 350.62a15.94 15.94 0 01-5 2.85c-.9.31-1.82.61-2.76.87s-1.87.57-2.8.8-1.87.45-2.84.66a13.43 13.43 0 00-2.93 1 12.9 12.9 0 00-4.7 3.78h0a23.13 23.13 0 015.17-2.63 16.1 16.1 0 012.76-.63c1-.16 2-.36 2.94-.6a33.58 33.58 0 005.65-2.08A10.64 10.64 0 001128.9 350.62z"/><path fill="#657ebd" d="M1082.05,348.07c5-2.91,19.3-10.42,37.6-7.71a55.27,55.27,0,0,1,19.61,6.92,148.39,148.39,0,0,0,6-61c-14.59-4.18-30.48-5.35-52.09-5.29Z"/><path fill="#657ebd" d="M1082.72,348.27c5-2.92,19.29-10.43,37.6-7.71a55.09,55.09,0,0,1,19.61,6.91,148.39,148.39,0,0,0,6-61c-14.59-4.18-30.48-5.34-52.09-5.29Z"/><circle cx="1121.89" cy="322.79" r="14.01" fill="#30302f"/><path fill="#2f528b" d="M1082.05,348.07l11-65.88c.26-.4.51-.8.77-1.18q5.73,0,11,.11a78.27,78.27,0,0,0,9.51,9.82c-13.48,14.69-16.17,38.54-17.27,50.85A61.78,61.78,0,0,0,1082.05,348.07Z"/><path fill="#375fab" d="M1110,289.71s-13.39-11.38-13.94-18.56c0,0-36.23,39.32-16.4,86.37,0,0,11.51-2.95,12.51-11S1093.69,307.43,1110,289.71Z"/><circle cx="1091.06" cy="299.59" r="4.69" fill="#30302f"/><circle cx="1115.57" cy="320.98" r="14.01" fill="#4e4f50"/><circle cx="1115.57" cy="320.98" r="8.34" fill="#30302f"/></g><g data-name="Robot\Body\Side"><path fill="#4e4f50" d="M1260.44,540.62s22,10,1.53,18.2Z"/><circle cx="1246.06" cy="530.65" r="8.01" fill="#4e4f50"/><path fill="#526db3" d="M1233.89,533h13.5a13.5,13.5,0,0,1,13.5,13.5v0a13.5,13.5,0,0,1-13.5,13.5h-5.85a7.65,7.65,0,0,1-7.65-7.65V533a0,0,0,0,1,0,0Z" transform="rotate(175.19 1247.378 546.52)"/><path fill="#375fab" d="M1234.32,437.67h0a9.52,9.52,0,0,1,9.52,9.52v82.27a0,0,0,0,1,0,0h-19a0,0,0,0,1,0,0V447.19A9.52,9.52,0,0,1,1234.32,437.67Z" transform="rotate(164.41 1234.328 483.513)"/><path fill="#375fab" d="M1234.32,437.67h0a9.52,9.52,0,0,1,9.52,9.52v82.27a0,0,0,0,1,0,0h-19a0,0,0,0,1,0,0V447.19A9.52,9.52,0,0,1,1234.32,437.67Z" transform="rotate(164.41 1234.328 483.513)"/><path fill="none" stroke="#99aed9" stroke-miterlimit="10" stroke-width="2" d="M1216.35,454.62a12.27,12.27,0,0,1,7.53,6.62c3.33,6.54,16.17,56.12,18.92,66.78"/><path fill="#375fab" d="M1170.88,365.79h0a9.57,9.57,0,0,1,9.57,9.57V458a0,0,0,0,1,0,0h-19.14a0,0,0,0,1,0,0V375.36A9.57,9.57,0,0,1,1170.88,365.79Z" transform="rotate(109.16 1170.879 411.908)"/><circle cx="1220.03" cy="429.57" r="18.91" fill="#4e4f50"/><circle cx="1220" cy="429.5" r="10.52" fill="#30302f"/><path fill="#838383" d="M1102.22,506.46c0-3.63,2.76-3.6,2.79-7.23s-2.7-3.64-2.67-7.27,2.76-3.6,2.78-7.22-2.7-3.64-2.67-7.26,2.76-3.6,2.79-7.22-2.7-3.64-2.68-7.26l35.23-.22c0,3.62,2.7,3.64,2.67,7.26s-2.76,3.6-2.79,7.22,2.7,3.64,2.68,7.25-2.76,3.6-2.79,7.23,2.7,3.64,2.67,7.27-2.76,3.6-2.79,7.22Z"/><path fill="#4e4f50" d="M1137.78 462.77h0a39.78 39.78 0 01-4 2.7 26.52 26.52 0 01-4.29 1.92c-1.5.5-3 1-4.57 1.37s-3.11.89-4.65 1.25c-3 .87-6.22 1.11-9.53 2.28a21 21 0 00-8.24 5.62 37.69 37.69 0 018.86-3.58 46.74 46.74 0 014.68-.74c1.63-.23 3.28-.55 4.9-.94a53.93 53.93 0 009.38-3.3 18.09 18.09 0 007.49-6.57h0zM1102.6 490.59c3-1.72 6-3.52 9.07-4.48a33.45 33.45 0 014.84-1c1.7-.28 3.44-.65 5.14-1.09a54.65 54.65 0 009.82-3.74 18.52 18.52 0 007.6-7.25 27.67 27.67 0 01-8.5 5.32c-1.55.58-3.13 1.13-4.77 1.6s-3.25 1-4.87 1.44-3.24.82-4.91 1.19a25.1 25.1 0 00-5.11 1.59 19.79 19.79 0 00-4.54 2.83A30.1 30.1 0 001102.6 490.59zM1140.32 484.75a27.21 27.21 0 01-8.55 4.87c-1.54.53-3.11 1-4.72 1.49s-3.18 1-4.78 1.37-3.18.77-4.84 1.13a23.33 23.33 0 00-5 1.65 22.47 22.47 0 00-8 6.47h0v0l0 0h0a39.25 39.25 0 018.82-4.49 27.72 27.72 0 014.7-1.09c1.65-.28 3.36-.61 5-1a57.89 57.89 0 009.65-3.55A18.23 18.23 0 001140.32 484.75z"/><path fill="#657ebd" d="M1091.2,461.51l54.6,10.21a3.37,3.37,0,0,0,3.89-2.52L1169.38,387a3.36,3.36,0,0,0-.63-2.87L1148,357.88a3.32,3.32,0,0,0-2.65-1.28c-7.72.06-16.14.48-25.15,1.44a256.65,256.65,0,0,0-29.59,4.93,3.35,3.35,0,0,0-2.38,2.06,129.1,129.1,0,0,0,.44,94.42A3.36,3.36,0,0,0,1091.2,461.51Z"/><path fill="#526db3" d="M1159.94,373.82l8.14,10.3a3.36,3.36,0,0,1,.63,2.87L1149,469.2a3.37,3.37,0,0,1-3.89,2.52l-54.6-10.21a3.36,3.36,0,0,1-2.51-2.06c-.66-1.67-1.34-3.48-2-5.4C1136.49,438.05,1154.35,393.67,1159.94,373.82Z"/><path fill="none" stroke="#4e4f50" stroke-miterlimit="10" stroke-width="2" d="M1146.33 356.59s22.76 68.91-13.83 112.77M1139.07 357.16s.69 2.09 1.63 5.77"/><path fill="none" stroke="#4e4f50" stroke-dasharray="11.55 11.55" stroke-miterlimit="10" stroke-width="2" d="M1143.12,374.22c3.63,20.37,6,55.3-11.67,84"/><path fill="none" stroke="#4e4f50" stroke-miterlimit="10" stroke-width="2" d="M1128.25,463c-1.16,1.6-2.38,3.19-3.68,4.74"/><path fill="none" stroke="#99aed9" stroke-miterlimit="10" stroke-width="2" d="M1081.6,438.16l11.14,2.52a15.27,15.27,0,0,1,11.83,16.14l-.6,7.2-15.25-2.85A130.36,130.36,0,0,1,1081.6,438.16Z"/><path fill="#375fab" d="M1144.76,473.69l-54.6-10.21h0a5.33,5.33,0,0,1-4-3.29,131.09,131.09,0,0,1-.45-95.88,5.34,5.34,0,0,1,3.81-3.29,259.22,259.22,0,0,1,29.81-5c8.38-.89,16.91-1.38,25.35-1.45a5.35,5.35,0,0,1,4.24,2l20.73,26.24a5.36,5.36,0,0,1,1,4.57L1151,469.66a5.36,5.36,0,0,1-5.21,4.12A5.61,5.61,0,0,1,1144.76,473.69Zm0-115.09c-8.3.07-16.7.55-25,1.43a256.1,256.1,0,0,0-29.36,4.89,1.35,1.35,0,0,0-1,.83,127,127,0,0,0,.43,93,1.32,1.32,0,0,0,1,.83l54.61,10.22a1.36,1.36,0,0,0,1.57-1l19.7-82.21a1.38,1.38,0,0,0-.26-1.16l-20.73-26.24a1.34,1.34,0,0,0-1.06-.52Zm-54.19,102.91h0Z"/><circle cx="1112.02" cy="392.54" r="18.91" fill="#30302f"/><path fill="#4e4f50" d="M920,448.53s-18.63,15.46-17-6.56Z"/><circle cx="935.23" cy="439.93" r="8.01" fill="#4e4f50"/><path fill="#526db3" d="M906.89,420.72h13.5a13.5,13.5,0,0,1,13.5,13.5v0a13.5,13.5,0,0,1-13.5,13.5h-5.85a7.65,7.65,0,0,1-7.65-7.65V420.72A0,0,0,0,1,906.89,420.72Z" transform="rotate(-68.97 920.342 434.224)"/><path fill="#375fab" d="M982.73,404h0a9.52,9.52,0,0,1,9.52,9.52v82.27a0,0,0,0,1,0,0h-19a0,0,0,0,1,0,0V413.51a9.52,9.52,0,0,1,9.52-9.52Z" transform="matrix(.18 -.98 .98 .18 365.21 1336.91)"/><path fill="#375fab" d="M982.73,404h0a9.52,9.52,0,0,1,9.52,9.52v82.27a0,0,0,0,1,0,0h-19a0,0,0,0,1,0,0V413.51a9.52,9.52,0,0,1,9.52-9.52Z" transform="matrix(.18 -.98 .98 .18 365.21 1336.91)"/><path fill="none" stroke="#99aed9" stroke-miterlimit="10" stroke-width="2" d="M1016.6,446.33a12.23,12.23,0,0,1-9.23,3.89c-7.34.15-57.57-9.91-68.36-12.08"/><path fill="#375fab" d="M1074.86,377.9h0a9.57,9.57,0,0,1,9.57,9.57v82.68a0,0,0,0,1,0,0h-19.14a0,0,0,0,1,0,0V387.47a9.57,9.57,0,0,1,9.57-9.57Z" transform="rotate(-135 1074.859 424.022)"/><circle cx="1037.55" cy="460.56" r="18.91" fill="#4e4f50"/><circle cx="1037.62" cy="460.56" r="10.52" fill="#30302f"/><circle cx="1105.57" cy="392.54" r="19" fill="#4e4f50"/><circle cx="1105.57" cy="392.54" r="10.57" fill="#30302f"/></g><g data-name="Robot\Leg\Side"><path fill="#526db3" d="M913.89,746.79,924.46,750a23,23,0,0,1,6.75,3.31l7.39-1.45a9.31,9.31,0,0,0,6.55-5l1.58-3.19,35.49,10.68a51.25,51.25,0,0,1-.46,20.22c-2.53,10.09-5.15,17.13-5.15,17.13l-16.66-5,.48-1.62L940,778.88h0l-55-16.56h0A23.2,23.2,0,0,1,913.89,746.79Z"/><path fill="#677eba" d="M1001.08,639.12l126-65.94-6.37-40.85c-76.6,24.92-131,54.95-129.26,62.91a3,3,0,0,0,1,1.58C999.22,610.55,994.26,625.39,1001.08,639.12Z"/><path fill="none" stroke="#99aed9" stroke-miterlimit="10" stroke-width="3" d="M1087.34,544.71s1.23,6.43-5.5,11.16-76.44,33.56-76.44,33.56"/><circle cx="991.14" cy="613" r="27.56" fill="#4e4f50"/><path fill="#677eba" d="M995.8,616s-23.57-19-27.56-30c0,0-21.55,16.23-20.4,55.19s-1.11,102.48-1.11,102.48l35.49,10.68Z"/><circle cx="982.61" cy="620.59" r="5.57" fill="#30302f"/><circle cx="1101.98" cy="568.2" r="4.16" fill="#30302f"/><path fill="#99aed9" d="M1054.76,604.58a5.37,5.37,0,0,1,2.68-7.1l59.75-27a5.37,5.37,0,0,1,7.11,2.69l.52,1.16-67.72,35.42Z"/><line x1="971.22" x2="966.74" y1="591.45" y2="788.7" fill="none" stroke="#4e4f50" stroke-miterlimit="10" stroke-width="2"/><line x1="966.09" x2="965.96" y1="587.88" y2="593.88" fill="none" stroke="#4e4f50" stroke-miterlimit="10" stroke-width="2"/><line x1="965.68" x2="961.86" y1="606.36" y2="774.9" fill="none" stroke="#4e4f50" stroke-dasharray="12.49 12.49" stroke-miterlimit="10" stroke-width="2"/><line x1="961.72" x2="961.58" y1="781.15" y2="787.15" fill="none" stroke="#4e4f50" stroke-miterlimit="10" stroke-width="2"/><path fill="#375fab" d="M940,778.88h0a23.18,23.18,0,0,0-8.78-25.6l7.39-1.45a9.27,9.27,0,0,0,2.71-1,23.21,23.21,0,0,1,10.42,26.66L950.37,782l-55-16.55h0Z"/><path fill="#99aed9" d="M977.73 722.23L983 672.58a2.54 2.54 0 012.79-2.26l4.64.49L985 725.56 980 725A2.53 2.53 0 01977.73 722.23zM948 632.14l4.79.15a2.52 2.52 0 012.45 2.61l-1.53 49.91a2.54 2.54 0 01-2.61 2.46l-3.07-.09c.19-15.84.21-32.43-.19-46C947.74 638 947.81 635 948 632.14z"/><path fill="#526db3" d="M1140,669.25l-9.66-119.32-39.64-.31q-10.44,120.39,1.57,122.66a3,3,0,0,0,1.83-.28Z"/><path fill="none" stroke="#99aed9" stroke-miterlimit="10" stroke-width="3" d="M1089,586.71s5,1.32,6.5,8.25,2.44,61.22,2.44,61.22"/><circle cx="1115.53" cy="672.33" r="27.56" fill="#4e4f50"/><path fill="#677eba" d="M1135.51,687.5s-25.57-16.15-30.8-26.67c0,0-19.56,18.58-14,57.16s9.66,107.33,9.66,107.33l37.37,1.18Z"/><circle cx="1122.93" cy="693.6" r="5.57" fill="#30302f"/><circle cx="1115.97" cy="571.09" r="4.16" fill="#30302f"/><path fill="#677eba" d="M1137.45,824.9a51.41,51.41,0,0,1,5.61,19.44c.6,10.38.21,17.88.21,17.88l-17.4.2,0-1.69-78.79.89,48-26a9.3,9.3,0,0,0,4.76-6.73l.55-3.52Z"/><path fill="#3960aa" d="M1057.86,855.76l37.22-20.19a9.05,9.05,0,0,0,2.29-1.77,23.22,23.22,0,0,1,17.91,22.33l0,4.71-57.43.65-.06-4.71C1057.84,856.44,1057.85,856.1,1057.86,855.76Z"/><path fill="#99aed9" d="M1131,628.76a5.37,5.37,0,0,1-5.5-5.24L1124,558a5.37,5.37,0,0,1,5.25-5.5l1.27,0,6.17,76.18Z"/><line x1="1108.3" x2="1126.3" y1="665.94" y2="862.42" fill="none" stroke="#4e4f50" stroke-miterlimit="10" stroke-width="2"/><line x1="1102.8" x2="1103.35" y1="662.98" y2="668.95" fill="none" stroke="#4e4f50" stroke-miterlimit="10" stroke-width="2"/><line x1="1104.48" x2="1119.75" y1="681.29" y2="847.8" fill="none" stroke="#4e4f50" stroke-dasharray="12.39 12.39" stroke-miterlimit="10" stroke-width="2"/><line x1="1120.31" x2="1120.86" y1="853.97" y2="859.94" fill="none" stroke="#4e4f50" stroke-miterlimit="10" stroke-width="2"/><path fill="#526db3" d="M1046.93,838.09h57.44a0,0,0,0,1,0,0v0a23.2,23.2,0,0,1-23.2,23.2h-11a23.2,23.2,0,0,1-23.2-23.2v0A0,0,0,0,1,1046.93,838.09Z" transform="rotate(179.35 1075.63 849.719)"/><path fill="#99aed9" d="M1129.65 795.13l-.43-49.93a2.54 2.54 0 012.52-2.55l4.66 0 .89 55-5.08 0A2.54 2.54 0 011129.65 795.13zM1089.86 709l4.77-.4a2.53 2.53 0 012.74 2.31l4.16 49.76a2.53 2.53 0 01-2.31 2.74l-3.06.26c-1.62-15.76-3.49-32.24-5.43-45.7C1090.27 714.86 1090 711.88 1089.86 709z"/><circle cx="1118.87" cy="529.76" r="37.19" fill="#4e4f50"/><circle cx="1118.87" cy="529.76" r="17.53" fill="#677eba"/></g><g><rect width="210.12" height="132.36" x="218.57" y="291.89" fill="url(#g)" opacity=".47"/><rect width="181.77" height="58.57" x="232.74" y="316.35" fill="#a4b5dd"/><rect width="123.75" height="17.13" x="232.74" y="391.44" fill="url(#b)" opacity=".47"/><polyline fill="none" stroke="url(#h)" stroke-miterlimit="10" stroke-width="3" points="242.94 363.34 259.02 339.23 268.29 360.87 283.13 346.65 301.06 355.92 327.03 339.23 333.21 351.29 353 339.23 365.36 359.63 370.93 346.65 386.38 333.05 393.19 348.19 404.31 333.05" opacity=".47"/><polyline fill="none" stroke="url(#i)" stroke-miterlimit="10" stroke-width="3" points="242.94 348.19 256.44 355.92 271.69 348.19 286.12 361.49 297.25 345 311.68 355.92 318.68 333.05 337.64 341.29 343.83 351.6 365.26 338.82 379.69 354.07 408.13 341.29"/><line x1="370.7" x2="408.13" y1="391.44" y2="391.44" fill="none" stroke="url(#c)" stroke-miterlimit="10" stroke-width="3" opacity=".63"/><line x1="370.7" x2="393.16" y1="396.99" y2="396.99" fill="none" stroke="url(#j)" stroke-miterlimit="10" stroke-width="3" opacity=".63"/><line x1="370.7" x2="408.13" y1="402.67" y2="402.67" fill="none" stroke="url(#k)" stroke-miterlimit="10" stroke-width="3" opacity=".63"/><line x1="370.7" x2="393.16" y1="408.56" y2="408.56" fill="none" stroke="url(#l)" stroke-miterlimit="10" stroke-width="3" opacity=".63"/><polygon fill="#fff" points="314.86 291.89 277.22 424.25 244.96 424.25 282.61 291.89 314.86 291.89" opacity=".43"/><polygon fill="#fff" points="377.73 291.89 340.08 424.25 292.52 424.25 330.17 291.89 377.73 291.89" opacity=".43"/><path fill="url(#m)" d="M435.69,431.25H211.57V284.9H435.69Zm-217.12-7H428.69V291.9H218.57Z" opacity=".47"/><rect width="193.11" height="133.36" x="328.71" y="210.25" fill="#fff" opacity=".47"/><rect width="199.12" height="139.36" x="325.7" y="207.25" fill="none" stroke="#5884c3" stroke-miterlimit="10" stroke-width="7"/><rect width="193.11" height="133.36" x="328.71" y="210.25" fill="url(#n)" opacity=".47"/><path fill="url(#o)" d="M424,231A42.92,42.92,0,1,0,467,273.91,42.92,42.92,0,0,0,424,231Zm0,66.69a23.77,23.77,0,1,1,23.77-23.77A23.77,23.77,0,0,1,424,297.68Z"/><path fill="#a4b5dd" d="M447.8,274.24A23.76,23.76,0,0,1,424,297.68v19.15A42.92,42.92,0,0,0,467,274.24Z"/><path fill="none" stroke="url(#p)" stroke-miterlimit="10" stroke-width="4" d="M447.81,273.91c0,.11,0,.22,0,.33H467c0-.11,0-.22,0-.33A42.93,42.93,0,0,0,424,231v19.15A23.76,23.76,0,0,1,447.81,273.91Z"/><rect width="11.22" height="11.22" x="333.77" y="286.46" fill="url(#q)"/><rect width="11.22" height="11.22" x="333.77" y="303.29" fill="url(#r)"/><rect width="11.22" height="11.22" x="333.77" y="320.13" fill="url(#s)"/><line x1="350.61" x2="376.03" y1="292.07" y2="292.07" fill="none" stroke="url(#t)" stroke-miterlimit="10" stroke-width="4"/><line x1="341.36" x2="366.78" y1="224.06" y2="224.06" fill="none" stroke="url(#u)" stroke-miterlimit="10" stroke-width="4"/><line x1="341.36" x2="361.28" y1="230.99" y2="230.99" fill="none" stroke="url(#v)" stroke-miterlimit="10" stroke-width="4"/><line x1="482.04" x2="507.46" y1="225.09" y2="225.09" fill="none" stroke="url(#w)" stroke-miterlimit="10" stroke-width="4"/><line x1="482.04" x2="501.95" y1="232.02" y2="232.02" fill="none" stroke="url(#x)" stroke-miterlimit="10" stroke-width="4"/><line x1="482.04" x2="501.95" y1="218.16" y2="218.16" fill="none" stroke="url(#y)" stroke-miterlimit="10" stroke-width="4"/><line x1="493.67" x2="519.09" y1="311.77" y2="311.77" fill="none" stroke="url(#z)" stroke-miterlimit="10" stroke-width="4"/><line x1="493.67" x2="513.59" y1="318.29" y2="318.29" fill="none" stroke="url(#A)" stroke-miterlimit="10" stroke-width="4"/><line x1="493.67" x2="519.09" y1="324.82" y2="324.82" fill="none" stroke="url(#B)" stroke-miterlimit="10" stroke-width="4"/><line x1="493.67" x2="513.59" y1="331.35" y2="331.35" fill="none" stroke="url(#C)" stroke-miterlimit="10" stroke-width="4"/><line x1="350.61" x2="376.03" y1="308.9" y2="308.9" fill="none" stroke="url(#D)" stroke-miterlimit="10" stroke-width="4"/><line x1="350.61" x2="376.03" y1="325.74" y2="325.74" fill="none" stroke="url(#E)" stroke-miterlimit="10" stroke-width="4"/><line x1="371.07" x2="386.59" y1="233.06" y2="242.13" fill="none" stroke="#a4b5dd" stroke-miterlimit="10" stroke-width="4"/><line x1="461.35" x2="476.53" y1="241.89" y2="233.96" fill="none" stroke="#a4b5dd" stroke-miterlimit="10" stroke-width="4"/><line x1="468.94" x2="488.36" y1="290.35" y2="306.44" fill="none" stroke="#a4b5dd" stroke-miterlimit="10" stroke-width="4"/><polygon fill="#fff" points="416.5 210.96 376.85 343.61 344.59 343.61 384.24 210.96 416.5 210.96" opacity=".43"/><polygon fill="#fff" points="479.36 210.96 439.71 343.61 392.15 343.61 431.8 210.96 479.36 210.96" opacity=".43"/><rect width="199.12" height="139.36" x="325.7" y="207.25" fill="none" stroke="url(#F)" stroke-miterlimit="10" stroke-width="7" opacity=".47"/></g><g data-name="Tabs"><rect width="190.36" height="146.95" x="609.49" y="330.12" fill="url(#G)" opacity=".47"/><g opacity=".47"><rect width="18.77" height="64.27" x="629.6" y="400.96" fill="url(#H)"/><rect width="18.77" height="75.73" x="663.33" y="389.96" fill="url(#I)"/><rect width="18.77" height="51.49" x="696.17" y="414.2" fill="url(#J)"/><rect width="18.77" height="51.49" x="760.97" y="414.2" fill="url(#K)"/><rect width="18.77" height="64.73" x="728.5" y="400.96" fill="url(#L)"/></g><line x1="620.88" x2="673.08" y1="347.96" y2="347.96" fill="none" stroke="url(#M)" stroke-miterlimit="10" stroke-width="3" opacity=".47"/><line x1="620.88" x2="673.08" y1="360.44" y2="360.44" fill="none" stroke="url(#N)" stroke-miterlimit="10" stroke-width="3" opacity=".47"/><line x1="620.88" x2="654.35" y1="354.01" y2="354.01" fill="none" stroke="url(#O)" stroke-miterlimit="10" stroke-width="3" opacity=".47"/><line x1="620.88" x2="654.35" y1="366.77" y2="366.77" fill="none" stroke="url(#P)" stroke-miterlimit="10" stroke-width="3" opacity=".47"/><line x1="657.95" x2="667.4" y1="354.01" y2="354.01" fill="none" stroke="url(#Q)" stroke-miterlimit="10" stroke-width="3" opacity=".47"/><line x1="657.95" x2="664.38" y1="366.77" y2="366.77" fill="none" stroke="url(#R)" stroke-miterlimit="10" stroke-width="3" opacity=".47"/><line x1="677.61" x2="688.77" y1="347.96" y2="347.96" fill="none" stroke="url(#S)" stroke-miterlimit="10" stroke-width="3" opacity=".47"/><line x1="676.29" x2="688.77" y1="360.44" y2="360.44" fill="none" stroke="url(#T)" stroke-miterlimit="10" stroke-width="3" opacity=".47"/><line x1="747.28" x2="784.71" y1="347.29" y2="347.29" fill="none" stroke="url(#U)" stroke-miterlimit="10" stroke-width="3" opacity=".63"/><line x1="747.28" x2="769.73" y1="352.85" y2="352.85" fill="none" stroke="url(#V)" stroke-miterlimit="10" stroke-width="3" opacity=".63"/><line x1="747.28" x2="784.71" y1="358.53" y2="358.53" fill="none" stroke="url(#W)" stroke-miterlimit="10" stroke-width="3" opacity=".63"/><line x1="747.28" x2="769.73" y1="364.42" y2="364.42" fill="none" stroke="url(#X)" stroke-miterlimit="10" stroke-width="3" opacity=".63"/><polygon fill="#fff" points="696.79 330.12 662.39 477.07 633.06 477.07 667.47 330.12 696.79 330.12" opacity=".43"/><polygon fill="#fff" points="753.94 330.12 719.53 477.07 676.3 477.07 710.7 330.12 753.94 330.12" opacity=".43"/><path fill="url(#Y)" d="M806.85,484.07H602.49V323.12H806.85Zm-197.36-7H799.85V330.12H609.49Z" opacity=".47"/></g></svg>