<svg xmlns="http://www.w3.org/2000/svg" width="1000" height="1000" enable-background="new 0 0 1000 1000" viewBox="0 0 1000 1000"><path fill="#E5E5E5" d="M945.05,561.67c3.5-4.99,21.181-3.67,21.181-3.67c-5.851,1.55-9.58,5.32-11.891,8.83
				c-13.2-4.021-26.34-5.07-26.34-5.07s5.97-3.17,11.2-7.72c4.77-1.59,10.63-1.37,10.63-1.37C943.5,558,945.05,561.67,945.05,561.67
				z"/><path fill="#E5E5E5" d="M939.2,554.04c-5.23,4.55-11.2,7.72-11.2,7.72s13.14,1.05,26.34,5.07c13.3,4.06,26.66,11.14,26.66,23.2
				c0,24.02-76,46.819-76,46.819S940,664,822,699c-70.74,20.98-137.88,25.79-180.32,26.28l-0.01-0.95C642.33,709.67,653,711,653,711
				c-14.33-9-30.67,3.67-30.67,3.67c2.67-13.67-9.33-17-9.33-17c3.67,15.66-2.98,19.35-2.98,19.35
				c-5.34-13.26-29.689-10.55-29.689-10.55c13.09,3.931,16.29,11.74,16.65,17.62C596.33,724.03,596,724,596,724s-88,31-247,46
				S54,741,42,693.7s50-48.7,68-56.851C128,628.7,73,625,74,614s72-30,72-30s87-18.75,142-18.75S315.33,580,315.33,580
				S795,516,892,522.69C958.66,527.28,950.7,544.01,939.2,554.04z"/><path fill="#E5E5E5" d="M653,711c0,0-10.67-1.33-11.33,13.33l0.01,0.95c-24.43,0.279-40.68-0.87-44.699-1.19
				c-0.36-5.88-3.561-13.689-16.65-17.62c0,0,24.35-2.71,29.689,10.55c0,0,6.65-3.689,2.98-19.35c0,0,12,3.33,9.33,17
				C622.33,714.67,638.67,702,653,711z"/><path fill="#295FC5" d="M899,551c0.308-5.234-2.568-10.714-3.025-15.889c-0.385-4.345-0.23-9.262,0.025-13.623
		c0.194-3.311,1.138-9.629,4.975-11.013c4.749-1.712,5.65,3.303,9.389-1.976c5.407-7.636,0.364-17.718,3.014-26.012
		c0.978-3.059,4.792-7.38,8.647-5.512c4.34,2.103,0.816,7.095,6.976,5.022c2.281-0.768,3.968-3.295,6.875-3.898
		c2.494-0.518,6.56-0.513,9.11-0.111c5.697,0.898,12.993,5.351,15.901,10.51c6.817,12.092-8.178,11.257-15.887,12.49
		c-3.042,0.486-8.98,1.327-10.637,4.375c-2.928,5.385,5.109,6.879,8.135,10.111c11.023,11.774-11.429,10.178-17.107,10.014
		c-4.086-0.117-8.132,0.053-9.514,4.512c-1.419,4.582,3.294,7.211,2.023,12.012C916.125,548.72,905.097,554.121,899,551"/><path fill="#3E89FC" d="M439,576c0.388-5.257,4.013-8.966,3.998-14.364c-0.01-3.714-1.055-7.479-2.971-10.647
		c-2.627-4.344-6.25-6.168-11.027-6.986c-3.556-0.609-8.219,0.082-9.524-4.504c-0.468-1.644,0.873-4.24,1.024-5.998
		c0.229-2.66-0.255-4.572-0.998-7c-3.024-9.874-11.682-10.392-17.891-2.973c-7.436,8.886-11.501,17.957-1.111,26.109
		c3.653,2.866,9.968,6.02,11.389,10.863c1.802,6.143-5.012,5.092-7.291,10.111c-3.328,7.331,2.24,7.555,7.402,8.389
		c8.568,1.384,0.818,4.152,2.087,9.413c4.559,1.409,15.91,9.053,20.411,6.622c5.271-2.845,8.855-17.644,6.002-22.535"/><polygon fill="#F4AC38" points="905 370.15 905 603.25 758.16 641.25 758.16 398.95"/><polygon fill="#FFC962" points="905 370.15 758.16 398.95 634.66 335.95 768 311.15"/><polygon fill="#E28529" points="758.16 398.95 758.16 641.25 698.84 607.87 698.84 498.2 634.66 470.56 634.66 335.95"/><polygon fill="#F4AC38" points="698.84 607.87 698.84 652 552 690 552 527 634.66 510.79 634.66 571.75"/><polygon fill="#F4AC38" points="698.84 498.2 698.84 607.87 634.66 571.75 634.66 510.79"/><polygon fill="#FFC962" points="698.84 498.2 634.66 510.79 634.66 470.56"/><polygon fill="#FFC962" points="634.66 470.56 634.66 510.79 552 527 428.5 464 561.84 439.2"/><polygon fill="#E28529" points="552 527 552 690 476.41 647.46 476.41 636.85 428.5 611.94 428.5 464"/><polygon fill="#F4AC38" points="476.41 647.46 476.41 712.05 329.57 750.05 329.57 665.65 462.43 639.59"/><polygon fill="#F4AC38" points="476.41 636.85 476.41 647.46 462.43 639.59"/><polygon fill="#FFC962" points="476.41 636.85 462.43 639.59 428.5 620.5 428.5 611.94"/><polygon fill="#FFC962" points="462.43 639.59 329.57 665.65 206.07 602.65 352.33 572.33 428.5 611.94 428.5 620.5"/><polygon fill="#E28529" points="329.57 665.65 329.57 750.05 206.07 680.55 206.07 602.65"/><g><polygon fill="#E22953" points="688 222.5 642.5 292 642.5 260.5 383.97 417.92 376.84 388.06 632.5 241.5 618.5 225"/><path fill="#1E1950" d="M389,608c7.5,2,9,11.5,8.5,12.75s-61,0.5-62,0s4.49-23.46,4.49-23.46c4.28,2.79,19.77,2.99,25.01,2.979
					l-1,4.98C364,605.25,381.5,606,389,608z"/><path fill="#403882" d="M298.38,483.66c0,0,89.12,44.59,88.62,56.59s-20.25,60-20.25,60s-0.65,0.02-1.75,0.02
					c-5.24,0.011-20.73-0.189-25.01-2.979c-0.48-0.31-0.82-0.66-0.99-1.04l12.5-46.5L268,528.48l-0.61-0.211l10.67-30.93v-0.01
					c14.42-6.47,20.44-12.83,20.44-12.83C298.46,484.22,298.42,483.94,298.38,483.66z"/><path fill="#FDA181" d="M377.75,497.33c3.5,6.05,3.87,26.67,0.87,25.29c-3-1.37-11.24-18.74-12.37-19c0,0,2.63,11.26,1,10.88
					c-1.17-0.27-7.39-5.7-10.96-10.7c0.09-1.63,0.52-3.5,1.5-5.56c2.53-5.32,2.66-12.39,2.41-16.94
					C365.31,485.14,375.19,492.91,377.75,497.33z"/><path fill="#F77556" d="M360.2,481.3c0.25,4.55,0.12,11.62-2.41,16.94c-0.98,2.06-1.41,3.93-1.5,5.56
					c-1.42-1.979-2.42-3.89-2.53-5.39c5.45-7.58,4.03-16.45,3.33-19.4h0.01C357.1,479.01,358.33,479.89,360.2,481.3z"/><path fill="#3E89FC" d="M357.09,479.01c0.7,2.95,2.12,11.82-3.33,19.4c-0.38,0.54-0.8,1.07-1.26,1.59
					c0,0-28.24-16.48-45.86-34.85c0-0.01-0.01-0.02-0.01-0.02c-5.96-15.34-8.49-53.58-9.42-72.87c-1.19,12.54-2.65,34.01-1.77,57.82
					c0.4,10.92,1.29,22.32,2.94,33.58c0.04,0.28,0.08,0.56,0.12,0.84c0,0-6.02,6.36-20.44,12.83v0.01
					c-13.46,6.03-34.25,12.16-64.31,13.3c0,0-0.47-28.36,0.34-53.53c3.47-14.11,9.95-36.52,14.02-50.35
					c-3.67,7.16-8.25,16.14-12.43,24.45c-5.36,10.64-10.08,20.2-11.43,23.46c-3.58,8.66-10.42,39.5-10.42,39.5
					c-1.46,0.56-2.97,0.99-4.5,1.31c-7.07,1.5-14.29,0.72-16.39,0.44c-0.4-0.05-0.61-0.09-0.61-0.09s3.5-34.66,6-41.83
					s27.34-76.5,30.84-81.17c2.58-3.43,15.98-9.66,22.88-12.72l28.1,8.02l7.2,11.55h-0.01l-5.26,10.82l-6.91,71l4.57,14l9.76-13.33
					l6.17-71.67l-5.71-10.82l4.49-12.38l21.22-7.67c3.5,1.33,7.03,2.94,7.83,4.2c1.67,2.67,9.5,68.34,9.5,68.34
					s25.67,36.16,43.83,45.83C356.83,478,356.95,478.36,357.09,479.01z"/><path fill="#295FC5" d="M306.63 465.13c-4.77-4.97-8.76-10.09-11.19-15.05-.88-23.81.58-45.28 1.77-57.82C298.14 411.55 300.67 449.79 306.63 465.13zM295.67 359.63l-21.22 7.67.5-1.38L288 357C288 357 291.81 358.15 295.67 359.63z"/><path fill="#F77556" d="M295.67,317.67c0,0-3.47,3.83-7.17,5.66l-1.79-14.3c0.11,0.27,0.21,0.49,0.29,0.64
					C288.33,312,295.67,317.67,295.67,317.67z"/><path d="M288.52,326.66c0.29,0.28,0.31,0.74,0.03,1.04c-0.08,0.08-1.38,1.43-4.77,1.43c-1.63,0-3.75-0.31-6.44-1.23
					c-0.39-0.13-0.6-0.56-0.47-0.95c0.13-0.39,0.56-0.6,0.95-0.47c7.24,2.46,9.62,0.21,9.64,0.19
					C287.75,326.38,288.22,326.37,288.52,326.66z"/><path fill="#FDA181" d="M288.5,323.33c0,0,2.17,15.34,0,16c-2.17,0.67-14.5,3.34-14.5,3.34s-7.1,0.33-11.43-2.42
					c0,0,4.94,6.89,12.43,8.81c0.35,2.12,0.73,4.2,1,5.27l-8,16.34l-17.83-19c0-1.5-1.57-12.56-1.57-12.56l8.57-2.61l-0.5-10.67
					c0,0-4.84,0.34-6-6.66c-1.17-7,3.83-7.12,5.66-5.23c1.84,1.89,3.17,3.56,3.17,3.56l4.33-1.83l-2.83-12.5c0,0-4.32-0.67-4.5-5.34
					c-0.33-8.66,24.83-9.16,24.83-9.16s0.81,3.47,1.83,7.61c-4.57-1.55-9.63,3.12-9.84,3.32c-0.41,0.38-0.43,1.01-0.05,1.41
					c0.2,0.21,0.46,0.32,0.73,0.32c0.25,0,0.49-0.09,0.68-0.27c1.29-1.21,5.27-4.05,8.19-2.77c0.26,0.12,0.55,0.11,0.8,0.01
					c1.09,4.32,2.3,8.86,3.04,10.73L288.5,323.33z M288.55,327.7c0.28-0.3,0.26-0.76-0.03-1.04c-0.3-0.29-0.77-0.28-1.06,0.01
					c-0.02,0.02-2.4,2.27-9.64-0.19c-0.39-0.13-0.82,0.08-0.95,0.47c-0.13,0.39,0.08,0.82,0.47,0.95c2.69,0.92,4.81,1.23,6.44,1.23
					C287.17,329.13,288.47,327.78,288.55,327.7z M283.27,307.25c0-1.24-0.56-2.25-1.25-2.25s-1.25,1.01-1.25,2.25
					s0.56,2.25,1.25,2.25S283.27,308.49,283.27,307.25z"/><polygon fill="#3E89FC" points="288 357 274.95 365.92 271.24 368.46 271.23 368.46 268 370.67 276 354.33"/><path d="M283.67,296.47c0.51,0.22,0.74,0.81,0.51,1.31c-0.1,0.24-0.29,0.42-0.51,0.52c-0.18-0.69-0.35-1.37-0.51-2.02
					C283.33,296.33,283.5,296.39,283.67,296.47z"/><path d="M283.16,296.28c0.16,0.65,0.33,1.33,0.51,2.02c-0.25,0.1-0.54,0.11-0.8-0.01c-2.92-1.28-6.9,1.56-8.19,2.77
					c-0.19,0.18-0.43,0.27-0.68,0.27c-0.27,0-0.53-0.11-0.73-0.32c-0.38-0.4-0.36-1.03,0.05-1.41
					C273.53,299.4,278.59,294.73,283.16,296.28z"/><ellipse cx="282.02" cy="307.25" fill="#231F20" rx="1.25" ry="2.25"/><path fill="#1E1950" d="M282.83,282.17c0.84,4.83-1.5,6.5-1.5,6.5s-25.16,0.5-24.83,9.16c0.18,4.67,4.5,5.34,4.5,5.34l2.83,12.5
					l-4.33,1.83c0,0-1.33-1.67-3.17-3.56c-1.83-1.89-6.83-1.77-5.66,5.23c1.16,7,6,6.66,6,6.66l0.5,10.67l-8.57,2.61l-1.27,0.39
					c0,0-0.16-1.83-1.66-7.67c-1.5-5.83-14.84-21.5-16-23.16C228.5,307,233,302.5,233,302.5c-6.67-11.17,8.17-24.67,24.67-28
					S282,277.33,282.83,282.17z"/><path fill="#295FC5" d="M278.06,497.34l-10.67,30.93l-25.47,73.841l-2.25-0.78l-3.5-70.25l-10.5-3.75L211.76,528l1.99-17.36
					C243.81,509.5,264.6,503.37,278.06,497.34z"/><polygon fill="#1E1950" points="269.96 379.68 275.67 390.5 269.5 462.17 259.74 475.5 255.17 461.5 262.08 390.5 267.34 379.68 267.35 379.68 269 382.33"/><polygon fill="#1E1950" points="274.95 365.92 274.45 367.3 271.24 368.46"/><polygon fill="#1E1950" points="274.45 367.3 269.96 379.68 269 382.33 267.35 379.68 260.15 368.13 265.05 369.53 265.06 369.53 268 370.67 271.23 368.46 271.24 368.46"/><path fill="#F77556" d="M274,342.67c0,0,0.48,3.23,1,6.39c-7.49-1.92-12.43-8.81-12.43-8.81C266.9,343,274,342.67,274,342.67z"/><polygon fill="#3E89FC" points="250.17 351.67 268 370.67 265.06 369.53 265.05 369.53 259.74 367.47 236.17 358.33"/><polygon fill="#1E1950" points="265.05 369.53 260.15 368.13 259.74 367.47"/><path fill="#295FC5" d="M259.74,367.47l0.41,0.66l-28.1-8.02c2.48-1.09,4.12-1.78,4.12-1.78L259.74,367.47z"/><path fill="#1E1950" d="M246.5,693.7c5.75,3.21,5.25,10.05,2.75,11.8s-59.5,0.75-60.5,0s2.76-24.57,2.76-24.57
					c15.67,2.32,23.67,1.91,27.25,1.38l-0.51,5.69C218.25,688,240.75,690.5,246.5,693.7z"/><path fill="#295FC5" d="M241.92,602.11l-3.67,10.64l-17,69c0,0-0.69,0.29-2.49,0.56c-3.58,0.53-11.58,0.94-27.25-1.38
					c-0.41-0.05-0.82-0.12-1.24-0.18L206,603.83v-0.51l22.17-0.15l11.5-1.84L241.92,602.11z"/><polygon fill="#E28529" points="236.17 531.08 239.67 601.33 228.17 603.17 225.67 527.33"/><path fill="#F4AC38" d="M225.67,527.33l2.5,75.84L206,603.32l-75.17,0.51l2.01-72c0,0,25.09,26.29,41.39,29.92v0.01l0.94,9.07
					h6.5v-9.07l-0.07-0.24C197.43,556.65,225.67,527.33,225.67,527.33z"/><path fill="#FFC962" d="M211.76,528l13.91-0.67c0,0-28.24,29.32-44.07,34.189c-0.67,0.2-1.31,0.37-1.93,0.48
					c-1.65,0.3-3.48,0.19-5.44-0.25c-16.3-3.63-41.39-29.92-41.39-29.92l27.44-1.33h1.15v-0.06l43.57-2.11L211.76,528z"/><path fill="#295FC5" d="M215.68,431.21c4.18-8.31,8.76-17.29,12.43-24.45c-4.07,13.83-10.55,36.24-14.02,50.35
					C214.39,447.4,214.89,438.16,215.68,431.21z"/><path fill="#E28529" d="M205,511.83v16.479l-4.17,0.171l0.5-12.521l-11.05,0.17c2.22-3.8,2.22-3.8,2.22-3.8l3.34-0.33
					L205,511.83z"/><path fill="#FDA181" d="M194.5,503.17c2,4.5,1.34,8.83,1.34,8.83l-3.34,0.33c0,0,0,0-2.22,3.8h-0.01
					c-0.18,0.32-0.38,0.66-0.6,1.04c-2.84,4.83-6.5,7.33-11.84,6c-1.75-0.439-2.88-3.53-3.6-7.479
					c-0.27-1.471-0.49-3.061-0.66-4.681c-0.48-4.59-0.61-9.399-0.63-12.32c2.5-0.24,12.11-1.02,19.2,0.31
					C192.95,500.17,193.8,501.59,194.5,503.17z"/><path fill="#F77556" d="M189.33,495.48c0,0,1.33,1.34,2.81,3.52c-7.09-1.33-16.7-0.55-19.2-0.31c-0.02-1.71,0-2.77,0-2.77
					C175.04,496.2,182.26,496.98,189.33,495.48z"/><path fill="#FFF" d="M181.67,561.76v9.07h-6.5l-0.94-9.07v-0.01c1.96,0.44,3.79,0.55,5.44,0.25
					c0.62-0.11,1.26-0.28,1.93-0.48L181.67,561.76z"/><path fill="#E28529" d="M174.23,515.69L162,515l-0.57,15.44l-1.15,0.06h-2.19c0,0,0.74-18.67,0.74-19.49
					c0-0.81,14.29-0.029,14.74,0C173.74,512.63,173.96,514.22,174.23,515.69z"/></g><g><path fill="#231F20" d="M215.68,431.96c-0.115,0-0.231-0.026-0.34-0.082c-0.369-0.188-0.516-0.64-0.328-1.009l16.574-32.543
			c0.188-0.37,0.641-0.515,1.009-0.328c0.369,0.188,0.516,0.64,0.328,1.009l-16.574,32.543
			C216.216,431.811,215.953,431.96,215.68,431.96z"/></g><g><path fill="#231F20" d="M295.604,451.097c-0.005,0-0.009,0-0.014,0c-0.414-0.007-0.744-0.349-0.736-0.764
			c0.039-2.135,0.948-52.388,1.805-60.108c0.046-0.412,0.415-0.704,0.829-0.663c0.412,0.046,0.708,0.417,0.663,0.829
			c-0.85,7.651-1.787,59.447-1.796,59.97C296.346,450.77,296.012,451.097,295.604,451.097z"/></g><g><path fill="#231F20" d="M428.501,594.85c-0.048,0-0.097-0.005-0.146-0.015c-0.406-0.079-0.671-0.474-0.591-0.88
			c0.037-0.191,3.553-19.472-13.059-44.878c-0.227-0.347-0.129-0.812,0.217-1.038c0.348-0.227,0.812-0.13,1.039,0.218
			c16.972,25.957,13.433,45.183,13.274,45.988C429.166,594.602,428.852,594.85,428.501,594.85z"/></g><g><path fill="#231F20" d="M905.001,549.75c-0.028,0-0.058-0.002-0.087-0.005c-0.411-0.048-0.706-0.419-0.659-0.831
			c0.056-0.482,5.88-48.372,34.441-61c0.378-0.167,0.822,0.003,0.989,0.383c0.168,0.379-0.004,0.822-0.382,0.989
			c-27.786,12.284-33.504,59.326-33.559,59.8C905.701,549.468,905.377,549.75,905.001,549.75z"/></g><path fill="#3E89FC" d="M709.5,671.5c-3.301-5.571-13.156-14.354-7.137-22.137c2.074-2.684,6.894-1.599,8.162-5.838
		c1.156-3.858-2.562-7.541-2.525-11.525c0.045-4.936,1.667-7.086,6.109-7.136c5.543-0.062,4.549,1.987,7.002-3.853
		c3.233-7.698,13.439-16.711,18.764-5.012c2.075,4.562,0.75,5.782-1.351,9.1c-2.752,4.346-4.159,5.94-1.01,10.276
		c1.96,2.7,6.919,4.698,5.51,9.122c-1.521,4.774-6.577,2.495-10.024,3.477c-10.952,3.117-2.333,13.413-4.976,20.05
		c-2.186,5.486-16.452,6.526-19.024,1.976"/><g><path fill="#231F20" d="M708.499,685.75c-0.387,0-0.715-0.297-0.746-0.689c-0.021-0.247-1.846-25.021,13.663-44.281
			c0.261-0.322,0.733-0.371,1.055-0.113c0.322,0.26,0.373,0.731,0.113,1.055c-15.124,18.782-13.356,42.977-13.337,43.219
			c0.034,0.412-0.273,0.774-0.687,0.808C708.54,685.749,708.52,685.75,708.499,685.75z"/></g><path fill="#295FC5" d="M686,669.5c-3.13,1.705-7.918,3.707-11.387,1.861c-5.059-2.691-0.945-4.913-2.104-8.375
		c-1.258-3.759-7.646-4.343-10.535-6.861c-4.243-3.699-3.094-8.032-0.46-12.625c2.922-5.097,5.66-4.393,10.984-1.623
		c3.575,1.859,10.719,6.928,12.511,10.734c0.783,1.662-0.351,4.36,0.455,5.898c0.891,1.701,3.862,1.388,5.045,3.09
		c2.656,3.822-1.854,6.94-5.01,7.9"/><g><path fill="#231F20" d="M689.999,685.75c-0.37,0-0.692-0.274-0.742-0.651c-0.035-0.262-3.592-26.168-15.581-31.923
			c-0.374-0.179-0.531-0.627-0.352-1c0.179-0.374,0.626-0.534,1-0.352c12.72,6.105,16.274,31.979,16.419,33.077
			c0.055,0.411-0.234,0.788-0.645,0.842C690.065,685.748,690.032,685.75,689.999,685.75z"/></g><ellipse cx="124.333" cy="677.791" fill="#FFF" rx="18" ry="4.932"/><ellipse cx="151.826" cy="693.701" fill="#FFF" rx="14.333" ry="4.401"/><ellipse cx="166.159" cy="636.85" fill="#FFF" rx="7.127" ry="2.188"/><ellipse cx="803.873" cy="655.913" fill="#FFF" rx="7.127" ry="2.188"/></svg>