<svg xmlns="http://www.w3.org/2000/svg" data-name="Layer 1" viewBox="0 0 3207.84 1786.27"><path fill="#37a77f" d="M2615.91,593.31a759.62,759.62,0,0,0-206.46,28.44c-168.78-217.32-432.57-357.21-729.06-357.21-439.77,0-807.61,307.68-900.12,719.49a181.85,181.85,0,0,0-215.53,214.25C365,1249.62,217.35,1430.94,217.35,1646.73A460.85,460.85,0,0,0,282.69,1884H3155.61c135.09-136.92,218.49-325,218.49-532.5C3374.1,932.76,3034.65,593.31,2615.91,593.31Z" transform="translate(-166.26 -97.73)"/><path fill="#fff" d="M2154.58,370.88s30.07-17.51,31.35-26.18-29.22,4.76-39.37,23.18Z" transform="translate(-166.26 -97.73)"/><path fill="#fab696" d="M1978,298.61l27.47,4.18c0,.14,0,.31,0,.45,7.23,111.77,70.85,104.6,144.76,55.13,3.07,5.26,6,10.55,8.95,15.43-85,64.76-151.58,49.33-178.54-57.72C1978.52,307.72,1977.12,302.47,1978,298.61Z" transform="translate(-166.26 -97.73)"/><path fill="#1a1c2e" d="M1991.78,220.46s15.11,4.63,12.26,14.19-17.42-5.52-17.42-5.52S1984.95,217.19,1991.78,220.46Z" transform="translate(-166.26 -97.73)"/><path fill="#fff" d="M2090.27,855.1a6.43,6.43,0,0,1-9-4.22L2070,806.06a6.43,6.43,0,1,1,12.46-3.14l11.28,44.82A6.43,6.43,0,0,1,2090.27,855.1Z" transform="translate(-166.26 -97.73)"/><path fill="#3b3e54" d="M2094.22,824.76a201.78,201.78,0,0,1-18.41,9.68c-40.88-121.78-61.18-252.66-101.39-368q26.13-8.48,52.56-16.1C2061.13,574,2044.25,684.22,2094.22,824.76Z" transform="translate(-166.26 -97.73)"/><path fill="#1a1c2e" d="M2078.26,850.06s-4,16.53,0,17,61.25,2.2,61.59-.46c1.15-9.07-45.67-17.44-50.26-16.53S2078.78,847.66,2078.26,850.06Z" transform="translate(-166.26 -97.73)"/><path fill="#fff" d="M1898,855.1a6.43,6.43,0,0,0,9-4.22l11.28-44.82a6.43,6.43,0,1,0-12.46-3.14l-11.28,44.82A6.43,6.43,0,0,0,1898,855.1Z" transform="translate(-166.26 -97.73)"/><path fill="#3b3e54" d="M1894.08,824.76a201.81,201.81,0,0,0,18.41,9.68c40.88-121.78,61.18-252.66,101.39-368q-26.13-8.48-52.56-16.1C1927.17,574,1944,684.22,1894.08,824.76Z" transform="translate(-166.26 -97.73)"/><path fill="#1a1c2e" d="M1910,850.06s4,16.53,0,17-61.25,2.2-61.59-.46c-1.15-9.07,45.67-17.44,50.26-16.53S1909.52,847.66,1910,850.06Z" transform="translate(-166.26 -97.73)"/><path fill="#fab696" d="M1946.66,512c15.7-1,41.18-10,57.08-6.8,1.22.27,2.55.48,4,.65l4.42.41c10.37.71,23.68-.09,28.57-1.72-8.63-47.55-23.51-132.62-25.92-178.37-1-18.32-7-28-13.46-33a25.55,25.55,0,0,0-4.76-2.86c-11-5.61-21.85-6-30.32-1.33-6.93,3.74-12.27,10.81-14.82,21.07-1.9,7.61-1.39,13.66-.61,23.83C1954.43,382.13,1953.12,455.77,1946.66,512Z" transform="translate(-166.26 -97.73)"/><path fill="#fff" d="M1968.59,259c10.6,16.3,30.55,22.13,40.51,15.65s6.16-22.81-4.44-39.11-24.07-19.34-34-12.86S1958,242.74,1968.59,259Z" transform="translate(-166.26 -97.73)"/><path fill="#fff" d="M1971,256.34l20.32-2c.27,2.78,2.4,29.28,1.37,39.27-.75,3.08-5.81,4.49-11.32,3.15-4.95-1.2-8.53-4.21-8.67-7h0C1973.25,283.74,1971.9,266.06,1971,256.34Z" transform="translate(-166.26 -97.73)"/><path fill="#1a1c2e" d="M1978.52 264.62c3-3.24 5.81-.32 13 3.73s20.1 3 21-13.87c.38-7.14 3.18-1.79 5 2.62a22.06 22.06 0 011.86 10.21c-.43 5.4-2.88 9.12-7.32 12-6.64 4.32-16.49 4.62-26.14.88-5.13-2-8.84-6.85-8.54-12.35A5.12 5.12 0 011978.52 264.62zM1959.47 250.2s-3.35-12.68 2.37-21.76 21.88-18.67 34.68-6.44c0 0 8.3 9.52-4 18.56s-13.84.74-16.71 10.87-11.39 8.48-11.77 10.66z" transform="translate(-166.26 -97.73)"/><path fill="#fff" d="M1963.74,268.29c2.47,3.79,9.39,6.2,12.14,4.41s1.43-5.31-1-9.1-7-5.89-9.75-4.11S1961.27,264.5,1963.74,268.29Z" transform="translate(-166.26 -97.73)"/><polygon fill="#fff" points="2017.64 96.86 2003.03 130.34 2052.54 130.34 2037.93 96.86 2017.64 96.86"/><rect width="50.22" height="452.02" x="2002.5" y="130.34" fill="#777b8a"/><polygon fill="#777b8a" points="2027.79 73.61 2017.64 96.86 2037.93 96.86 2027.79 73.61"/><path fill="#a8e3e6" d="M664.15,1522.69c101.2,107.8,255.39,127.46,255.39,127.46L553.06,1259.76S562.95,1414.88,664.15,1522.69Z" transform="translate(-166.26 -97.73)"/><path fill="#bcf0f2" d="M553.06,1259.76l366.48,390.39S909.65,1495,808.45,1387.22,553.06,1259.76,553.06,1259.76Z" transform="translate(-166.26 -97.73)"/><path fill="#a8e3e6" d="M797.85,1391.18c19.56,146.56,133.52,252.28,133.52,252.28l-70.85-530.75S778.29,1244.62,797.85,1391.18Z" transform="translate(-166.26 -97.73)"/><path fill="#bcf0f2" d="M860.52,1112.71l70.85,530.75S1013.6,1511.55,994,1365,860.52,1112.71,860.52,1112.71Z" transform="translate(-166.26 -97.73)"/><path fill="#fab696" d="M2701.88 561.55a180.29 180.29 0 00-173.31 130.66h346.62A180.29 180.29 0 002701.88 561.55zM3174.69 561.55a180.29 180.29 0 00-173.31 130.66H3348A180.29 180.29 0 003174.69 561.55z" transform="translate(-166.26 -97.73)"/><path fill="#fab696" d="M2949.43,505.58c-117.62,0-216.8,78.88-247.56,186.63H3197C3166.24,584.46,3067,505.58,2949.43,505.58Z" transform="translate(-166.26 -97.73)"/><path fill="#feeee7" d="M2886.72 680.88a87.44 87.44 0 00-84.06 63.37h168.11A87.44 87.44 0 002886.72 680.88zM3116 680.88A87.44 87.44 0 003032 744.24H3200.1A87.44 87.44 0 003116 680.88z" transform="translate(-166.26 -97.73)"/><path fill="#feeee7" d="M3006.79,653.73a124.9,124.9,0,0,0-120.06,90.51h240.13A124.9,124.9,0,0,0,3006.79,653.73Z" transform="translate(-166.26 -97.73)"/><path fill="#90ceb8" d="M2710.8,1427c0-.76.15-77.09,17.72-184.58a1398.56,1398.56,0,0,1,42.25-182.5c22.17-72.54,49.92-139.91,82.48-200.24l10.17,5.49c-73,135.18-107.43,280.78-123.5,379.12-17.42,106.56-17.57,182-17.57,182.71Z" transform="translate(-166.26 -97.73)"/><path fill="#90ceb8" d="M2874.35 794.9c-21.72 41.85-24.41 83.51-24.41 83.51s32.52-26.18 54.24-68 24.41-83.51 24.41-83.51S2896.07 753.05 2874.35 794.9zM2789.11 843c14.26 44.94 41.84 76.29 41.84 76.29s4.46-41.51-9.8-86.45-41.84-76.29-41.84-76.29S2774.85 798.06 2789.11 843zM2918.47 918.86c46.69-6.52 82.22-28.45 82.22-28.45s-40.18-11.35-86.87-4.83S2831.6 914 2831.6 914 2871.78 925.38 2918.47 918.86zM2886.92 1005.79c46.59 7.24 86.93-3.49 86.93-3.49s-35.19-22.47-81.77-29.71-86.93 3.49-86.93 3.49S2840.34 998.55 2886.92 1005.79zM2856.84 1092c47 3.1 86.29-11.16 86.29-11.16s-37-19.28-84.08-22.38-86.29 11.16-86.29 11.16S2809.79 1088.92 2856.84 1092zM2834.21 1176.25c47.13 1.4 85.83-14.26 85.83-14.26s-37.7-17.93-84.83-19.33-85.83 14.26-85.83 14.26S2787.08 1174.85 2834.21 1176.25zM2818.77 1278.1c46.59 7.24 86.93-3.49 86.93-3.49s-35.19-22.47-81.77-29.71-86.93 3.49-86.93 3.49S2772.18 1270.86 2818.77 1278.1zM2737.4 927.66c30.19 36.21 67.57 54.81 67.57 54.81s-11.57-40.12-41.75-76.33-67.57-54.81-67.57-54.81S2707.21 891.45 2737.4 927.66z" transform="translate(-166.26 -97.73)"/><path fill="#90ceb8" d="M2667.91 1134.53c42.16 21.11 83.86 23.19 83.86 23.19s-26.65-32.14-68.81-53.24-83.86-23.19-83.86-23.19S2625.75 1113.43 2667.91 1134.53zM2648.11 1248.55c46.1 9.89 87 1.49 87 1.49s-33.84-24.45-79.94-34.35-87-1.49-87-1.49S2602 1238.66 2648.11 1248.55zM2699.16 1029.76c35.36 31.19 75.14 43.87 75.14 43.87s-17.55-37.88-52.91-69.07-75.14-43.87-75.14-43.87S2663.8 998.57 2699.16 1029.76zM2926.28 1456.44c.09-.51 9.22-51.55 33.69-121.37A950 950 0 013009.84 1218c23.41-45.9 49.95-87.68 78.87-124.19l6.15 4.87c-64.8 81.79-105.09 175.11-127.47 239-24.26 69.22-33.28 119.64-33.37 120.14z" transform="translate(-166.26 -97.73)"/><path fill="#90ceb8" d="M3110.48 1053a159.91 159.91 0 00-26.21 53 153 153 0 0070.55-92.06A159.91 159.91 0 003110.48 1053zM3047.77 1075.05a159.91 159.91 0 0019 56 153 153 0 00-15.29-115A159.91 159.91 0 003047.77 1075.05zM3125.33 1141.11a159.91 159.91 0 0058.37-9.3 153 153 0 00-115.9-4.21A159.91 159.91 0 003125.33 1141.11zM3093.94 1195.52a159.91 159.91 0 0058.57 7.95 153 153 0 00-109.75-37.5A159.91 159.91 0 003093.94 1195.52zM3063.61 1249.64a159.91 159.91 0 0059 2.75A153 153 0 003010 1224.72 159.91 159.91 0 003063.61 1249.64zM3038.5 1303.31a159.91 159.91 0 0059.1.62A153 153 0 002984 1280.34 159.91 159.91 0 003038.5 1303.31zM3016.13 1369.61a159.91 159.91 0 0058.57 7.95 153 153 0 00-109.75-37.5A159.91 159.91 0 003016.13 1369.61zM3003.16 1125.57a159.91 159.91 0 0038.71 44.66 153 153 0 00-57.61-100.66A159.91 159.91 0 003003.16 1125.57z" transform="translate(-166.26 -97.73)"/><path fill="#90ceb8" d="M2932.2 1255.73a159.91 159.91 0 0053.35 25.44 153 153 0 00-93.08-69.2A159.91 159.91 0 002932.2 1255.73zM2905.46 1329.66a159.91 159.91 0 0058 11.29 153 153 0 00-107.42-43.72A159.91 159.91 0 002905.46 1329.66zM2965.5 1189.34a159.91 159.91 0 0045.07 38.23 153 153 0 00-72.29-90.7A159.91 159.91 0 002965.5 1189.34zM384.46 378.7c-103.67 0-191.1 69.53-218.2 164.5h436.4C575.56 448.23 488.13 378.7 384.46 378.7zM979.74 378.7c-103.67 0-191.1 69.53-218.2 164.5h436.4C1170.84 448.23 1083.41 378.7 979.74 378.7z" transform="translate(-166.26 -97.73)"/><path fill="#90ceb8" d="M696.14,308.23c-148.08,0-273,99.32-311.68,235h623.35C969.1,407.54,844.22,308.23,696.14,308.23Z" transform="translate(-166.26 -97.73)"/><path fill="#5fb998" d="M2423.49 1404c-109.09 0-201.1 73.17-229.62 173.11h459.24C2624.59 1477.22 2532.59 1404 2423.49 1404zM3049.93 1404c-109.09 0-201.1 73.17-229.62 173.11h459.24C3251 1477.22 3159 1404 3049.93 1404z" transform="translate(-166.26 -97.73)"/><path fill="#5fb998" d="M2751.48,1329.89c-155.83,0-287.24,104.51-328,247.26h656C3038.72,1434.4,2907.31,1329.89,2751.48,1329.89Z" transform="translate(-166.26 -97.73)"/><path fill="#f9f9f9" d="M396.75 510.6a96.41 96.41 0 00-92.68 69.87H489.43A96.41 96.41 0 00396.75 510.6zM649.59 510.6a96.41 96.41 0 00-92.68 69.87H742.26A96.41 96.41 0 00649.59 510.6z" transform="translate(-166.26 -97.73)"/><path fill="#f9f9f9" d="M529.13,480.67a137.71,137.71,0,0,0-132.38,99.8H661.51A137.71,137.71,0,0,0,529.13,480.67Z" transform="translate(-166.26 -97.73)"/><path fill="#fab696" d="M1570.56 237.88a14.5 14.5 0 00-18.7 19.6c-14.52 13.93-26.19 30.65-33.44 42.26a417.66 417.66 0 00-1.16-50.59 14.53 14.53 0 10-7.73 1.54c2.95 35.07.78 70.22-3.75 102.34a169.34 169.34 0 00-37.55-33.15 14.54 14.54 0 10-3.62 7c23.3 15.44 36.21 32.2 39.55 36.89-11.27 70.46-32.8 123.82-33.13 124.64l7.25 3c.13-.32 13-32.06 24.12-78.4a600.05 600.05 0 0015.11-96.1c2.32-4.35 17.81-32.52 39.48-53.46a14.52 14.52 0 1013.56-25.53zM1425.55 406a600.07 600.07 0 00-40.73-88.35c-.48-4.91-3.22-36.91 3.2-66.37a14.56 14.56 0 10-7.56-2.08c-4.35 19.64-4.79 40-4.38 53.71a417.63 417.63 0 00-29-41.45 14.53 14.53 0 10-5.58 5.56c21.9 27.54 39.6 58 53.64 87.24a169.31 169.31 0 00-49.63-6.75 14.54 14.54 0 10.87 7.83c28-.08 48 6.72 53.37 8.76 29.7 64.88 41.38 121.22 41.56 122.08l7.67-1.55C1448.89 484.3 1442 450.73 1425.55 406z" transform="translate(-166.26 -97.73)"/><rect width="1788.37" height="112.18" x="739.72" y="1481.29" fill="#0c9463" rx="56.09" ry="56.09"/><path fill="#fab696" d="M896.8 133a113.76 113.76 0 00-109.36 82.44h218.71A113.76 113.76 0 00896.8 133zM1195.14 133a113.76 113.76 0 00-109.36 82.44H1304.5A113.76 113.76 0 001195.14 133z" transform="translate(-166.26 -97.73)"/><path fill="#fab696" d="M1053,97.73A162.49,162.49,0,0,0,896.8,215.49h312.41A162.49,162.49,0,0,0,1053,97.73Z" transform="translate(-166.26 -97.73)"/><path fill="#f9f9f9" d="M956.49 203.58a57.52 57.52 0 00-55.29 41.68h110.58A57.52 57.52 0 00956.49 203.58zM1107.33 203.58A57.52 57.52 0 001052 245.26h110.58A57.52 57.52 0 001107.33 203.58z" transform="translate(-166.26 -97.73)"/><path fill="#f9f9f9" d="M1035.47,185.72a82.16,82.16,0,0,0-79,59.54h158A82.16,82.16,0,0,0,1035.47,185.72Z" transform="translate(-166.26 -97.73)"/><path fill="#fff" d="M1618.46 354.23a29.93 29.93 0 0029.93-29.93 29.93 29.93 0 0029.93 29.93 29.93 29.93 0 00-29.93 29.93A29.93 29.93 0 001618.46 354.23zM3170.17 1314.1a29.93 29.93 0 0029.93-29.93A29.93 29.93 0 003230 1314.1 29.93 29.93 0 003200.1 1344 29.93 29.93 0 003170.17 1314.1zM684.36 1182.22a29.93 29.93 0 0029.93-29.93 29.93 29.93 0 0029.93 29.93 29.93 29.93 0 00-29.93 29.93A29.93 29.93 0 00684.36 1182.22zM3057.49 935.84a17.2 17.2 0 0017.2-17.2 17.2 17.2 0 0017.2 17.2 17.2 17.2 0 00-17.2 17.2A17.2 17.2 0 003057.49 935.84zM1723.36 401.35a17.2 17.2 0 0017.2-17.2 17.2 17.2 0 0017.2 17.2 17.2 17.2 0 00-17.2 17.2A17.2 17.2 0 001723.36 401.35zM472.23 1559.94a17.2 17.2 0 0017.2-17.2 17.2 17.2 0 0017.2 17.2 17.2 17.2 0 00-17.2 17.2A17.2 17.2 0 00472.23 1559.94z" transform="translate(-166.26 -97.73)"/><path fill="#90ceb8" d="M681.43 1606.28a138.12 138.12 0 00-132.78 100.1H814.21A138.12 138.12 0 00681.43 1606.28zM1043.67 1606.28a138.12 138.12 0 00-132.78 100.1h265.55A138.12 138.12 0 001043.67 1606.28z" transform="translate(-166.26 -97.73)"/><path fill="#90ceb8" d="M871.09,1563.4c-90.11,0-166.1,60.43-189.66,143h379.31C1037.19,1623.83,961.2,1563.4,871.09,1563.4Z" transform="translate(-166.26 -97.73)"/><path fill="#fab696" d="M558.57,1677a68.58,68.58,0,0,0-65.93,49.7H624.5A68.58,68.58,0,0,0,558.57,1677Z" transform="translate(-166.26 -97.73)"/><path fill="#fab696" d="M652.74,1655.7a98,98,0,0,0-94.17,71H746.91A98,98,0,0,0,652.74,1655.7Z" transform="translate(-166.26 -97.73)"/><rect width="1674.99" height="1109.55" x="796.24" y="346.62" fill="#feede5"/><path fill="#fab696" d="M1104.44 583.48l0-16-7.83 13.15h-2.77l-7.79-12.8v15.62h-5.78v-26.6h5.09l10 16.53 9.8-16.53h5.05l.08 26.6zM1128.16 570.19c0-7.9 6.15-13.75 14.55-13.75s14.55 5.81 14.55 13.75-6.19 13.75-14.55 13.75S1128.16 578.09 1128.16 570.19zm22.87 0a8.32 8.32 0 10-8.32 8.51A8.11 8.11 0 001151 570.19zM1199.59 556.89v26.6h-5.05l-13.26-16.15v16.15h-6.08v-26.6h5.09L1193.51 573V556.89zM1316.87 561.9h-8.51v-5h23.18v5H1323v21.58h-6.16zM1347.46 571.78V556.89h6.15v14.67c0 5.05 2.2 7.14 5.93 7.14s5.93-2.09 5.93-7.14V556.89h6.08v14.89c0 7.83-4.48 12.16-12 12.16S1347.46 579.61 1347.46 571.78zM1411.53 578.54v4.94h-20.59v-26.6H1411v4.94h-14v5.78h12.35v4.79h-12.35v6.16zM1560.09 556.89l-8.7 26.6h-6.61l-5.85-18-6 18h-6.57l-8.74-26.6H1524l6 18.69 6.27-18.69h5.7l6.08 18.85 6.19-18.85zM1597.41 578.54v4.94h-20.59v-26.6h20.1v4.94h-14v5.78h12.35v4.79h-12.35v6.16zM1615.62 556.89h12.08c8.7 0 14.67 5.24 14.67 13.3s-6 13.3-14.67 13.3h-12.08zm11.78 21.54c5.28 0 8.74-3.15 8.74-8.24s-3.46-8.25-8.74-8.25h-5.62v16.49zM1754.69 561.9h-8.51v-5h23.18v5h-8.51v21.58h-6.16zM1810.35 556.89v26.6h-6.16v-10.9h-12.08v10.9H1786v-26.6h6.16v10.49h12.08V556.89zM1829.74 571.78V556.89h6.16v14.67c0 5.05 2.2 7.14 5.93 7.14s5.93-2.09 5.93-7.14V556.89h6.08v14.89c0 7.83-4.48 12.16-12 12.16S1829.74 579.61 1829.74 571.78zM1983.7 561.83v7H1996v4.94H1983.7v9.69h-6.16v-26.6h20.1v4.94zM2032.07 583.48l-5.13-7.41h-5.66v7.41h-6.16v-26.6h11.51c7.1 0 11.55 3.69 11.55 9.65a8.65 8.65 0 01-5.47 8.4l6 8.55zm-5.78-21.58h-5v9.27h5c3.76 0 5.66-1.75 5.66-4.63S2030.06 561.9 2026.3 561.9zM2056.36 556.89h6.16v26.6h-6.16zM2189.61 580.86l2.09-4.63a15.64 15.64 0 008.78 2.77c3.65 0 5.13-1.22 5.13-2.85 0-5-15.46-1.56-15.46-11.44 0-4.52 3.65-8.28 11.21-8.28a17.84 17.84 0 019.23 2.36l-1.9 4.67a15 15 0 00-7.37-2.09c-3.65 0-5.05 1.37-5.05 3 0 4.9 15.46 1.52 15.46 11.28 0 4.45-3.69 8.25-11.29 8.25C2196.22 583.94 2192 582.69 2189.61 580.86zM2246.76 577.78h-12.35l-2.36 5.7h-6.31l11.85-26.6h6.08l11.89 26.6h-6.46zm-1.94-4.67l-4.22-10.18-4.22 10.18zM2275.83 561.9h-8.51v-5h23.18v5H2282v21.58h-6.16zM2406.45 580.86l2.09-4.63a15.64 15.64 0 008.78 2.77c3.65 0 5.13-1.22 5.13-2.85 0-5-15.46-1.56-15.46-11.44 0-4.52 3.65-8.28 11.21-8.28a17.84 17.84 0 019.23 2.36l-1.9 4.67a15 15 0 00-7.37-2.09c-3.65 0-5.05 1.37-5.05 3 0 4.9 15.46 1.52 15.46 11.28 0 4.45-3.69 8.25-11.29 8.25C2413.06 583.94 2408.81 582.69 2406.45 580.86zM2445.86 571.78V556.89H2452v14.67c0 5.05 2.2 7.14 5.93 7.14s5.93-2.09 5.93-7.14V556.89h6.08v14.89c0 7.83-4.48 12.16-12 12.16S2445.86 579.61 2445.86 571.78zM2513.72 556.89v26.6h-5.05l-13.26-16.15v16.15h-6.08v-26.6h5.09L2507.64 573V556.89z" transform="translate(-166.26 -97.73)"/><rect width="200.03" height="200.03" x="1039.9" y="625.59" fill="#2d334a" transform="rotate(90 1105.65 593.61)"/><rect width="200.03" height="200.03" x="1259.93" y="625.59" fill="#fff" transform="rotate(90 1325.68 593.61)"/><rect width="200.03" height="200.03" x="1479.96" y="625.59" fill="#2d334a" transform="rotate(90 1545.705 593.605)"/><rect width="200.03" height="200.03" x="1699.99" y="625.59" fill="#fff" transform="rotate(90 1765.735 593.605)"/><rect width="200.03" height="200.03" x="1920.01" y="625.59" fill="#2d334a" transform="rotate(90 1985.765 593.605)"/><rect width="200.03" height="200.03" x="2140.04" y="625.59" fill="#fff" transform="rotate(90 2205.79 593.61)"/><rect width="200.03" height="200.03" x="2360.07" y="625.59" fill="#2d334a" transform="rotate(90 2425.82 593.61)"/><rect width="200.03" height="200.03" x="1039.9" y="845.62" fill="#fff" transform="rotate(90 1105.65 813.64)"/><rect width="200.03" height="200.03" x="1259.93" y="845.62" fill="#2d334a" transform="rotate(90 1325.675 813.635)"/><rect width="200.03" height="200.03" x="1479.96" y="845.62" fill="#fff" transform="rotate(90 1545.705 813.635)"/><rect width="200.03" height="200.03" x="1699.99" y="845.62" fill="#2d334a" transform="rotate(90 1765.735 813.635)"/><rect width="200.03" height="200.03" x="1920.01" y="845.62" fill="#fff" transform="rotate(90 1985.765 813.635)"/><rect width="200.03" height="200.03" x="2140.04" y="845.62" fill="#2d334a" transform="rotate(90 2205.795 813.635)"/><rect width="200.03" height="200.03" x="2360.07" y="845.62" fill="#fff" transform="rotate(90 2425.82 813.64)"/><rect width="200.03" height="200.03" x="1039.9" y="1065.64" fill="#2d334a" transform="rotate(90 1105.65 1033.66)"/><rect width="200.03" height="200.03" x="1259.93" y="1065.64" fill="#fff" transform="rotate(90 1325.675 1033.665)"/><rect width="200.03" height="200.03" x="1479.96" y="1065.64" fill="#2d334a" transform="rotate(90 1545.705 1033.665)"/><rect width="200.03" height="200.03" x="1699.99" y="1065.64" fill="#fff" transform="rotate(90 1765.735 1033.665)"/><rect width="200.03" height="200.03" x="1920.01" y="1065.64" fill="#2d334a" transform="rotate(90 1985.765 1033.665)"/><rect width="200.03" height="200.03" x="2140.04" y="1065.64" fill="#fff" transform="rotate(90 2205.795 1033.665)"/><rect width="200.03" height="200.03" x="2360.07" y="1065.64" fill="#2d334a" transform="rotate(90 2425.825 1033.665)"/><rect width="200.03" height="200.03" x="1039.9" y="1285.67" fill="#fff" transform="rotate(90 1105.65 1253.69)"/><rect width="200.03" height="200.03" x="1259.93" y="1285.67" fill="#2d334a" transform="rotate(90 1325.68 1253.69)"/><rect width="200.03" height="200.03" x="1479.96" y="1285.67" fill="#fff" transform="rotate(90 1545.705 1253.695)"/><rect width="200.03" height="200.03" x="1699.99" y="1285.67" fill="#2d334a" transform="rotate(90 1765.735 1253.695)"/><rect width="200.03" height="200.03" x="1920.01" y="1285.67" fill="#fff" transform="rotate(90 1985.765 1253.695)"/><rect width="200.03" height="200.03" x="2140.04" y="1285.67" fill="#2d334a" transform="rotate(90 2205.795 1253.695)"/><rect width="200.03" height="200.03" x="2360.07" y="1285.67" fill="#fff" transform="rotate(90 2425.82 1253.69)"/><line x1="2183.81" x2="2183.81" y1="444.39" y2="1400.71" fill="none" stroke="#fab696" stroke-miterlimit="10" stroke-width="3"/><line x1="863.64" x2="863.64" y1="444.39" y2="1400.71" fill="none" stroke="#fab696" stroke-miterlimit="10" stroke-width="3"/><line x1="1083.67" x2="1083.67" y1="444.39" y2="1400.71" fill="none" stroke="#fab696" stroke-miterlimit="10" stroke-width="3"/><line x1="1303.7" x2="1303.7" y1="444.39" y2="1400.71" fill="none" stroke="#fab696" stroke-miterlimit="10" stroke-width="3"/><line x1="1523.73" x2="1523.73" y1="444.39" y2="1400.71" fill="none" stroke="#fab696" stroke-miterlimit="10" stroke-width="3"/><line x1="1743.76" x2="1743.76" y1="444.39" y2="1400.71" fill="none" stroke="#fab696" stroke-miterlimit="10" stroke-width="3"/><line x1="1963.78" x2="1963.78" y1="444.39" y2="1400.71" fill="none" stroke="#fab696" stroke-miterlimit="10" stroke-width="3"/><line x1="2403.84" x2="2403.84" y1="444.39" y2="1400.71" fill="none" stroke="#fab696" stroke-miterlimit="10" stroke-width="3"/><line x1="863.64" x2="2401.18" y1="520.86" y2="520.86" fill="none" stroke="#fab696" stroke-miterlimit="10" stroke-width="3"/><line x1="863.64" x2="2401.18" y1="737.07" y2="737.07" fill="none" stroke="#fab696" stroke-miterlimit="10" stroke-width="3"/><line x1="863.64" x2="2401.18" y1="1179.5" y2="1179.5" fill="none" stroke="#fab696" stroke-miterlimit="10" stroke-width="3"/><line x1="863.64" x2="2401.18" y1="1400.71" y2="1400.71" fill="none" stroke="#fab696" stroke-miterlimit="10" stroke-width="3"/><line x1="863.64" x2="2401.18" y1="958.29" y2="958.29" fill="none" stroke="#fab696" stroke-miterlimit="10" stroke-width="3"/><path fill="#fff" d="M1929.32,487.29s23.83,25.36,32.56,24.65-11.21-27.4-31.45-33.15Z" transform="translate(-166.26 -97.73)"/><path fill="#fab696" d="M1927.51,492.42c4.11-4,8.61-8,13-12.19-64.8-60.86-86.1-121.26,21.17-153.45,16.41-4.92,17-9,9-20.21,2.08-2.13,2.11-2.1,0,0-8-11.19-12.1-8.8-27.12-1.1C1845.37,355.82,1845.31,424.19,1927.51,492.42Z" transform="translate(-166.26 -97.73)"/><line x1="2262.67" x2="2262.67" y1="1583.41" y2="1341.01" fill="none" stroke="#3b3e54" stroke-linecap="round" stroke-linejoin="round" stroke-width="11"/><line x1="2262.67" x2="2302.81" y1="1436.78" y2="1396.64" fill="none" stroke="#3b3e54" stroke-linecap="round" stroke-linejoin="round" stroke-width="11"/><line x1="2262.67" x2="2221.06" y1="1479.32" y2="1437.71" fill="none" stroke="#3b3e54" stroke-linecap="round" stroke-linejoin="round" stroke-width="11"/><path fill="#0a7850" d="M2428.93,1343.11v157.5s32.86-35.26,32.86-78.75S2428.93,1343.11,2428.93,1343.11Z" transform="translate(-166.26 -97.73)"/><path fill="#0c9463" d="M2396.07,1421.86c0,43.49,32.86,78.75,32.86,78.75v-157.5S2396.07,1378.37,2396.07,1421.86Z" transform="translate(-166.26 -97.73)"/><path fill="#0a7850" d="M2553.47,1410.31,2454.74,1509s42.69-1.51,70-28.77S2553.47,1410.31,2553.47,1410.31Z" transform="translate(-166.26 -97.73)"/><path fill="#0c9463" d="M2483.51,1439.08c-27.26,27.26-28.77,70-28.77,70l98.72-98.72S2510.77,1411.82,2483.51,1439.08Z" transform="translate(-166.26 -97.73)"/><path fill="#0a7850" d="M2396.08,1544.2l-119.9-119.9s1.83,51.85,34.94,85S2396.08,1544.2,2396.08,1544.2Z" transform="translate(-166.26 -97.73)"/><path fill="#0c9463" d="M2361.15,1459.24c-33.11-33.11-85-34.94-85-34.94l119.9,119.9S2394.26,1492.35,2361.15,1459.24Z" transform="translate(-166.26 -97.73)"/><line x1="2262.67" x2="2282.58" y1="1514.28" y2="1494.38" fill="none" stroke="#3b3e54" stroke-linecap="round" stroke-linejoin="round" stroke-width="11"/><path fill="#0a7850" d="M2506.58,1706.87l-10.31-2.63c.12-.45,11.75-45.53,37.2-105.07,23.5-55,64-134,123.27-198.24l7.82,7.22c-58.28,63.11-98.13,141-121.31,195.21C2518.12,1662.15,2506.69,1706.43,2506.58,1706.87Z" transform="translate(-166.26 -97.73)"/><circle cx="2667.61" cy="1399.67" r="19.73" fill="#0a7850" transform="rotate(-76.03 2521.993 1457.148)"/><circle cx="2596.19" cy="1372.12" r="19.73" fill="#0a7850" transform="rotate(-76.03 2450.567 1429.6)"/><circle cx="2664.02" cy="1533.67" r="19.73" fill="#0a7850" transform="rotate(-76.03 2518.387 1591.146)"/><path fill="#0a7850" d="M2605.2 1484.71l-10.5-1.72c.09-.53 8.56-53.64-1.16-99.35l10.41-2.21C2614.09 1429.14 2605.57 1482.47 2605.2 1484.71zM2569.39 1544.76l-3.76-10c1.49-.56 37.19-13.75 89.29-8.82l-1 10.59C2604.25 1531.87 2569.74 1544.63 2569.39 1544.76z" transform="translate(-166.26 -97.73)"/><path fill="#2d334a" d="M2398.49 1666.84a66 66 0 00-63.42 47.81h126.85A66 66 0 002398.49 1666.84zM2571.52 1666.84a66 66 0 00-63.42 47.81h126.85A66 66 0 002571.52 1666.84z" transform="translate(-166.26 -97.73)"/><path fill="#2d334a" d="M2489.09,1646.35a94.24,94.24,0,0,0-90.6,68.3h181.19A94.24,94.24,0,0,0,2489.09,1646.35Z" transform="translate(-166.26 -97.73)"/><path fill="#0c9463" d="M2870.69 1530.31a99.15 99.15 0 00-95.31 71.85H2966A99.15 99.15 0 002870.69 1530.31zM3130.7 1530.31a99.15 99.15 0 00-95.31 71.85H3226A99.15 99.15 0 003130.7 1530.31z" transform="translate(-166.26 -97.73)"/><path fill="#0c9463" d="M3006.82,1499.53a141.62,141.62,0,0,0-136.14,102.63H3143A141.62,141.62,0,0,0,3006.82,1499.53Z" transform="translate(-166.26 -97.73)"/><path fill="none" stroke="#fff" stroke-miterlimit="10" stroke-width="2" d="M2384.95,796.28a10.3,10.3,0,0,0,9.07,8.91c4.58.4,8.64-3,10.46-7.23,3-7,1.41-13-1-12.9-3.91.06-3.93,14.42-1.59,17.23s6.82,3.22,9.9,1.24c4.56-2.93,10.29-11,10.58-18,.09-2.26-1.64-10-5.27-5.92-4.54,5.88-2.59,11.57,1.45,21a9.75,9.75,0,0,0,3.75,3.88c2.43,1.5,5.77.55,7.81-1.45a26.5,26.5,0,0,0,5-7.72c1.3-2.89.24-8.18-2.62-4.14-2.57,3.64-1.56,13.18,4,14.78s11.83-2.35,13.61-7.87" transform="translate(-166.26 -97.73)"/><path fill="#fab696" d="M1616.86 994a9.53 9.53 0 00-6.33-7.93l-7.68-76.4h2.2a5.92 5.92 0 005.87-5.22l2.68-22.76c-4.22-.38-8.62-.7-13.17-.94l-1 10.32a2.45 2.45 0 01-2.44 2.22h-6.31a2.45 2.45 0 01-2.44-2.22l-1-10.83q-5.11-.12-10.37-.12t-10.38.12l-1 10.83a2.45 2.45 0 01-2.44 2.22h-6.31a2.45 2.45 0 01-2.44-2.22l-1-10.32c-4.55.25-9 .56-13.17.94l2.68 22.76a5.92 5.92 0 005.87 5.22h2.2l-7.68 76.4a9.53 9.53 0 00-6.33 7.93l-2.48 16.92h85zM1174.43 1214.14a9.53 9.53 0 00-6.33-7.93l-7.68-76.4h2.2a5.92 5.92 0 005.87-5.23l2.68-22.76c-4.22-.38-8.62-.7-13.17-.94l-1 10.32a2.45 2.45 0 01-2.44 2.22h-6.31a2.45 2.45 0 01-2.44-2.22l-1-10.83q-5.11-.12-10.37-.12t-10.38.12l-1 10.83a2.45 2.45 0 01-2.44 2.22h-6.31a2.45 2.45 0 01-2.44-2.22l-1-10.32c-4.55.25-9 .56-13.17.94l2.68 22.76a5.92 5.92 0 005.87 5.23h2.2l-7.68 76.4a9.53 9.53 0 00-6.33 7.93l-2.48 16.92h85z" transform="translate(-166.26 -97.73)"/><path fill="#0c9463" d="M1840.41 981.53c25.33-23.08 24.17-44.08 22.88-51-2.43-13-11.8-22.37-24.45-24.46s-23.53 4.06-31.91 11.65l-.44-18.43h9.59V886h-9.91l-.18-7.73h-14.62l-.18 7.73h-9.91V899.3h9.59l-.44 18.43c-8.38-7.59-19.34-13.72-31.91-11.65s-22 11.45-24.45 24.46c-1.29 6.92-2.45 27.92 22.88 51a10 10 0 00-5.7 7.29l-2.93 16.92H1849l-2.93-16.92A10 10 0 001840.41 981.53zm-4.9-55.28c4.11.68 6.83 3.53 7.68 8 1.91 10.2-6.14 28.11-34.8 45.5l-.72-30.48a78.89 78.89 0 019.88-13.32C1821.39 931.88 1828.83 925.13 1835.51 926.25zm-81.35 8c.84-4.51 3.57-7.36 7.68-8 6.68-1.12 14.12 5.63 18 9.75a78.9 78.9 0 019.88 13.32l-.72 30.48C1760.31 962.4 1752.26 944.48 1754.16 934.29zM2276.43 775.48c-.7-4.77-4.33-8.27-8.6-8.27h-1.36L2266 764c-.52-3.53-3.21-6.12-6.36-6.12h-.33l-12.15-50.15H2252a5.54 5.54 0 000-11.09h-6.84a20 20 0 10-17.53 0h-6.84a5.54 5.54 0 100 11.09h4.83l-12.15 50.15h-.33c-3.15 0-5.84 2.59-6.36 6.12l-.47 3.2h-1.36c-4.26 0-7.9 3.5-8.6 8.27l-2.48 16.92h85zM1399.55 1431.31c-.7-4.77-4.33-8.27-8.6-8.27h-1.36l-.47-3.2c-.52-3.53-3.21-6.12-6.36-6.12h-.33l-12.15-50.15h4.83a5.54 5.54 0 000-11.09h-6.84a20 20 0 10-17.53 0h-6.84a5.54 5.54 0 000 11.09h4.83l-12.15 50.15h-.33c-3.15 0-5.84 2.59-6.36 6.12l-.47 3.2h-1.36c-4.26 0-7.9 3.5-8.6 8.27l-2.48 16.92h85z" transform="translate(-166.26 -97.73)"/><polygon fill="#bbe1d3" points="1925.97 753.55 1768.18 734.33 1743.66 935.67 1933.45 958.79 1954.08 789.46 1925.97 753.55"/><polygon fill="#98d2bd" points="1922.07 785.56 1954.08 789.46 1925.97 753.55 1922.07 785.56"/><path fill="none" stroke="#0c9463" stroke-miterlimit="10" stroke-width="2" d="M1948.8 887.6a14.85 14.85 0 0011.1 14.58c6.45 1.51 12.95-2.51 16.42-8.16 5.78-9.39 4.69-18.28 1.19-18.62-5.6-.72-8.58 19.77-5.82 24.26s9.07 6 13.87 3.81c7.11-3.24 16.93-13.52 18.8-23.5.6-3.2-.3-14.54-6.31-9.54-7.69 7.46-6.08 16-2.26 30.28.63 2.35 2.68 4.75 4.54 6.31 3.15 2.64 8.12 2 11.45-.45s6.51-6.51 8.72-10c2.44-3.86 2-11.62-2.88-6.44-4.41 4.66-4.94 18.48 2.68 21.92s17.37-.91 21-8.42c1.57-3.21 6.8-18.61 2.74-19.1-5.67-.84-8.17 21.39-4.69 26.93a8.87 8.87 0 005.53 4.25c3.23.62 6.45-1.4 8.52-4s3.36-5.65 5.22-8.37a14.83 14.83 0 017.06-5.86M1942.62 942.6a14.85 14.85 0 0011.1 14.58c6.45 1.51 12.95-2.51 16.42-8.16 5.78-9.39 4.69-18.28 1.19-18.62-5.6-.72-8.58 19.77-5.82 24.26s9.07 6 13.87 3.81c7.11-3.24 16.93-13.52 18.8-23.5.6-3.2-.3-14.54-6.31-9.54-7.69 7.46-6.08 16-2.26 30.28.63 2.35 2.68 4.75 4.54 6.31 3.15 2.64 8.12 2 11.45-.45s6.51-6.51 8.72-10c2.44-3.86 2-11.62-2.88-6.44-4.41 4.66-4.94 18.48 2.68 21.92s17.37-.91 21-8.42c1.57-3.21 6.8-18.61 2.74-19.1-5.67-.84-8.17 21.39-4.69 26.93a8.87 8.87 0 005.53 4.25c3.23.62 6.45-1.4 8.52-4s3.36-5.65 5.22-8.37a14.82 14.82 0 017.06-5.86M2018.19 1008.27A7.83 7.83 0 002024 1016c3.4.79 6.82-1.32 8.65-4.3 3-4.95 2.47-9.64.63-9.82-3-.38-4.52 10.42-3.07 12.79a5.9 5.9 0 007.31 2c3.75-1.71 8.93-7.13 9.91-12.39.32-1.69-.16-7.66-3.32-5-4.05 3.93-3.21 8.42-1.19 16a7.41 7.41 0 002.4 3.33c1.66 1.39 4.28 1 6-.24A20.14 20.14 0 002056 1013c1.29-2 1.07-6.13-1.52-3.4-2.33 2.46-2.6 9.74 1.41 11.55s9.15-.48 11.09-4.44c.83-1.69 3.58-9.81 1.44-10.06-3-.44-4.31 11.27-2.47 14.2a4.68 4.68 0 002.92 2.24c1.7.33 3.4-.74 4.49-2.09s1.77-3 2.75-4.41a7.81 7.81 0 013.72-3.09" transform="translate(-166.26 -97.73)"/><path fill="#fab696" d="M2062.47 881.18c.94.14 1.64-.82 2.1-1.65l1.51-2.73c.18-.33.41-.69.78-.74s.84.44 1.07.88l1.36 2.62a13.08 13.08 0 004.34-5.55 10.49 10.49 0 012 2.84 18.34 18.34 0 012-4.91 15 15 0 013 5.42c1.22-1.72 2.51-3.39 3.84-5V810h-25v68.59c.62.6 1.22 1.21 1.84 1.81A2.35 2.35 0 002062.47 881.18zM1920.48 867.75c.59.75 1.75.53 2.66.24l3-1a1.23 1.23 0 011.07 0c.4.28.31.9.18 1.37l-.8 2.84a13.08 13.08 0 007-1.07 10.49 10.49 0 01-.51 3.42 18.34 18.34 0 014.82-2.21 15 15 0 01-1.52 6c2.07-.42 4.15-.76 6.24-1l42.66-45.4L1967 813.83l-47 50c0 .86.06 1.72.11 2.58A2.35 2.35 0 001920.48 867.75z" opacity=".5" transform="translate(-166.26 -97.73)"/><path fill="none" stroke="#fff" stroke-miterlimit="10" stroke-width="2" d="M2463.86,701.61c-2.24-.39-3.6,3.39-1.63,4.51s4.54-2,3.07-3.69" transform="translate(-166.26 -97.73)"/><circle cx="2295.97" cy="608.39" r="59.89" fill="none" stroke="#fff" stroke-miterlimit="10" stroke-width="2"/><path fill="none" stroke="#fff" stroke-miterlimit="10" stroke-width="2" d="M2462.23 704.24q25.26 12.84 51.66 23.26M2462.91 702A534.14 534.14 0 002537.48 655" transform="translate(-166.26 -97.73)"/><line x1="2299.71" x2="2316.87" y1="608.39" y2="593.21" fill="none" stroke="#fff" stroke-miterlimit="10" stroke-width="2"/><line x1="2305.77" x2="2329.25" y1="610.64" y2="589.43" fill="none" stroke="#fff" stroke-miterlimit="10" stroke-width="2"/><line x1="2315.03" x2="2347.63" y1="615.78" y2="584.8" fill="none" stroke="#fff" stroke-miterlimit="10" stroke-width="2"/><line x1="2326.41" x2="2347.63" y1="616.33" y2="596.54" fill="none" stroke="#fff" stroke-miterlimit="10" stroke-width="2"/><line x1="2337.02" x2="2349.57" y1="621.81" y2="608.64" fill="none" stroke="#fff" stroke-miterlimit="10" stroke-width="2"/><rect width="87.98" height="10.68" x="1112.76" y="566.12" fill="#9ad3be" rx="5" ry="5"/><rect width="112.41" height="10.68" x="1112.76" y="585.37" fill="#9ad3be" rx="5" ry="5"/><rect width="99.82" height="10.68" x="1112.76" y="604.62" fill="#9ad3be" rx="5" ry="5"/><rect width="65.11" height="10.68" x="1112.76" y="623.87" fill="#9ad3be" rx="5" ry="5"/><rect width="61.88" height="10.68" x="1189.37" y="623.87" fill="#9ad3be" rx="5" ry="5"/><rect width="99.82" height="10.68" x="1112.76" y="643.12" fill="#9ad3be" rx="5" ry="5"/><rect width="18.85" height="10.68" x="1225.16" y="643.12" fill="#9ad3be" rx="5" ry="5"/><rect width="18.85" height="10.68" x="1255.36" y="643.12" fill="#9ad3be" rx="5" ry="5"/><path fill="#2d334a" d="M1752.16,699a43.56,43.56,0,1,1,87.12,0c0,24.06-43.56,88.78-43.56,88.78S1752.16,723,1752.16,699Z" transform="translate(-166.26 -97.73)"/><circle cx="1629.47" cy="601.26" r="19.27" fill="#fcd0bc"/><g opacity=".46"><circle cx="1615.93" cy="1127.61" r="12.46" fill="#fab696" transform="rotate(-65.25 1456.326 1208.6)"/><path fill="#fff" d="M1617.29 1123.77a3.58 3.58 0 10-6.72 2.48l2.66 7.22 4.24-9.2zM1618 1124.08a3.58 3.58 0 012.48 6.72l-7.22 2.66 4.24-9.2z" transform="translate(-166.26 -97.73)"/></g><g opacity=".46"><circle cx="1590.13" cy="1091.88" r="9.02" fill="#fab696" transform="rotate(-18.7 1210.234 1547.903)"/><path fill="#fff" d="M1588.94,1089.18a2.6,2.6,0,1,0-2.3,4.65l5,2.47-2.35-7Z" transform="translate(-166.26 -97.73)"/><path fill="#fff" d="M1589.45,1089a2.6,2.6,0,0,1,4.65,2.3l-2.47,5-2.35-7Z" transform="translate(-166.26 -97.73)"/></g><g opacity=".76"><circle cx="1596.8" cy="1165.66" r="25.59" fill="#fab696" transform="rotate(-76.31 1451.42 1222.608)"/><path fill="#fff" d="M1598 1157.37a7.36 7.36 0 00-12.58 7.65l8.21 13.5 4.93-20.23zM1599.51 1157.73a7.36 7.36 0 017.65 12.58l-13.5 8.21 4.93-20.23z" transform="translate(-166.26 -97.73)"/></g><g opacity=".46"><circle cx="1514.28" cy="1109.65" r="15.79" fill="#fab696" transform="rotate(-27.74 1233.018 1397.353)"/><path fill="#fff" d="M1511.47 1105.31a4.54 4.54 0 00-2.7 8.68l9.31 2.89-6-11.37zM1512.3 1104.87a4.54 4.54 0 018.68 2.7l-2.89 9.31-6-11.37z" transform="translate(-166.26 -97.73)"/></g><g opacity=".3"><circle cx="1638.11" cy="1218.77" r="18.76" fill="#fab696" transform="rotate(-53.45 1457.884 1335.004)"/><path fill="#fff" d="M1641.3 1213.53a5.4 5.4 0 00-10.68 1.59l1.7 11.46 9.09-12.26zM1642.2 1214.19a5.4 5.4 0 111.59 10.68l-11.46 1.7 9.09-12.26z" transform="translate(-166.26 -97.73)"/></g><circle cx="1549.09" cy="1199.77" r="42.48" fill="#fab696" transform="rotate(-8.98 843.056 2209.137)"/><path fill="#fff" d="M1545.68 1186.29a12.22 12.22 0 00-14.37 19.77l21.21 15.43-5.39-34.14zM1548.17 1185.89a12.22 12.22 0 1119.77 14.37l-15.42 21.21-5.39-34.14z" transform="translate(-166.26 -97.73)"/><path fill="#fab696" d="M1439.48,950.91l-8.92-2q.16-2.37.17-4.71l9-1.38a1,1,0,0,0,.81-1l-.23-4.13a1,1,0,0,0-.92-.91l-9.12-.36q-.26-2.36-.68-4.67l8.63-3a1,1,0,0,0,.62-1.13l-1-4a1,1,0,0,0-1.07-.73l-9,1.28q-.68-2.27-1.51-4.47l8-4.46a1,1,0,0,0,.41-1.22l-1.67-3.78a1,1,0,0,0-1.18-.52l-8.66,2.87q-1.07-2.1-2.28-4.13l7-5.81a1,1,0,0,0,.18-1.28l-2.32-3.43a1,1,0,0,0-1.25-.3l-8,4.38q-1.43-1.88-3-3.65l5.9-7a1,1,0,0,0,0-1.29l-2.89-3a1,1,0,0,0-1.29-.08l-7.11,5.74q-1.74-1.59-3.58-3.07l4.55-7.91a1,1,0,0,0-.28-1.26l-3.37-2.39a1,1,0,0,0-1.28.16l-6,6.91q-2-1.25-4.08-2.38l3.06-8.59a1,1,0,0,0-.5-1.19l-3.75-1.75a1,1,0,0,0-1.23.38l-4.63,7.85q-2.18-.88-4.44-1.6l1.48-9a1,1,0,0,0-.7-1.08l-4-1.05a1,1,0,0,0-1.15.6L1375,876q-2.3-.47-4.65-.78l-.15-9.13a1,1,0,0,0-.88-.94l-4.12-.32a1,1,0,0,0-1,.79l-1.58,9q-2.37-.06-4.72,0l-1.78-9a1,1,0,0,0-1-.77l-4.11.42a1,1,0,0,0-.86,1l.05,9.12q-2.34.37-4.64.89l-3.35-8.48a1,1,0,0,0-1.16-.57l-4,1.15a1,1,0,0,0-.68,1.1l1.68,9q-2.23.78-4.4,1.71l-4.81-7.75a1,1,0,0,0-1.24-.35l-3.71,1.84a1,1,0,0,0-.47,1.2l3.26,8.53q-2.05,1.17-4,2.47l-6.12-6.78a1,1,0,0,0-1.28-.13l-3.32,2.47a1,1,0,0,0-.25,1.27l4.73,7.82q-1.81,1.51-3.52,3.14l-7.24-5.58a1,1,0,0,0-1.29.1l-2.82,3a1,1,0,0,0,0,1.29l6,6.84q-1.51,1.81-2.9,3.72l-8.11-4.19a1,1,0,0,0-1.25.33l-2.24,3.48a1,1,0,0,0,.21,1.27l7.17,5.65q-1.16,2-2.19,4.18l-8.72-2.67a1,1,0,0,0-1.17.55l-1.58,3.82a1,1,0,0,0,.44,1.22l8.06,4.28q-.77,2.22-1.4,4.51l-9.06-1.07a1,1,0,0,0-1.05.75l-.87,4a1,1,0,0,0,.65,1.12l8.7,2.77q-.36,2.31-.57,4.68l-9.12.56a1,1,0,0,0-.9.93l-.14,4.13a1,1,0,0,0,.84,1l9.06,1.17c0,1.58.12,3.15.26,4.71l-8.86,2.18a1,1,0,0,0-.72,1.07l.6,4.09a1,1,0,0,0,1,.82l9.11-.46q.47,2.32,1.1,4.59l-8.32,3.72a1,1,0,0,0-.52,1.18l1.32,3.92a1,1,0,0,0,1.13.63l8.88-2.08q.88,2.19,1.91,4.32l-7.53,5.16a1,1,0,0,0-.3,1.26l2,3.62a1,1,0,0,0,1.22.42l8.38-3.64q1.26,2,2.65,3.9l-6.5,6.42a1,1,0,0,0-.07,1.29l2.62,3.2a1,1,0,0,0,1.28.19l7.6-5.08q1.59,1.74,3.29,3.37l-5.25,7.48a1,1,0,0,0,.16,1.28L1311,1006a1,1,0,0,0,1.29,0l6.56-6.35q1.87,1.43,3.85,2.73l-3.82,8.29a1,1,0,0,0,.39,1.23l3.57,2.08a1,1,0,0,0,1.26-.27l5.32-7.41q2.1,1.07,4.28,2l-2.28,8.83a1,1,0,0,0,.6,1.14l3.89,1.41a1,1,0,0,0,1.19-.49L1341,1011q2.25.67,4.56,1.2l-.67,9.11a1,1,0,0,0,.8,1l4.08.69a1,1,0,0,0,1.09-.7l2.38-8.82c.78.09,1.56.17,2.35.23s1.57.11,2.35.14l1,9.09a1,1,0,0,0,1,.86l4.14,0a1,1,0,0,0,.95-.88l.76-9.1q2.37-.16,4.69-.47L1373,1022a1,1,0,0,0,1.1.67l4.06-.78a1,1,0,0,0,.77-1l-.87-9.08q2.3-.58,4.54-1.31l4.09,8.15a1,1,0,0,0,1.21.46l3.86-1.5a1,1,0,0,0,.58-1.16l-2.48-8.78q2.15-1,4.23-2.1l5.49,7.29a1,1,0,0,0,1.27.24l3.53-2.16a1,1,0,0,0,.36-1.24l-4-8.21q1.94-1.34,3.78-2.82l6.71,6.2a1,1,0,0,0,1.29,0l3.08-2.76a1,1,0,0,0,.13-1.28l-5.41-7.36q1.67-1.67,3.22-3.44l7.7,4.9a1,1,0,0,0,1.27-.22l2.54-3.26a1,1,0,0,0-.1-1.29l-6.63-6.27q1.34-1.93,2.56-4l8.45,3.44a1,1,0,0,0,1.21-.44l1.92-3.66a1,1,0,0,0-.33-1.25l-7.64-5q1-2.14,1.81-4.36l8.92,1.88a1,1,0,0,0,1.11-.65l1.23-3.95a1,1,0,0,0-.54-1.17l-8.42-3.54q.57-2.28,1-4.61l9.13.26a1,1,0,0,0,1-.84l.51-4.1A1,1,0,0,0,1439.48,950.91ZM1321.6,898.73a10.78,10.78,0,1,1-1.19,15.2A10.78,10.78,0,0,1,1321.6,898.73Zm-10.67,52.82a10.78,10.78,0,1,1,11.6-9.91A10.78,10.78,0,0,1,1310.93,951.55Zm19.9,33.29a10.78,10.78,0,1,1,1.19-15.2A10.78,10.78,0,0,1,1330.83,984.85Zm34.46-100.71a10.78,10.78,0,1,1-11.6,9.91A10.78,10.78,0,0,1,1365.29,884.13Zm-8.44,120.09a10.78,10.78,0,1,1,11.6-9.91A10.78,10.78,0,0,1,1356.85,1004.22Zm34.46-100.71a10.78,10.78,0,1,1-1.19,15.2A10.78,10.78,0,0,1,1391.31,903.51Zm9.23,86.11a10.78,10.78,0,1,1,1.19-15.2A10.78,10.78,0,0,1,1400.55,989.62Zm9-31.32a10.78,10.78,0,1,1,11.6-9.91A10.78,10.78,0,0,1,1409.52,958.31Z" transform="translate(-166.26 -97.73)"/><path fill="#fcd8c7" d="M1392.41,955.18l-5.58-3.23a27.07,27.07,0,0,0,.9-4l6.41-.54a.94.94,0,0,0,.86-.93l0-4.07a.94.94,0,0,0-.84-.95l-6.39-.68a26.94,26.94,0,0,0-.82-4l5.64-3.1a.94.94,0,0,0,.41-1.2l-1.61-3.73a.94.94,0,0,0-1.16-.52l-6.13,2a27.06,27.06,0,0,0-2.38-3.35l3.88-5.13a.94.94,0,0,0-.11-1.26l-3-2.75a.94.94,0,0,0-1.27,0l-4.79,4.3a26.83,26.83,0,0,0-3.54-2.09l1.46-6.27a.94.94,0,0,0-.62-1.11l-3.85-1.3a.94.94,0,0,0-1.16.51l-2.62,5.88a26.84,26.84,0,0,0-4.08-.48l-1.21-6.32a.94.94,0,0,0-1-.76l-4,.38a.94.94,0,0,0-.85.94v6.43A27,27,0,0,0,1351,919l-3.68-5.28a.94.94,0,0,0-1.24-.28l-3.54,2a.94.94,0,0,0-.4,1.21l2.61,5.88a27,27,0,0,0-3.09,2.71l-5.5-3.32a.94.94,0,0,0-1.25.24l-2.42,3.26a.94.94,0,0,0,.13,1.26l4.78,4.31a27.08,27.08,0,0,0-1.71,3.74l-6.39-.8a.94.94,0,0,0-1,.73l-.89,4a.94.94,0,0,0,.63,1.1l6.12,2a26.77,26.77,0,0,0,0,4.11l-6.15,1.86a.94.94,0,0,0-.65,1.09l.8,4a.94.94,0,0,0,1,.75l6.4-.67a27.13,27.13,0,0,0,1.63,3.77l-4.87,4.21a.94.94,0,0,0-.15,1.26l2.36,3.31a.94.94,0,0,0,1.24.27l5.57-3.21a26.85,26.85,0,0,0,3,2.78l-2.73,5.82a.94.94,0,0,0,.37,1.21l3.5,2.07a.94.94,0,0,0,1.24-.26l3.79-5.21c.63.26,1.26.52,1.92.74s1.31.41,2,.57l-.13,6.44a.94.94,0,0,0,.83,1l4,.47a.94.94,0,0,0,1-.74l1.34-6.29a26.84,26.84,0,0,0,4.09-.39l2.5,5.92a.94.94,0,0,0,1.15.53l3.88-1.22a.94.94,0,0,0,.64-1.1l-1.33-6.3a27.14,27.14,0,0,0,3.58-2l4.7,4.4a.94.94,0,0,0,1.27,0l3.05-2.69a.94.94,0,0,0,.14-1.26l-3.77-5.21a26.78,26.78,0,0,0,2.45-3.3l6.08,2.11a.94.94,0,0,0,1.17-.5l1.69-3.7A.94.94,0,0,0,1392.41,955.18Zm-49-17a18.64,18.64,0,0,1,22.55-12l-4.1,12.19a5.83,5.83,0,0,0-6.62,5.41l-12.68,2.56A18.56,18.56,0,0,1,1343.36,938.13Zm14.28,4.81a3.58,3.58,0,1,1,2.25,4.53A3.58,3.58,0,0,1,1357.64,942.94Zm6.27-4,4.1-12.19a18.64,18.64,0,0,1,6.1,30.56l-8.5-9.64a5.83,5.83,0,0,0-1.7-8.73Zm-21,9.44,12.57-2.53a5.84,5.84,0,0,0,8.46,3.26l8.51,9.66a18.64,18.64,0,0,1-29.54-10.38Z" transform="translate(-166.26 -97.73)"/><path fill="none" stroke="#fab696" stroke-linecap="round" stroke-linejoin="round" stroke-width="2" d="M1082.37 650.06s-2.66 125.73 0 151.09c0 0 107.61-.38 113.25 0 0 0 2.34-145.52 0-151.09C1195.62 650.06 1090.36 652.08 1082.37 650.06zM1080.24 644.46S1182.84 788 1199.59 806.83M1077 806.83S1186.18 661.46 1203.93 640" transform="translate(-166.26 -97.73)"/><path fill="#c4a997" d="M2296.4,1617.91a6.36,6.36,0,0,0,.47-9.84l-34-30.54a6.35,6.35,0,0,0-8.49,9.45l34,30.54A6.36,6.36,0,0,0,2296.4,1617.91Z" transform="translate(-166.26 -97.73)"/><path fill="#12162b" d="M2297.76,1606.39s12.89,10.78,10,13.49-47.35,37.81-49.18,35.9c-6.25-6.53,26-40.75,30.18-42.72S2295.93,1604.79,2297.76,1606.39Z" transform="translate(-166.26 -97.73)"/><path fill="#c4a997" d="M1986.84,1103.19s-27.85-17.25-35.63-14.48,16.88,22.19,36.68,22.48Z" transform="translate(-166.26 -97.73)"/><path fill="#0c9463" d="M1985.85,1099.3c-3.16,4.27-6.39,8.28-9.49,12.36,63.71,51.55,112.79,56.57,181,14.12,10.43-6.49,9.44-10.71,3.2-18.84.75-1.75.85-1.63,0,0-6.24-8.13-9.5-8.28-20.1-1.7C2071.15,1148.25,2056.56,1139.07,1985.85,1099.3Z" transform="translate(-166.26 -97.73)"/><path fill="#c4a997" d="M2132.75,1653.53a6.36,6.36,0,0,0,6.23-7.62l-9.12-44.78a6.35,6.35,0,1,0-12.45,2.54l9.12,44.78A6.36,6.36,0,0,0,2132.75,1653.53Z" transform="translate(-166.26 -97.73)"/><path fill="#777b8a" d="M2118.76,1627.49a166,166,0,0,0,20.24-1.86c-20.14-107.63-35.38-252.1,18.47-352.7q-24.52-12-49.25-23.62C2068.86,1337,2102.38,1534.9,2118.76,1627.49Z" transform="translate(-166.26 -97.73)"/><path fill="#777b8a" d="M2270.47,1610.35c5.33-4.74,10.53-9.59,15.55-14.64-99-97-119.63-194.91-111.16-329.26q-27.59-2-55.22-3.47C2128.83,1397,2176.23,1513.31,2270.47,1610.35Z" transform="translate(-166.26 -97.73)"/><path fill="#12162b" d="M2140.7,1645.09s3.93,16.34,0,16.79-60.56,2.17-60.89-.45c-1.13-9,45.16-17.25,49.69-16.34S2140.18,1642.71,2140.7,1645.09Z" transform="translate(-166.26 -97.73)"/><path fill="#0c9463" d="M2174.22,1283.52c-8.77-3.47-21.44-6.83-43.53-7.77-15-.64-26.79-.11-36,1.13,38.65-82.94,45.35-124.27,41.84-147.56a32.17,32.17,0,0,1,12.11-30.41l3.63-2.8c16.88-13,41.59-3.7,45.64,17.21a172.77,172.77,0,0,1,2.87,24C2203,1180.15,2197.28,1226.75,2174.22,1283.52Z" transform="translate(-166.26 -97.73)"/><path fill="#c4a997" d="M2198.1,1258.22s-32.25,12-35,20.2,29.27.31,42.27-15.92Z" transform="translate(-166.26 -97.73)"/><path fill="#0c9463" d="M2192.71,1259.33c2.87,5.65,5.65,11.23,8,16.86,76.44-75.81,78-111.08-1.38-171.05-12.14-9.17-15.57-7.71-21.52,4.38-4.48,9.1-.16,12.48,10.81,20.48C2260.39,1182.29,2253.37,1182.36,2192.71,1259.33Z" transform="translate(-166.26 -97.73)"/><path fill="#c4a997" d="M2181.33,1060.38c-7.25,17.8-25.52,27.19-36.4,22.76s-10.25-21-3-38.8,19.75-23.28,30.63-18.85S2188.58,1042.57,2181.33,1060.38Z" transform="translate(-166.26 -97.73)"/><path fill="#12162b" d="M2188.53,1050.09s.88-12.94-6.37-20.69-24.73-14-34.87.23c0,0-6.28,10.8,7.39,17.26s13.58-1.87,18.25,7.43,12.64,6.11,13.42,8.15Z" transform="translate(-166.26 -97.73)"/><path fill="#fbe3b9" d="M2183.69,1064.78s-2.53-32.8-36.39-35.15c0,0,0-7.1,9.21-10.6s26.43-5,46.93,11.75c0,0,5.29,7.46-1.73,9s-6.52,2.77-6.77,6S2194.73,1069.1,2183.69,1064.78Z" transform="translate(-166.26 -97.73)"/><path fill="#c4a997" d="M2178.24,1061l-20.09-2c-.27,2.75-2.38,28.95-1.36,38.82.74,3,5.75,4.44,11.19,3.12,4.89-1.19,8.44-4.16,8.57-7h0C2176,1088.1,2177.3,1070.62,2178.24,1061Z" transform="translate(-166.26 -97.73)"/><path fill="#c4a997" d="M2186.86,1069.77c-1.69,4.14-8,7.77-11,6.55s-2.38-4.89-.7-9,5.7-7,8.7-5.81S2188.55,1065.62,2186.86,1069.77Z" transform="translate(-166.26 -97.73)"/><path fill="#12162b" d="M2137.16,1063.65l.74.23c3.81,1.2,21.13,7,24,13.13,3.18,6.93-8.95-1.19-12.93-5.26s-7.59-2.72-11.13-3.06S2131.93,1064.47,2137.16,1063.65Z" transform="translate(-166.26 -97.73)"/><path fill="#131313" d="M2172.74,1067.65c-3.51-2.59-5.7.77-11.95,6.05s-19,6.67-23-9.54c-2.56-10.33-5.16,7.86-5.17,7.88.47,8.79,3.78,13.52,10.23,16.15,8.91,3.63,21.41.46,31.32-8.38C2175.18,1075.27,2175.14,1069.41,2172.74,1067.65Z" transform="translate(-166.26 -97.73)"/><polygon fill="#b1b3bc" points="1816.36 952.47 1697.35 1055.97 1668.62 1030.74 1584.98 1107.1 1568.28 1089.92 1564.21 1144.65 1619.04 1142.14 1603.46 1126.12 1668.96 1066.33 1697.26 1091.19 1833.76 972.48 1816.36 952.47"/><path fill="#b1b3bc" d="M2453.07,929.36a61.81,61.81,0,0,0-16.43,2.17l2.13-32.19h49.62V885.21H2431l-3.71,55.45,4.94,1.24a76.77,76.77,0,0,1,16.25-1.94c17.31,0,28.08,10.24,28.08,28.61,0,17.66-9.36,29.31-26.84,29.31a38.76,38.76,0,0,1-10.28-1.38l-2.61-9.39c-2.47-9.18-4.77-11.83-10.07-11.83a9,9,0,0,0-8.83,5.83c3.88,16.6,15,24.72,32.85,24.72,24.55,0,40.79-15.89,40.79-39C2491.56,942.6,2475.85,929.36,2453.07,929.36Z" transform="translate(-166.26 -97.73)"/><path fill="#fab696" d="M1771.57,1304.42l-49.09,85a4.86,4.86,0,0,0,4.21,7.29h98.17a4.86,4.86,0,0,0,4.21-7.29l-49.09-85A4.86,4.86,0,0,0,1771.57,1304.42Z" transform="translate(-166.26 -97.73)"/><path fill="#fff" d="M1770,1380.61a5.79,5.79,0,1,1,11.57,0,5.79,5.79,0,1,1-11.57,0Zm10.84-52.73c0,3.4-1,12.13-2.2,25l-1.19,12.77h-3.31l-1.19-12.77c-1.19-12.86-2.21-21.59-2.21-25,0-3.95,1.93-5.6,5.05-5.6S1780.83,1323.93,1780.83,1327.88Z" transform="translate(-166.26 -97.73)"/><circle cx="2295.53" cy="1062.73" r="65.25" fill="#fab696"/><polyline fill="none" stroke="#fff" stroke-linecap="round" stroke-linejoin="round" stroke-width="16.44" points="2262.7 1050.89 2294.3 1082.5 2328.36 1048.44"/><path fill="none" stroke="#2d334a" stroke-linecap="round" stroke-linejoin="round" stroke-width="2" d="M1523.91,1442.63a56.2,56.2,0,0,0,23.93-90.37c-2.62-3-5.93-5.82-9.88-5.93-3.7-.1-7.1,2.31-9.19,5.36-5.33,7.77-2.92,19.18,3.89,25.68s16.93,8.62,26.3,7.62,18.2-4.77,26.75-8.73c30.91-14.33,52.56-33.93,69.69-67.69" transform="translate(-166.26 -97.73)"/><path fill="none" stroke="#2d334a" stroke-linecap="round" stroke-linejoin="round" stroke-width="2" d="M1642.88,1313.84s8.61-3.37,13.18-7c0,0,1.46,10.11,3.68,14.55" transform="translate(-166.26 -97.73)"/></svg>